<svg width="40" height="40" viewBox="0 0 40 40" fill="none" xmlns="http://www.w3.org/2000/svg">
<rect width="40" height="40" rx="20" fill="#277EB8" fill-opacity="0.5"/>
<path d="M25.6113 15.8898C25.3729 15.8898 25.1521 15.9571 24.9561 16.0656C24.9395 16.0119 24.921 15.9592 24.8972 15.9087C24.9705 15.835 25.0169 15.7329 25.0169 15.6203C25.0169 14.3686 24.5732 13.2223 23.8396 12.3317L24.5681 11.5127C24.7146 11.3474 24.7033 11.0916 24.5413 10.9421C24.3793 10.7916 24.1285 10.8042 23.982 10.9695L23.2824 11.7569C22.4012 10.9769 21.2548 10.5 19.999 10.5C18.7443 10.5 17.5979 10.9758 16.7167 11.7559L16.0181 10.9706C15.8716 10.8053 15.6209 10.7926 15.4589 10.9432C15.2969 11.0927 15.2845 11.3485 15.432 11.5137L16.1595 12.3317C15.4248 13.2223 14.9811 14.3697 14.9811 15.6213C14.9811 15.735 15.0265 15.8361 15.1008 15.9098C15.0771 15.9603 15.0585 16.0129 15.042 16.0666C14.846 15.9582 14.6252 15.8908 14.3868 15.8908C13.6222 15.8908 13 16.5256 13 17.3056V23.3691C13 24.1492 13.6222 24.784 14.3868 24.784C14.6251 24.784 14.846 24.7166 15.042 24.6082C15.1947 25.0987 15.6394 25.4577 16.1698 25.4577H16.3019V28.0852C16.3019 28.8652 16.9241 29.5 17.6887 29.5C18.4533 29.5 19.0755 28.8652 19.0755 28.0852V25.4577H20.9245V28.0852C20.9245 28.8652 21.5467 29.5 22.3113 29.5C23.0759 29.5 23.6981 28.8652 23.6981 28.0852V25.4577H23.8302C24.3606 25.4577 24.8063 25.0987 24.958 24.6082C25.154 24.7166 25.3748 24.784 25.6132 24.784C26.3778 24.784 27 24.1492 27 23.3691V17.3056C27 16.5256 26.3778 15.8908 25.6132 15.8908L25.6113 15.8898ZM19.9981 11.3084C22.1949 11.3084 24.0058 13.0275 24.206 15.216H15.7904C15.9906 13.0275 17.8012 11.3084 19.9981 11.3084ZM14.3849 23.9744C14.0567 23.9744 13.7905 23.7028 13.7905 23.3681V17.3046C13.7905 16.9698 14.0567 16.6982 14.3849 16.6982C14.713 16.6982 14.9792 16.9698 14.9792 17.3046V23.3681C14.9792 23.7028 14.713 23.9744 14.3849 23.9744ZM18.2811 28.0841C18.2811 28.4189 18.0149 28.6905 17.6867 28.6905C17.3586 28.6905 17.0924 28.4189 17.0924 28.0841V25.4566H18.2811V28.0841ZM22.9037 28.0841C22.9037 28.4189 22.6375 28.6905 22.3094 28.6905C21.9813 28.6905 21.7151 28.4189 21.7151 28.0841V25.4566H22.9037V28.0841ZM24.2245 24.2439C24.2245 24.4671 24.047 24.6481 23.8283 24.6481H16.1679C15.9491 24.6481 15.7717 24.4671 15.7717 24.2439V16.4287C15.7717 16.2056 15.9491 16.0245 16.1679 16.0245H23.8283C24.047 16.0245 24.2245 16.2056 24.2245 16.4287V24.2439ZM26.2056 23.3681C26.2056 23.7028 25.9394 23.9744 25.6113 23.9744C25.2831 23.9744 25.0169 23.7028 25.0169 23.3681V17.3046C25.0169 16.9698 25.2831 16.6982 25.6113 16.6982C25.9394 16.6982 26.2056 16.9698 26.2056 17.3046V23.3681Z" fill="white"/>
</svg>
