<svg width="56" height="56" viewBox="0 0 56 56" fill="none" xmlns="http://www.w3.org/2000/svg">
<g filter="url(#filter0_d_202_2756)">
<rect x="2" y="1" width="52" height="52" rx="12" fill="#E8F0F6"/>
<path d="M19.0612 32.3438V28.5114C19.0612 27.3215 19.5374 26.2417 20.3048 25.4589L20.3546 25.4125C21.1187 24.6571 22.1589 24.1917 23.3009 24.1917H24.5694C25.2903 24.1917 25.9451 23.8917 26.4192 23.4076L26.456 23.3723C26.9084 22.8915 27.1876 22.2397 27.1876 21.5228V19.4208C26.5588 19.2664 25.9959 18.9366 25.5533 18.4855C24.9277 17.8481 24.5402 16.9669 24.5402 15.9942C24.5402 15.0237 24.9287 14.1436 25.5555 13.5051C26.18 12.8654 27.0448 12.4706 27.9994 12.4706C28.9541 12.4706 29.8189 12.8654 30.4445 13.5028L30.4921 13.5547C31.0896 14.1888 31.4587 15.049 31.4587 15.9931C31.4587 16.9658 31.0712 17.847 30.4456 18.4844L30.3947 18.5329C29.9596 18.9586 29.4152 19.2708 28.8112 19.4196V21.5217C28.8112 22.2562 29.1056 22.9234 29.5808 23.4075C30.0549 23.8906 30.7108 24.1917 31.4306 24.1917H32.6991C33.841 24.1917 34.8811 24.6571 35.6454 25.4125L35.6951 25.4588C36.4625 26.2407 36.9388 27.3216 36.9388 28.5114V32.3437C37.5428 32.4926 38.0872 32.8036 38.5223 33.2293L38.5731 33.2779C39.1988 33.9153 39.5862 34.7965 39.5862 35.7692C39.5862 36.7419 39.1988 37.6231 38.5731 38.2605C37.9475 38.898 37.0827 39.2928 36.1281 39.2928C35.1734 39.2928 34.3086 38.898 33.683 38.2605C33.0574 37.6198 32.6699 36.7397 32.6699 35.7692C32.6699 34.7965 33.0574 33.9153 33.683 33.2779C34.1257 32.8268 34.6885 32.497 35.3185 32.3426V28.5114C35.3185 27.7769 35.0241 27.1097 34.5489 26.6266L34.5132 26.5891C34.0424 26.1281 33.4016 25.8436 32.6981 25.8436H31.4295C30.4424 25.8436 29.5321 25.4962 28.8102 24.9172V32.3451C29.438 32.4995 30.0008 32.8292 30.4435 33.2814C31.0713 33.9166 31.4588 34.7978 31.4588 35.7705C31.4588 36.7432 31.0713 37.6244 30.4457 38.2619C29.8201 38.8993 28.9553 39.2941 28.0006 39.2941C27.046 39.2941 26.1812 38.8993 25.5556 38.2619L25.5079 38.21C24.9105 37.5759 24.5414 36.7156 24.5414 35.7716C24.5414 34.7989 24.9288 33.9177 25.5545 33.2803C25.9972 32.8292 26.56 32.4995 27.1899 32.3451V24.9172C26.469 25.4973 25.5577 25.8436 24.5706 25.8436H23.302C22.5985 25.8436 21.9577 26.1281 21.4869 26.5891L21.4512 26.6266C20.9771 27.1097 20.6816 27.778 20.6816 28.5114V32.3426C21.3116 32.497 21.8744 32.8257 22.3171 33.2779C22.9427 33.9153 23.3302 34.7965 23.3302 35.7692C23.3302 36.7397 22.9416 37.6198 22.3149 38.2583C21.6904 38.898 20.8256 39.2928 19.8709 39.2928C18.9184 39.2928 18.0547 38.8969 17.428 38.2583C16.8002 37.6231 16.4138 36.7419 16.4138 35.7692C16.4138 34.7965 16.8013 33.9153 17.4269 33.2779L17.4778 33.2293C17.9129 32.8036 18.4572 32.4916 19.0612 32.3438Z" fill="#277EB8"/>
</g>
<defs>
<filter id="filter0_d_202_2756" x="0" y="0" width="56" height="56" filterUnits="userSpaceOnUse" color-interpolation-filters="sRGB">
<feFlood flood-opacity="0" result="BackgroundImageFix"/>
<feColorMatrix in="SourceAlpha" type="matrix" values="0 0 0 0 0 0 0 0 0 0 0 0 0 0 0 0 0 0 127 0" result="hardAlpha"/>
<feOffset dy="1"/>
<feGaussianBlur stdDeviation="1"/>
<feComposite in2="hardAlpha" operator="out"/>
<feColorMatrix type="matrix" values="0 0 0 0 0 0 0 0 0 0 0 0 0 0 0 0 0 0 0.1 0"/>
<feBlend mode="normal" in2="BackgroundImageFix" result="effect1_dropShadow_202_2756"/>
<feBlend mode="normal" in="SourceGraphic" in2="effect1_dropShadow_202_2756" result="shape"/>
</filter>
</defs>
</svg>
