<svg width="50" height="50" viewBox="0 0 50 50" fill="none" xmlns="http://www.w3.org/2000/svg">
<path d="M44.3607 44.3206H6.63934C6.46978 44.3206 6.30716 44.2533 6.18726 44.1334C6.06736 44.0135 6 43.8508 6 43.6813V40.4846C6 40.315 6.06736 40.1524 6.18726 40.0325C6.30716 39.9126 6.46978 39.8452 6.63934 39.8452H44.3607C44.5302 39.8452 44.6928 39.9126 44.8127 40.0325C44.9326 40.1524 45 40.315 45 40.4846V43.6813C45 43.8508 44.9326 44.0135 44.8127 44.1334C44.6928 44.2533 44.5302 44.3206 44.3607 44.3206ZM7.27869 43.0419H43.7213V41.1239H7.27869V43.0419Z" fill="#277EB8" stroke="#277EB8"/>
<path d="M42.4262 20H8.57377C8.4216 20 8.27566 19.9247 8.16805 19.7908C8.06045 19.6568 8 19.4752 8 19.2857V15.7143C8 15.5248 8.06045 15.3432 8.16805 15.2092C8.27566 15.0753 8.4216 15 8.57377 15H42.4262C42.5784 15 42.7243 15.0753 42.8319 15.2092C42.9395 15.3432 43 15.5248 43 15.7143V19.2857C43 19.4752 42.9395 19.6568 42.8319 19.7908C42.7243 19.9247 42.5784 20 42.4262 20ZM9.14754 18.5714H41.8525V16.4286H9.14754V18.5714Z" fill="#277EB8" stroke="#277EB8"/>
<path d="M41.9281 16.5091H9.07221C8.78737 16.5135 8.50946 16.421 8.28409 16.2468C8.05872 16.0725 7.89927 15.8269 7.83189 15.5501C7.76267 15.2814 7.78626 14.9972 7.89883 14.7436C8.0114 14.4901 8.20635 14.282 8.45205 14.1531L25.1805 5.0776C25.2742 5.02667 25.3791 5 25.4858 5C25.5924 5 25.6974 5.02667 25.7911 5.0776L42.5355 14.1595C42.7828 14.2856 42.9802 14.4915 43.0957 14.744C43.2112 14.9964 43.238 15.2805 43.1716 15.5501C43.1041 15.8274 42.9442 16.0735 42.7182 16.2478C42.4921 16.4221 42.2135 16.5143 41.9281 16.5091ZM25.4858 7L10 15L41 15L25.4858 7Z" fill="#277EB8" stroke="#277EB8"/>
<path d="M28.0575 38.5665H23.2624C23.0928 38.5665 22.9302 38.4991 22.8103 38.3792C22.6904 38.2593 22.623 38.0967 22.623 37.9272V21.9435C22.623 21.774 22.6904 21.6114 22.8103 21.4915C22.9302 21.3716 23.0928 21.3042 23.2624 21.3042H28.0575C28.227 21.3042 28.3897 21.3716 28.5096 21.4915C28.6295 21.6114 28.6968 21.774 28.6968 21.9435V37.9272C28.6968 38.0967 28.6295 38.2593 28.5096 38.3792C28.3897 38.4991 28.227 38.5665 28.0575 38.5665ZM23.9017 37.2878H27.4181V22.5829H23.9017V37.2878Z" fill="#277EB8" stroke="#277EB8"/>
<path d="M39.2459 38.5665H34.4509C34.2813 38.5665 34.1187 38.4991 33.9988 38.3792C33.8789 38.2593 33.8115 38.0967 33.8115 37.9272V21.9435C33.8115 21.774 33.8789 21.6114 33.9988 21.4915C34.1187 21.3716 34.2813 21.3042 34.4509 21.3042H39.2459C39.4155 21.3042 39.5781 21.3716 39.698 21.4915C39.8179 21.6114 39.8853 21.774 39.8853 21.9435V37.9272C39.8853 38.0967 39.8179 38.2593 39.698 38.3792C39.5781 38.4991 39.4155 38.5665 39.2459 38.5665ZM35.0902 37.2878H38.6066V22.5829H35.0902V37.2878Z" fill="#277EB8" stroke="#277EB8"/>
<path d="M16.5487 38.5665H11.7536C11.584 38.5665 11.4214 38.4991 11.3015 38.3792C11.1816 38.2593 11.1143 38.0967 11.1143 37.9272V21.9435C11.1143 21.774 11.1816 21.6114 11.3015 21.4915C11.4214 21.3716 11.584 21.3042 11.7536 21.3042H16.5487C16.7182 21.3042 16.8809 21.3716 17.0008 21.4915C17.1207 21.6114 17.188 21.774 17.188 21.9435V37.9272C17.188 38.0967 17.1207 38.2593 17.0008 38.3792C16.8809 38.4991 16.7182 38.5665 16.5487 38.5665ZM12.3929 37.2878H15.9093V22.5829H12.3929V37.2878Z" fill="#277EB8" stroke="#277EB8"/>
<path d="M25.4998 13.6318C24.994 13.6318 24.4995 13.4819 24.079 13.2008C23.6584 12.9198 23.3306 12.5204 23.1371 12.0531C22.9435 11.5858 22.8928 11.0716 22.9915 10.5755C23.0902 10.0795 23.3338 9.62378 23.6914 9.26613C24.0491 8.90847 24.5048 8.66491 25.0008 8.56623C25.4969 8.46755 26.0111 8.5182 26.4784 8.71176C26.9457 8.90532 27.3451 9.23311 27.6261 9.65367C27.9072 10.0742 28.0571 10.5687 28.0571 11.0745C28.0571 11.7527 27.7877 12.4032 27.3081 12.8828C26.8285 13.3624 26.178 13.6318 25.4998 13.6318ZM25.4998 9.79578C25.2469 9.79578 24.9996 9.87077 24.7894 10.0113C24.5791 10.1518 24.4152 10.3515 24.3184 10.5851C24.2216 10.8188 24.1963 11.0759 24.2456 11.3239C24.295 11.572 24.4168 11.7998 24.5956 11.9786C24.7744 12.1575 25.0023 12.2792 25.2503 12.3286C25.4983 12.3779 25.7554 12.3526 25.9891 12.2558C26.2227 12.159 26.4224 11.9951 26.563 11.7849C26.7035 11.5746 26.7784 11.3274 26.7784 11.0745C26.7784 10.7353 26.6437 10.4101 26.4039 10.1703C26.1641 9.9305 25.8389 9.79578 25.4998 9.79578Z" fill="#277EB8"/>
</svg>
