<svg width="61" height="60" viewBox="0 0 61 60" fill="none" xmlns="http://www.w3.org/2000/svg">
<rect x="0.5" width="60" height="60" rx="8" fill="#277EB8" fill-opacity="0.16"/>
<path d="M35.2943 33.0204C35.2943 34.8577 34.1272 36.5153 32.3357 37.2186C30.5425 37.9219 28.4813 37.5331 27.11 36.2333C25.7385 34.9336 25.3282 32.9802 26.0703 31.2809C26.8124 29.583 28.5615 28.4769 30.5002 28.4769C33.1482 28.4769 35.2943 30.5108 35.2943 33.0204ZM47.5 27.2375V38.8049V38.8034C47.5 40.447 46.8118 42.024 45.5842 43.186C44.3583 44.3478 42.6959 45 40.9615 45H20.0385C18.3042 45 16.6418 44.3478 15.4158 43.186C14.1882 42.0241 13.5 40.4471 13.5 38.8034V27.2375C13.5 25.5939 14.1882 24.0169 15.4158 22.8549C16.6417 21.6931 18.3041 21.0409 20.0385 21.0409H22.2697C22.4577 21.0378 22.6244 20.9263 22.6882 20.759L23.2292 19.106V19.1076C23.8864 17.2548 25.7171 16.0046 27.78 16H33.22C35.2829 16.0046 37.1136 17.2548 37.7708 19.1076L38.3118 20.7605V20.759C38.3756 20.9263 38.5423 21.0378 38.7303 21.0409H40.9615C42.6958 21.0409 44.3582 21.6931 45.5842 22.8549C46.8118 24.0168 47.5 25.5937 47.5 27.2375ZM37.9097 33.0204C37.9097 31.1584 37.13 29.3722 35.7406 28.054C34.3495 26.7373 32.4648 25.9983 30.5002 25.9983C28.5356 25.9983 26.6507 26.7373 25.2598 28.054C23.8704 29.3724 23.0907 31.1585 23.0907 33.0204C23.0907 34.8823 23.8704 36.6686 25.2598 37.9868C26.6509 39.3035 28.5356 40.0425 30.5002 40.0425C32.4634 40.0394 34.3464 39.2974 35.7343 37.9806C37.1237 36.6654 37.9065 34.881 37.9097 33.0204Z" fill="#277EB8"/>
</svg>
