<svg width="50" height="50" viewBox="0 0 50 50" fill="none" xmlns="http://www.w3.org/2000/svg">
<path d="M30.7524 5.06C30.6018 5.02 30.444 5 30.288 5H19.7117C19.552 5 19.3942 5.02182 19.24 5.06182C17.1483 5.61817 6.69505 8.68909 6.64443 14.5091L6.00403 26.0472C5.96412 26.769 6.22173 27.4763 6.71701 27.9999C7.21227 28.5254 7.90166 28.8236 8.6237 28.8236H13.1609V43.1818C13.1627 44.1855 13.9736 44.9982 14.975 45H35.025C36.0264 44.9982 36.8373 44.1855 36.8391 43.1818V28.8236H41.3763C42.0983 28.8236 42.7859 28.5254 43.283 27.9999C43.7782 27.4763 44.0359 26.769 43.996 26.049L43.3574 14.5309C43.3048 8.69091 32.8516 5.61854 30.7524 5.06ZM30.1428 7.18182C29.9941 10.0436 28.0983 11.7418 24.9998 11.7418C21.9013 11.7418 20.0054 10.0437 19.8568 7.18182H30.1428ZM41.7009 26.5018C41.6174 26.5909 41.4995 26.6418 41.3762 26.6418H35.5917V16.6565H34.6618V42.8182H15.3376V16.6546H14.5V26.6418H8.62327C8.49991 26.6418 8.38199 26.5909 8.29854 26.5018C8.21327 26.4109 8.16974 26.2909 8.17699 26.1691L8.81919 14.5728C8.81919 10.7819 16.6249 8.08389 19 7.36198C19.225 10.5256 21.5644 13 25.0004 13C28.4363 13 30.6352 10.5257 30.8618 7.36198C33.2365 8.0838 41.1801 10.782 41.182 14.5928L41.8242 26.1672L41.8223 26.169C41.8296 26.2908 41.7862 26.4127 41.7009 26.5018Z" fill="#277EB8"/>
</svg>
