<svg width="45" height="45" viewBox="0 0 45 45" fill="none" xmlns="http://www.w3.org/2000/svg">
<circle cx="22.5" cy="22.5" r="22.5" fill="#277EB8" fill-opacity="0.16"/>
<path d="M31.5986 25.1995L26.4844 26.6273V26.6792C26.6142 27.1984 26.5364 27.7175 26.2767 28.1848C25.9912 28.678 25.5499 29.0414 25.0047 29.1712C24.4595 29.327 23.8884 29.2491 23.3952 28.9895L20.4616 27.3282L20.7472 26.8349L23.6807 28.4963C24.0442 28.704 24.4595 28.7559 24.8489 28.6261C25.2383 28.5223 25.5758 28.2627 25.7575 27.8993C25.8614 27.7175 25.9133 27.5099 25.9393 27.3022C26.0171 26.783 25.7835 26.2898 25.3422 26.0302L18.2291 22.0585C18.2291 22.0585 17.4762 21.5653 16.4638 21.8508C16.4638 21.8508 16.4638 21.8508 16.4378 21.8508C16.2561 21.8768 8.59778 24.0833 8.23433 24.1871H8.20837L9.76599 29.6904L14.9061 28.2367C15.4253 28.5482 19.3194 30.9884 19.8386 31.248C20.6953 31.7412 21.7856 31.4816 22.0193 31.4037C22.0452 31.4037 32.4813 28.4184 32.4813 28.4184C33.2082 28.2108 33.7793 27.2503 33.5197 26.2638C33.286 25.4591 32.4293 24.9659 31.5986 25.1995Z" fill="#277EB8"/>
<path d="M30.4563 20.5788C31.1054 19.6703 31.4688 18.58 31.4688 17.4378C31.4948 15.9841 30.9236 14.6083 29.9112 13.5959C28.8987 12.5575 27.5228 12.0124 26.095 12.0124C23.0836 12.0124 20.6693 14.4266 20.6693 17.4118C20.6693 20.3971 23.1096 22.8113 26.0691 22.8113C26.5883 22.8113 27.0815 22.7334 27.5488 22.6036L27.445 22.0844C26.9777 22.2142 26.5104 22.2921 26.0431 22.2921C23.3951 22.2921 21.1885 20.1116 21.1885 17.4378C21.1885 14.764 23.3692 12.5835 26.0431 12.5835C28.717 12.5835 30.9236 14.7381 30.9236 17.4378C30.9236 18.4762 30.6121 19.4626 29.9891 20.3192L30.4563 20.5788Z" fill="#277EB8"/>
<path d="M30.6381 12.895C29.4179 11.6749 27.7824 11 26.0691 11C25.472 11 24.8749 11.0779 24.3557 11.2336L24.4595 11.7268C24.9787 11.5711 25.5499 11.4932 26.095 11.4932C29.366 11.4932 32.0399 14.167 32.0399 17.4378C32.0399 20.7086 29.366 23.4084 26.0691 23.4084C22.7981 23.3824 20.1242 20.7086 20.1242 17.4378C20.1242 16.1918 20.5136 14.9977 21.2145 13.9853L20.7732 13.7257C19.9944 14.816 19.6049 16.0879 19.6049 17.4378C19.6049 20.9942 22.4865 23.8756 26.0431 23.8756C29.5997 23.8756 32.5072 20.9942 32.5072 17.4378C32.5332 15.7505 31.8582 14.1151 30.6381 12.895Z" fill="#277EB8"/>
<path d="M22.5644 19.3588L23.5509 19.878L25.2383 17.957L26.7181 18.9434L28.6391 16.9446L29.5737 17.5157L29.392 14.9458L26.8479 15.8024L27.7046 16.3476L26.5623 17.5417L25.0307 16.5293L22.5644 19.3588Z" fill="#277EB8"/>
</svg>
