<svg width="40" height="40" viewBox="0 0 40 40" fill="none" xmlns="http://www.w3.org/2000/svg">
<rect width="40" height="40" rx="20" fill="#277EB8" fill-opacity="0.5"/>
<path d="M29.9419 26.7897L28.1033 23.0578V12.9775C28.1033 12.7147 27.889 12.5 27.6267 12.5H12.3894C12.1271 12.5 11.9128 12.7147 11.9128 12.9775V23.0578L10.0462 26.8158C9.97608 26.9663 9.98608 27.1429 10.0742 27.2793C10.1643 27.4177 10.3146 27.5 10.4768 27.5H29.5233C29.7857 27.5 30 27.2853 30 27.0225C30 26.9402 29.98 26.8599 29.9419 26.7897L29.9419 26.7897ZM12.8681 22.6906V13.4551H27.144V22.6906H12.8681ZM23.4128 26.549L22.864 25.4334C22.7839 25.2729 22.6157 25.1706 22.4354 25.1706H17.5727C17.3924 25.1706 17.2242 25.2749 17.1441 25.4354L16.5913 26.549H11.2479L12.6899 23.6517H27.3303L28.7583 26.549H23.4128L23.4128 26.549Z" fill="white"/>
</svg>
