<svg width="118" height="123" viewBox="0 0 118 123" fill="none" xmlns="http://www.w3.org/2000/svg">
<path fill-rule="evenodd" clip-rule="evenodd" d="M16.92 104.37H0L0.07 106.24C0.21 110.03 0.97 113.43 2.64 116.25C4.35 119.15 6.97 121.39 10.79 122.77L11.4 122.88H107.3L107.01 122.58C109.51 122.21 111.72 121.43 113.49 119.98C116.23 117.74 117.78 114.08 117.53 108.13L117.75 0.0300147H31.5C21.28 -0.419985 16.73 5.32001 16.93 14.4H16.92V104.37ZM98.02 58.53H86.7V56.74C86.7 54.83 86.57 53.59 86.31 53.01C86.05 52.42 85.5 52.12 84.63 52.12C83.94 52.12 83.42 52.38 83.08 52.88C82.74 53.39 82.56 54.15 82.56 55.17C82.56 56.86 82.91 58.05 83.62 58.72C84.31 59.4 86.35 60.71 89.73 62.67C92.6 64.33 94.57 65.6 95.61 66.48C96.65 67.37 97.54 68.61 98.25 70.22C98.97 71.84 99.33 73.84 99.33 76.25C99.33 80.09 98.36 83.11 96.42 85.31C94.48 87.5 91.55 88.85 87.67 89.37V93.42H82.44V89.26C79.41 88.98 76.77 87.86 74.51 85.93C72.25 84 71.12 80.63 71.12 75.82V73.7H82.44V76.34C82.44 79.24 82.55 81.04 82.79 81.74C83.02 82.44 83.59 82.79 84.48 82.79C85.25 82.79 85.82 82.54 86.19 82.06C86.56 81.57 86.75 80.84 86.75 79.88C86.75 77.46 86.57 75.73 86.21 74.69C85.86 73.65 84.65 72.51 82.57 71.28C79.11 69.21 76.77 67.69 75.52 66.72C74.28 65.74 73.2 64.38 72.3 62.61C71.39 60.85 70.94 58.86 70.94 56.63C70.94 53.41 71.9 50.88 73.81 49.04C75.73 47.2 78.6 46.07 82.43 45.64V42.2H87.66V45.65C91.16 46.08 93.77 47.19 95.51 49C97.24 50.81 98.12 53.31 98.12 56.49C98.13 56.94 98.1 57.62 98.02 58.53ZM34.63 64.28C33.64 64.28 32.84 63.47 32.84 62.47C32.84 61.47 33.64 60.66 34.63 60.66H53.88C54.87 60.66 55.67 61.47 55.67 62.47C55.67 63.47 54.87 64.28 53.88 64.28H34.63ZM34.63 27.32C33.63 27.32 32.82 26.52 32.82 25.52C32.82 24.53 33.63 23.72 34.63 23.72H98.51C99.51 23.72 100.32 24.52 100.32 25.52C100.32 26.51 99.51 27.32 98.51 27.32H34.63ZM34.63 45.8C33.63 45.8 32.83 44.99 32.83 44C32.83 43 33.64 42.2 34.63 42.2H64.16C65.16 42.2 65.96 43.01 65.96 44C65.96 44.99 65.15 45.8 64.16 45.8H34.63ZM97.22 114.19C97.55 115.92 98.22 117.62 99.27 119.28H11.7C8.91 118.21 6.99 116.54 5.74 114.43C4.67 112.61 4.06 110.43 3.8 107.99H97.35C96.91 110.08 96.83 112.15 97.22 114.19ZM103.78 119.26C102.08 117.37 101.13 115.46 100.76 113.51C100.35 111.36 100.64 109.1 101.41 106.73L102.18 104.37H20.53V14.4H20.52C20.53 7.26001 23.39 3.05001 31.23 3.61001L31.43 3.62001H113.92V108.11L113.93 108.19C114.14 112.88 113.09 115.63 111.21 117.17C109.44 118.63 106.83 119.15 103.78 119.26Z" fill="#277EB8"/>
</svg>
