<svg width="50" height="50" viewBox="0 0 50 50" fill="none" xmlns="http://www.w3.org/2000/svg">
<path fill-rule="evenodd" clip-rule="evenodd" d="M12.521 10.1369H14.8449V5.43639C14.8449 5.19638 15.0395 5 15.2813 5C15.5214 5 15.7178 5.19456 15.7178 5.43639V10.1369H21.4528V5.43639C21.4528 5.19638 21.6474 5 21.8892 5C22.1293 5 22.3257 5.19456 22.3257 5.43639V10.1369H28.0607L28.0589 5.43639C28.0589 5.19638 28.2535 5 28.4953 5C28.7354 5 28.9317 5.19456 28.9317 5.43639V10.1369H34.6668V5.43639C34.6668 5.19638 34.8614 5 35.1032 5C35.3433 5 35.5397 5.19456 35.5397 5.43639V10.1369H37.8636C39.1746 10.1369 40.2475 11.2097 40.2475 12.5207V14.8445H44.9482C45.1882 14.8445 45.3846 15.0391 45.3846 15.2809C45.3846 15.5209 45.19 15.7173 44.9482 15.7173H40.2475V21.4521H44.9482C45.1882 21.4521 45.3846 21.6467 45.3846 21.8885C45.3846 22.1285 45.19 22.3249 44.9482 22.3249H40.2475V28.0597H44.9482C45.1882 28.0597 45.3846 28.2543 45.3846 28.4961C45.3846 28.7361 45.19 28.9325 44.9482 28.9325H40.2475V34.6673H44.9482C45.1882 34.6673 45.3846 34.8619 45.3846 35.1037C45.3846 35.3437 45.19 35.5401 44.9482 35.5401H40.2475V37.8639C40.2475 39.1749 39.1746 40.2477 37.8636 40.2477H35.5397V44.9482C35.5397 45.1882 35.3451 45.3846 35.1032 45.3846C34.8632 45.3846 34.6668 45.1901 34.6668 44.9482V40.2477L28.9317 40.2441V44.9446C28.9317 45.1846 28.7372 45.381 28.4953 45.381C28.2553 45.381 28.0589 45.1864 28.0589 44.9446V40.2441H22.3238V44.9446C22.3238 45.1846 22.1293 45.381 21.8874 45.381C21.6474 45.381 21.451 45.1864 21.451 44.9446V40.2441H15.7178V44.9446C15.7178 45.1846 15.5232 45.381 15.2814 45.381C15.0413 45.381 14.845 45.1864 14.845 44.9446V40.2441H12.521C11.21 40.2441 10.1371 39.1713 10.1371 37.8603V35.5365H5.43642C5.19639 35.5365 5 35.3419 5 35.1001C5 34.8601 5.19457 34.6637 5.43642 34.6637H10.1371V28.9307H5.43642C5.19639 28.9307 5 28.7362 5 28.4943C5 28.2543 5.19457 28.0579 5.43642 28.0579H10.1371V22.3231H5.43642C5.19639 22.3231 5 22.1286 5 21.8867C5 21.6467 5.19457 21.4503 5.43642 21.4503H10.1371V15.7174H5.43642C5.19639 15.7174 5 15.5228 5 15.281C5 15.041 5.19457 14.8446 5.43642 14.8446H10.1371V12.5208C10.1371 11.2098 11.2099 10.1369 12.521 10.1369ZM18.156 27.2673C17.745 27.1819 17.3777 26.9764 17.0922 26.6909C16.7085 26.3072 16.4703 25.7763 16.4703 25.1908C16.4703 24.6052 16.7086 24.0743 17.0922 23.6906H17.094C17.4777 23.307 18.0087 23.0688 18.5924 23.0688C19.1779 23.0688 19.7071 23.307 20.0908 23.6906L20.0926 23.6925C20.4763 24.0761 20.7145 24.6071 20.7145 25.1908C20.7145 25.7763 20.4763 26.3054 20.0926 26.6891V26.6909C19.8071 26.9764 19.4398 27.1819 19.0288 27.2673V29.8802L21.5437 31.5767C21.6691 31.6531 21.7546 31.7913 21.7546 31.9495L21.7528 36.6332H32.3776L30.481 33.9276C30.4282 33.8512 30.4028 33.7657 30.4028 33.6784H30.401V31.0255C29.99 30.9401 29.6227 30.7346 29.3372 30.4491C28.9535 30.0655 28.7153 29.5345 28.7153 28.949C28.7153 28.3635 28.9535 27.8326 29.3372 27.4489H29.339C29.7227 27.0652 30.2536 26.827 30.8374 26.827C31.4211 26.827 31.9521 27.0652 32.3358 27.4489L32.3376 27.4507C32.7213 27.8343 32.9595 28.3653 32.9595 28.949C32.9595 29.5345 32.7213 30.0636 32.3376 30.4473V30.4491C32.0521 30.7346 31.6848 30.9401 31.2738 31.0255V33.5439L33.2631 36.3841C33.3158 36.4605 33.3413 36.546 33.3413 36.6333H36.6362V13.7461H33.9123C33.9123 13.8316 33.8868 13.9189 33.8341 13.9953L31.8448 16.8355V19.3539C32.2539 19.4393 32.6212 19.6448 32.9085 19.9303L32.9104 19.9321C33.294 20.3158 33.5322 20.8467 33.5322 21.4304C33.5322 22.0159 33.294 22.545 32.9104 22.9287V22.9305C32.5267 23.3142 31.9957 23.5524 31.4102 23.5524C30.8246 23.5524 30.2937 23.3142 29.91 22.9305C29.5262 22.5469 29.2881 22.0159 29.2881 21.4304C29.2881 20.8449 29.5263 20.314 29.91 19.9303H29.9118C30.1973 19.6448 30.5646 19.4393 30.9756 19.3539V16.701H30.9774C30.9774 16.6155 31.0028 16.5282 31.0556 16.4518L32.9503 13.7462H22.3218V18.1992L24.8548 19.9085C24.9803 19.9921 25.0458 20.1303 25.0476 20.2685V23.1123C25.4586 23.1978 25.8241 23.4033 26.1114 23.6888L26.1132 23.6906C26.4969 24.0742 26.7351 24.6052 26.7351 25.1889C26.7351 25.7744 26.4969 26.3035 26.1132 26.6872V26.689C25.7295 27.0727 25.1986 27.3109 24.613 27.3109C24.0275 27.3109 23.4965 27.0727 23.1128 26.689C22.7291 26.3054 22.4909 25.7744 22.4909 25.1889C22.4909 24.6034 22.7291 24.0725 23.1128 23.6888H23.1146C23.4001 23.4033 23.7674 23.1978 24.1784 23.1124V20.4994L21.6636 18.803C21.5381 18.7266 21.4545 18.5884 21.4545 18.4302V13.7465H13.748V36.6336H20.8814V32.1805L18.3484 30.4713C18.2229 30.3877 18.1575 30.2495 18.1556 30.1113L18.156 27.2673Z" fill="#277EB8"/>
</svg>
