<svg width="280" height="280" viewBox="0 0 280 280" fill="none" xmlns="http://www.w3.org/2000/svg">
<path d="M98.9721 254.142C115.518 264.116 127.322 259.975 131.842 251.977C140.581 236.51 169.638 204.88 215.687 194.19C276.675 180.031 263.938 142.436 226.446 122.708C188.954 102.98 160.921 75.6832 165.164 46.0023C169.407 16.3215 127.368 6.08952 108.673 63.1855C96.5922 100.083 74.942 109.968 61.136 112.344C48.1241 114.584 33.8908 117.393 26.9499 128.626C18.5276 142.255 21.4666 156.041 56.7289 165.497C106.699 178.896 61.8846 231.784 98.9721 254.142Z" fill="#CDE9FC" fill-opacity="0.5"/>
<path d="M52.1905 184.424C52.8193 184.064 59.9156 181.06 95.2186 197.518C95.1157 197.658 95.072 197.724 95.072 197.724C95.072 197.724 58.3711 210.084 51.1803 194.858C49.033 190.325 49.6483 187.203 52.1292 184.459L52.1905 184.424Z" fill="#277EB8" fill-opacity="0.7"/>
<path d="M170.847 190.652C163.177 197.1 151.149 201.78 139.543 195.557C141.377 194.385 143.271 193.178 145.203 191.929C156.859 184.44 167.125 189.451 170.847 190.652Z" fill="#277EB8" fill-opacity="0.7"/>
<path d="M184.585 111.349C192.421 176.601 173.798 188.443 171.725 190.242C171.125 190.763 170.882 190.725 169.974 190.491L169.959 190.5C166.118 189.482 156.858 184.44 145.203 191.928C143.271 193.177 141.376 194.384 139.542 195.556C127.652 203.097 118.05 208.411 111.133 205.327C105.265 202.333 99.9747 199.743 95.2184 197.518C59.9155 181.06 52.8192 184.064 52.1904 184.424C52.92 184.027 59.6124 180.317 68.6236 173.794C68.6543 173.776 68.685 173.758 68.6915 173.734C80.7363 165.005 96.8667 151.249 108.461 133.554C116.354 121.522 124.076 91.0173 138.975 85.032C169.594 73.6094 183.313 98.0765 184.585 111.349Z" fill="#277EB8" fill-opacity="0.83"/>
<path d="M150.728 110.204C151.679 107.695 151.586 105.333 150.521 104.93C149.456 104.527 147.823 106.234 146.872 108.744C145.922 111.254 146.015 113.615 147.079 114.019C148.144 114.422 149.778 112.714 150.728 110.204Z" fill="white"/>
<path d="M170.224 113.406C170.898 110.808 170.551 108.471 169.449 108.185C168.346 107.899 166.907 109.774 166.233 112.371C165.56 114.969 165.907 117.307 167.009 117.593C168.111 117.878 169.551 116.004 170.224 113.406Z" fill="white"/>
<path d="M158.356 122.945C158.197 122.945 158.042 122.89 157.918 122.79C157.793 122.689 157.707 122.55 157.673 122.394C157.548 121.829 156.993 120.157 156.113 119.908C155.232 119.66 153.506 120.624 152.807 121.131C152.657 121.239 152.469 121.284 152.286 121.255C152.102 121.226 151.938 121.125 151.829 120.974C151.72 120.824 151.676 120.636 151.705 120.453C151.734 120.27 151.835 120.105 151.986 119.997C152.261 119.797 154.727 118.062 156.493 118.561C158.335 119.08 158.974 121.789 159.041 122.096C159.063 122.198 159.062 122.304 159.038 122.406C159.014 122.508 158.968 122.603 158.902 122.684C158.836 122.766 158.753 122.832 158.659 122.877C158.564 122.922 158.461 122.945 158.356 122.945H158.356Z" fill="white"/>
</svg>
