<svg width="50" height="50" viewBox="0 0 50 50" fill="none" xmlns="http://www.w3.org/2000/svg">
<path fill-rule="evenodd" clip-rule="evenodd" d="M30.884 21.3857L41.9569 32.4586C48.2045 38.7062 38.7062 48.2045 32.4586 41.9569L21.3857 30.884C11.9382 33.0173 3.65887 24.0777 6.60487 14.7826L7.46835 12.0905L14.427 18.9984C15.6461 20.2682 17.7286 20.2682 18.9984 18.9984C20.2682 17.7286 20.2682 15.6461 18.9984 14.427L12.0905 7.46835L14.7826 6.60487C24.0777 3.65887 33.0173 11.9382 30.884 21.3857ZM15.2905 8.23025C23.6714 5.58901 31.6459 13.5127 28.9539 21.8936L40.7379 33.6776C45.4109 38.3506 38.3506 45.4109 33.6776 40.7379L21.8936 28.9539C13.5127 31.6459 5.58901 23.6714 8.23025 15.2905L13.208 20.2174C15.1381 22.1984 18.2873 22.1984 20.2174 20.2174C22.1984 18.2873 22.1984 15.1381 20.2174 13.208L15.2905 8.23025ZM37.5887 34.2364L39.1125 35.7602C41.2966 37.9951 37.9951 41.2966 35.7602 39.1125L34.2364 37.5887C32.0015 35.3538 35.3538 32.0015 37.5887 34.2364Z" fill="#277EB8"/>
</svg>
