<svg width="280" height="280" viewBox="0 0 280 280" fill="none" xmlns="http://www.w3.org/2000/svg">
<path d="M232.888 101.748C232.888 101.748 201.607 128.203 234.913 187.307C264.492 239.798 193.809 260.508 163.824 253.766C124.982 245.032 104.067 194.228 73.7007 209.421C43.3342 224.614 15.9144 151.732 60.1877 126.243C115.262 94.536 81.1393 74.4924 86.7294 50.3934C90.7411 33.0976 141.158 7.43765 166.975 38.7462C188.701 65.0918 200.017 56.1334 210.408 52.9414C225.394 48.3373 256.996 74.9636 232.888 101.748Z" fill="#CDE9FC" fill-opacity="0.5"/>
<path d="M183.016 70.3358L120.596 60.1074C116.018 59.3572 111.698 62.4603 110.948 67.0385L89.358 198.796C88.6078 203.374 91.7109 207.694 96.2891 208.444L158.709 218.672C163.287 219.422 167.607 216.319 168.357 211.741L189.947 79.9836C190.698 75.4054 187.594 71.086 183.016 70.3358Z" fill="#277EB8"/>
<path d="M180.964 74.0491L121.356 64.2815C118.304 63.7814 115.425 65.8502 114.925 68.9023L93.7212 198.298C93.221 201.351 95.2898 204.23 98.3419 204.73L157.95 214.498C161.002 214.998 163.881 212.929 164.381 209.877L185.585 80.4809C186.085 77.4288 184.016 74.5492 180.964 74.0491Z" fill="#1A87DD" fill-opacity="0.37"/>
<path d="M216.487 60.0536C211.953 58.1592 208.748 59.9765 207.99 61.7903C207.443 63.1005 208.298 64.1681 209.206 64.5471C211.019 65.3048 211.361 62.4096 214.787 63.8409C216.467 64.5425 217.501 65.8429 216.855 67.3881C216.097 69.2021 213.781 69.4576 212.28 69.935C210.955 70.3679 209.104 71.2119 207.897 74.1007C207.167 75.8473 207.426 76.5476 208.803 77.123C210.449 77.8105 211.094 77.2119 211.36 76.5736C212.09 74.8269 212.545 73.8331 214.996 73.1606C216.197 72.8341 220.006 71.7425 221.325 68.5851C222.645 65.4277 220.786 61.8498 216.487 60.0536Z" fill="#277EB8"/>
<path d="M207.868 79.455C207.184 79.1783 206.418 79.1825 205.737 79.4667C205.056 79.7509 204.515 80.2922 204.23 80.9731C203.946 81.654 203.941 82.4197 204.218 83.1039C204.494 83.7882 205.029 84.3358 205.707 84.628C206.392 84.9099 207.161 84.9091 207.845 84.6258C208.53 84.3426 209.074 83.7999 209.36 83.1163C209.646 82.4328 209.649 81.664 209.369 80.9779C209.09 80.2919 208.55 79.7444 207.868 79.455Z" fill="#277EB8"/>
<path d="M131.203 120.276C131.612 117.757 130.885 115.543 129.579 115.331C128.273 115.119 126.883 116.989 126.473 119.508C126.064 122.027 126.791 124.241 128.097 124.453C129.404 124.665 130.794 122.795 131.203 120.276Z" fill="white"/>
<path d="M158.439 124.747C158.852 122.203 158.129 119.969 156.822 119.757C155.516 119.545 154.122 121.435 153.709 123.979C153.296 126.523 154.02 128.757 155.326 128.969C156.632 129.181 158.026 127.291 158.439 124.747Z" fill="white"/>
<path d="M147.322 146.677C147.227 146.677 147.133 146.657 147.046 146.62C146.958 146.583 146.88 146.528 146.814 146.459L145.829 145.422C144.249 143.763 142.168 142.669 139.905 142.308C137.642 141.948 135.324 142.34 133.306 143.426L132.047 144.106C131.966 144.149 131.878 144.177 131.786 144.186C131.695 144.196 131.602 144.187 131.514 144.161C131.426 144.134 131.344 144.091 131.273 144.033C131.202 143.975 131.142 143.903 131.099 143.822C131.055 143.742 131.028 143.653 131.018 143.561C131.009 143.47 131.018 143.377 131.044 143.289C131.07 143.201 131.114 143.119 131.172 143.048C131.23 142.977 131.301 142.917 131.382 142.874L132.641 142.194C134.929 140.963 137.559 140.517 140.125 140.926C142.691 141.335 145.052 142.576 146.844 144.457L147.829 145.494C147.924 145.594 147.987 145.718 148.011 145.853C148.035 145.988 148.019 146.127 147.965 146.253C147.911 146.378 147.821 146.486 147.707 146.561C147.593 146.636 147.459 146.676 147.322 146.676V146.677Z" fill="white"/>
</svg>
