<svg width="50" height="50" viewBox="0 0 50 50" fill="none" xmlns="http://www.w3.org/2000/svg">
<path d="M24.7227 19.1455V23.7616L24.2551 23.6907C22.6639 23.427 21.8684 22.7777 21.8684 21.7406V20.9605C21.8684 19.7505 22.8191 19.1455 24.7227 19.1455ZM25.4806 5C23.7188 5 21.9459 5.22826 20.2062 5.69366V5.69588C20.204 5.69588 20.1996 5.69588 20.1973 5.69809C18.5042 6.15239 16.8421 6.83273 15.2509 7.7502C7.22824 12.3818 3.523 21.616 5.54213 30.1928L5.55321 30.2327C5.68396 30.7268 6.13161 31.0504 6.61696 31.0504C6.71225 31.0504 6.80755 31.0393 6.90284 31.0127C7.48124 30.8576 7.82918 30.2747 7.69178 29.6964V29.6941C5.88562 22.0399 9.1943 13.7962 16.3549 9.66099C17.7777 8.84104 19.2625 8.23163 20.7762 7.82605C22.3297 7.41164 23.912 7.20779 25.4833 7.20779C30.8862 7.20779 36.165 9.60562 39.7 13.9668L38.5831 13.6677C38.4878 13.6433 38.3925 13.63 38.2972 13.63C38.1997 13.63 38.1044 13.6433 38.0135 13.6677C37.6456 13.7674 37.3398 14.0533 37.2334 14.4477H37.2312C37.1537 14.7425 37.2024 15.0416 37.342 15.2854C37.4839 15.5292 37.7188 15.7198 38.0135 15.7995L42.0137 16.8721C42.109 16.8965 42.2043 16.9098 42.2996 16.9098C42.3949 16.9098 42.4924 16.8965 42.5832 16.8721C42.9511 16.7724 43.2569 16.4865 43.3633 16.0921L44.4337 12.092C44.5135 11.7973 44.4669 11.4981 44.3251 11.2543C44.1833 11.0105 43.9506 10.82 43.6558 10.7402C43.5605 10.7158 43.463 10.7025 43.3699 10.7025C43.2724 10.7025 43.1771 10.7158 43.0863 10.7402C42.7162 10.8377 42.4103 11.1258 42.304 11.5202L41.8652 13.1579C37.9115 7.90137 31.7729 5.00044 25.4812 5.00044L25.4806 5ZM26.2784 26.4605L26.5887 26.5314C28.2153 26.7952 29.0109 27.4445 28.9755 28.4838V29.5209C28.9755 30.7309 28.0757 31.3359 26.2784 31.3359L26.2784 26.4605ZM26.2784 15.7745H24.7227V17.071H24.7205C21.0905 17.071 19.2754 18.1945 19.2754 20.4416V22.7774C19.2754 24.506 20.9353 25.6295 24.255 26.1481L24.7226 26.2212V31.3359C22.819 31.3359 21.8683 30.7309 21.8683 29.5209V28.4838H19.2754V30.0395C19.2754 32.2866 21.0904 33.4102 24.7205 33.4102H24.7227V35.2274H26.2784V33.4102C29.9085 33.4102 31.7257 32.2866 31.7257 30.0395V27.9653C31.7257 25.8888 30.0658 24.5924 26.7439 24.0738L26.2785 23.9697V19.1453C28.18 19.1453 29.1306 19.7502 29.1306 20.9602V21.9995H31.7257V20.4416C31.7257 18.1945 29.9085 17.071 26.2784 17.071L26.2784 15.7745ZM25.4873 12.8382C29.8641 12.8382 34.1192 15.1097 36.464 19.1695C39.9589 25.2262 37.8846 32.9667 31.8301 36.4636C30.8461 37.0309 29.8178 37.452 28.7696 37.7334C27.6948 38.0215 26.6 38.1611 25.5118 38.1611C21.1372 38.1611 16.8799 35.8897 14.5351 31.8299C11.0402 25.7754 13.1146 18.0327 19.1691 14.5357C20.1531 13.9684 21.1836 13.5473 22.2295 13.2659C23.3044 12.9778 24.4014 12.8382 25.4873 12.8382ZM25.4851 10.631C24.2086 10.631 22.9232 10.7972 21.66 11.134C20.43 11.4642 19.2222 11.9584 18.0676 12.6255C10.9561 16.7297 8.52058 25.8224 12.6248 32.9338C15.3795 37.7028 20.3768 40.3685 25.514 40.3685C26.7905 40.3685 28.0781 40.2023 29.3391 39.8654C30.569 39.5352 31.7768 39.0411 32.9336 38.374C40.0429 34.2698 42.4784 25.177 38.3742 18.0657C35.6218 13.2967 30.6245 10.631 25.4851 10.631ZM44.4152 20.0961C44.3199 20.0961 44.2247 20.1072 44.1294 20.1338H44.1271C43.5398 20.2934 43.1897 20.8895 43.3471 21.4768L43.3493 21.4856C45.0623 29.0888 41.7492 37.2378 34.6441 41.3395C33.2236 42.1595 31.7366 42.7689 30.2229 43.1744C28.6694 43.5911 27.0871 43.7927 25.5158 43.7927C20.1129 43.7927 14.8363 41.3971 11.3036 37.0359H11.3058L12.4161 37.3329C12.5113 37.3573 12.6066 37.3706 12.7019 37.3706C12.7995 37.3706 12.8947 37.3573 12.9856 37.3329C13.3535 37.2332 13.6615 36.9473 13.7657 36.5528H13.7679C13.8455 36.2581 13.7989 35.9611 13.6571 35.7151C13.5153 35.4714 13.2804 35.2808 12.9878 35.201L8.98767 34.1284C8.89015 34.104 8.79486 34.0908 8.69957 34.0908C8.60428 34.0908 8.50898 34.104 8.4159 34.1284C8.04802 34.2281 7.7422 34.514 7.63582 34.9085L6.56544 38.9085L6.56322 38.9108H6.56544C6.48566 39.2033 6.53441 39.5025 6.67403 39.7463C6.81586 39.99 7.05077 40.1806 7.34331 40.2604C7.44082 40.2848 7.53611 40.2981 7.63141 40.2981C7.7267 40.2981 7.822 40.2848 7.91507 40.2604C8.28296 40.1629 8.58878 39.8748 8.69516 39.4803L9.13395 37.8471H9.13617C13.0898 43.1014 19.2284 46 25.5179 46C27.2797 46 29.0527 45.7717 30.7923 45.3063C32.4899 44.852 34.1542 44.1695 35.7476 43.2498C43.7169 38.6492 47.429 29.5037 45.4967 20.9757C45.4922 20.9536 45.4856 20.9359 45.4812 20.9137C45.3482 20.4195 44.9028 20.0961 44.4152 20.0961Z" fill="#277EB8"/>
</svg>
