<svg width="61" height="60" viewBox="0 0 61 60" fill="none" xmlns="http://www.w3.org/2000/svg">
<rect x="0.5" width="60" height="60" rx="8" fill="#277EB8" fill-opacity="0.16"/>
<path d="M41.6882 18.2448H19.1425C17.2688 18.2448 15.7398 19.7764 15.7398 21.6532V38.7458C14.4583 38.4593 13.5 37.316 13.5 35.9406V18.8755C13.5 17.2837 14.7815 16 16.3706 16H38.8833C40.2564 16.0014 41.4036 16.961 41.6882 18.2448Z" fill="#277EB8"/>
<path d="M32.3441 25.7854C31.8621 25.7854 31.4087 26.0017 31.1012 26.3814C30.7908 26.764 30.6706 27.264 30.7736 27.7554C30.9023 28.3987 31.4444 28.9145 32.0924 29.0133C32.5758 29.0835 33.0435 28.9532 33.4068 28.638C33.7658 28.3285 33.9703 27.8801 33.9703 27.4073C33.9703 26.5132 33.2409 25.7854 32.3441 25.7854Z" fill="#277EB8"/>
<path d="M41.4819 21.3495H19.3265C19.122 21.3495 18.9561 21.5157 18.9561 21.7206V38.5539L26.95 29.4318C27.2046 29.1409 27.575 28.9847 27.9626 28.9919C28.3517 29.0048 28.7121 29.1896 28.9495 29.4977L31.7872 33.2315C31.9217 33.4077 32.1162 33.5137 32.3365 33.5295C32.5567 33.5438 32.7684 33.465 32.9243 33.3103L34.7208 31.505C34.9882 31.24 35.3544 31.1039 35.7248 31.1297C36.0953 31.1555 36.4385 31.3389 36.6645 31.634L37.4254 32.6269C38.5983 31.6369 40.1101 31.038 41.7607 31.038C41.7922 31.038 41.8208 31.0423 41.8523 31.0423L41.8508 21.721C41.8508 21.5161 41.685 21.3495 41.4819 21.3495ZM33.7567 29.046C33.3619 29.387 32.8585 29.5704 32.3393 29.5704C32.2306 29.5704 32.1204 29.5618 32.0103 29.5461C31.1407 29.4142 30.4155 28.7208 30.2439 27.8626C30.1094 27.2136 30.2682 26.5488 30.6816 26.0402C31.0921 25.5344 31.6971 25.245 32.3422 25.245C33.5364 25.245 34.5076 26.2149 34.5076 27.407C34.5076 28.0359 34.2344 28.6334 33.7567 29.046Z" fill="#277EB8"/>
<path d="M35.2677 39.5711H19.3285C19.2713 39.5711 19.2155 39.564 19.1612 39.5539C19.1555 39.5525 19.1497 39.5539 19.144 39.5525C19.1111 39.5453 19.0797 39.5325 19.0482 39.5224C19.021 39.5138 18.9938 39.5067 18.9681 39.4966C18.9381 39.4837 18.9123 39.4665 18.8837 39.4508C18.858 39.4365 18.8322 39.4236 18.8093 39.4064C18.785 39.3892 18.7621 39.3677 18.7392 39.3476C18.7149 39.3276 18.6906 39.3061 18.6692 39.2832C18.662 39.276 18.6549 39.2717 18.6477 39.2645C18.642 39.2574 18.6391 39.2488 18.6334 39.2416C18.5004 39.084 18.4174 38.882 18.4174 38.6599L18.4189 21.7206C18.4189 21.2192 18.8265 20.8108 19.3271 20.8108H41.481C41.9816 20.8108 42.3893 21.2192 42.3893 21.7206V31.0706C43.1473 31.1408 43.8682 31.3413 44.5333 31.6436L44.5347 21.6563C44.5347 20.0674 43.2475 18.7822 41.6612 18.7822H19.1456C17.5594 18.7822 16.2778 20.0674 16.2778 21.6563V38.7228C16.2778 40.3117 17.5594 41.5954 19.1456 41.5954L36.2004 41.5969C35.7827 40.9865 35.4679 40.3033 35.2677 39.5711Z" fill="#277EB8"/>
<path d="M35.1403 39.0308C35.0645 38.6282 35.0215 38.2141 35.0215 37.7886C35.0215 35.9132 35.7896 34.2154 37.0254 32.9919L36.2373 31.9632C36.1057 31.7913 35.9055 31.6838 35.6881 31.6695C35.4693 31.6552 35.2561 31.734 35.1002 31.8887L33.3038 33.694C33.0363 33.959 32.6702 34.0937 32.2983 34.0679C31.9279 34.0421 31.5846 33.8558 31.3586 33.5578L28.5209 29.8255C28.3821 29.6464 28.1719 29.5375 27.9445 29.5304C27.7199 29.5261 27.5025 29.6163 27.3538 29.7854L19.2668 39.0179C19.2869 39.0222 19.3055 39.0308 19.3269 39.0308L35.1403 39.0308Z" fill="#277EB8"/>
<path d="M42.0898 34.2829C41.9067 34.0995 41.6064 34.0995 41.4233 34.2829L39.2049 36.5051C39.1162 36.5939 39.0662 36.7143 39.0662 36.8418C39.0662 36.9693 39.1148 37.0896 39.2049 37.1785C39.3837 37.3576 39.6926 37.3576 39.87 37.1785L40.8269 36.22C40.8784 36.1684 40.947 36.1412 41.0171 36.1412C41.0514 36.1412 41.0872 36.1483 41.1201 36.1612C41.2202 36.2028 41.286 36.3016 41.286 36.4105V40.9593C41.286 41.2244 41.4934 41.4336 41.7594 41.4336C42.0197 41.4336 42.2329 41.2215 42.2329 40.9593V36.4105C42.2329 36.3016 42.2987 36.2028 42.4002 36.1612C42.5003 36.1197 42.6176 36.1426 42.6934 36.2214L43.6432 37.1799C43.8262 37.3533 44.1237 37.359 44.3183 37.177C44.5014 36.9908 44.4999 36.6899 44.3154 36.5051L42.0898 34.2829Z" fill="#277EB8"/>
<path d="M41.7613 31.5779C38.3371 31.5779 35.5608 34.3589 35.5608 37.789C35.5608 41.2191 38.337 44 41.7613 44C45.1856 44 47.9618 41.2191 47.9618 37.789C47.9618 34.3589 45.1856 31.5779 41.7613 31.5779ZM44.6962 37.5608C44.6948 37.5623 44.6934 37.5637 44.6919 37.5651C44.3 37.9391 43.6593 37.9391 43.2674 37.5651L42.7725 37.0651V40.9592C42.7725 41.5179 42.3191 41.9721 41.7613 41.9721C41.2035 41.9721 40.7501 41.5179 40.7501 40.9592V37.0622L40.2523 37.5608C39.8704 37.9433 39.2067 37.9433 38.8249 37.5608C38.6347 37.3702 38.5288 37.1152 38.5288 36.843C38.5288 36.5708 38.6347 36.3157 38.8249 36.1252L41.0433 33.903C41.4366 33.509 42.0774 33.509 42.4707 33.903L44.6962 36.1252C45.0924 36.5206 45.0924 37.1639 44.6962 37.5608Z" fill="#277EB8"/>
</svg>
