<svg width="50" height="50" viewBox="0 0 50 50" fill="none" xmlns="http://www.w3.org/2000/svg">
<path d="M9.37307 40.2533H9.75541V10.9587C9.75541 9.59453 10.3131 8.35421 11.2114 7.45596C12.1096 6.55771 13.3505 6 14.7146 6H28.8909C30.2546 6 31.4949 6.55822 32.3931 7.45647C33.2919 8.35523 33.8501 9.59606 33.8501 10.9587V15.6371H35.1725C36.2711 15.6371 37.2698 16.0857 37.9947 16.8096L37.9988 16.8137C38.7217 17.5381 39.1698 18.5362 39.1698 19.6343V34.6869C39.1698 35.185 39.3645 35.4888 39.6123 35.6081C39.6979 35.6489 39.7958 35.6703 39.8957 35.6703C39.9956 35.6703 40.0935 35.6489 40.1792 35.6081C40.4269 35.4888 40.6217 35.185 40.6217 34.6869V22.5682C40.6217 22.3408 40.7394 22.1405 40.9168 22.0247L45.5483 18.3191C45.8261 18.0973 46.2319 18.1422 46.4537 18.42L47.8591 20.1762C48.0809 20.4541 48.036 20.8599 47.7582 21.0816L45.4173 22.9551L46.0331 23.4333C46.1967 23.5607 46.2829 23.7514 46.2829 23.9441L46.2834 26.9432C46.2834 27.2231 46.1055 27.4616 45.8567 27.5519L44.1657 28.3415V34.6869C44.1657 36.8362 43.0544 38.2208 41.6331 38.833C41.084 39.0696 40.4886 39.1883 39.8957 39.1883C39.3028 39.1883 38.7074 39.0696 38.1589 38.833C36.7371 38.2208 35.6257 36.8357 35.6257 34.6869V19.6343C35.6257 19.5094 35.5753 19.3957 35.4942 19.3152C35.4111 19.2316 35.2974 19.1811 35.1725 19.1811H33.8501V40.2533H34.232C34.885 40.2533 35.4794 40.5204 35.9087 40.9497L35.9464 40.991C36.3537 41.4176 36.605 41.9952 36.605 42.6274V42.8456C36.605 43.4976 36.3379 44.0905 35.9087 44.5202C35.4794 44.952 34.885 45.2192 34.232 45.2192H9.37307C8.72156 45.2192 8.12867 44.952 7.69892 44.5228C7.26713 44.0905 7 43.4966 7 42.8456V42.6274C7 41.9738 7.26713 41.3794 7.69637 40.9502C8.12562 40.5209 8.72003 40.2533 9.37307 40.2533ZM33.8501 16.9319V17.8863H35.1725C35.6497 17.8863 36.0866 18.0825 36.4037 18.3986C36.7238 18.7193 36.9206 19.1567 36.9206 19.6343V34.6869C36.9206 36.2372 37.6883 37.2216 38.6697 37.6442C39.0541 37.8099 39.4746 37.8935 39.8957 37.8935C40.3163 37.8935 40.7374 37.8099 41.1223 37.6442C42.1031 37.2216 42.8709 36.2372 42.8709 34.6869V27.9322C42.8734 27.69 43.011 27.4576 43.245 27.348L44.9885 26.5338V24.2607L43.9771 23.4751C43.9394 23.4425 44.1657 23.6216 43.8711 23.3665C43.6493 23.0887 46.7222 21.2218 47 21L46.4506 20.478L45.8501 19.7276L41.9165 22.8751V34.6869C41.9165 35.7544 41.3986 36.4528 40.7359 36.7714C40.4682 36.8999 40.1802 36.9651 39.8957 36.9651C39.6113 36.9651 39.3232 36.8999 39.0556 36.7714C38.3929 36.4528 37.8749 35.7534 37.8749 34.6869V19.6343C37.8749 18.8885 37.5721 18.213 37.0842 17.7252C36.5938 17.2347 35.9183 16.9319 35.1725 16.9319H33.8501ZM21.2221 25.5178C21.3557 25.187 21.7334 25.0274 22.0643 25.161C22.3951 25.2945 22.5547 25.6723 22.4211 26.0031C21.789 27.5631 21.2578 28.4445 20.5568 29.6073L20.2183 30.1686C19.8589 30.7712 19.6871 31.388 19.6871 31.9493C19.6871 32.3383 19.7687 32.6957 19.9247 32.9939C20.0761 33.2834 20.3014 33.5276 20.593 33.702C20.9137 33.8937 21.3256 34.0038 21.8216 34.0038C22.4023 34.0038 22.9284 33.7688 23.3061 33.3885C23.6844 33.0087 23.9189 32.4795 23.9189 31.8917C23.9189 31.125 23.4892 30.5759 23.0105 29.9642C22.8427 29.7531 22.6699 29.5314 22.4823 29.2612C22.2799 28.9681 22.3539 28.5658 22.647 28.3635C22.9401 28.1611 23.3423 28.235 23.5447 28.5281C23.687 28.7331 23.8588 28.9528 24.026 29.1659C24.652 29.9683 25.2138 30.6866 25.2138 31.8917C25.2138 32.8323 24.8345 33.6836 24.2217 34.2989C23.6074 34.9168 22.7576 35.2986 21.8216 35.2986C21.0865 35.2986 20.4498 35.1197 19.9303 34.8092C19.4302 34.5105 19.0428 34.0904 18.7818 33.5903C18.5253 33.1004 18.3923 32.5397 18.3923 31.9493C18.3923 31.1683 18.6242 30.3216 19.1111 29.5059L19.4496 28.9395C20.1194 27.8282 20.6277 26.9855 21.2221 25.5178ZM17.1652 38.2794C16.8078 38.2794 16.5178 37.9893 16.5178 37.6319C16.5178 37.2746 16.8078 36.9845 17.1652 36.9845H26.4398C26.7972 36.9845 27.0872 37.2746 27.0872 37.6319C27.0872 37.9893 26.7972 38.2794 26.4398 38.2794H17.1652ZM14.5607 8.70393H29.0448C29.6199 8.70393 30.145 8.93996 30.5263 9.32026L30.5304 9.32434C30.9097 9.70515 31.1452 10.2297 31.1452 10.8043V21.3279C31.1452 21.906 30.9091 22.4315 30.5288 22.8118C30.149 23.1916 29.6229 23.4282 29.0448 23.4282H14.5607C13.9826 23.4282 13.4565 23.1916 13.0767 22.8118C12.6964 22.4315 12.4604 21.906 12.4604 21.3279V10.8043C12.4604 10.2292 12.6964 9.70413 13.0767 9.32281L13.0808 9.31873C13.4616 8.93945 13.9862 8.70393 14.5607 8.70393ZM29.0448 9.99879H14.5607C14.3384 9.99879 14.1365 10.089 13.9923 10.2333C13.8455 10.3801 13.7552 10.582 13.7552 10.8043V21.3279C13.7552 21.5486 13.846 21.75 13.9923 21.8963C14.1381 22.0421 14.34 22.1333 14.5607 22.1333H29.0448C29.2656 22.1333 29.4675 22.0421 29.6133 21.8963C29.7596 21.75 29.8503 21.5486 29.8503 21.3279V10.8043C29.8503 10.582 29.7601 10.3801 29.6158 10.2358C29.469 10.089 29.2671 9.99879 29.0448 9.99879ZM11.0503 40.2533H32.5553V10.9587C32.5553 9.95393 32.1418 9.03631 31.4776 8.37205C30.8133 7.7078 29.8972 7.29487 28.8909 7.29487H14.7146C13.7078 7.29487 12.7912 7.70729 12.127 8.37154C11.4627 9.0358 11.0503 9.95189 11.0503 10.9587V40.2533ZM34.232 41.5482H9.37307C9.07739 41.5482 8.8072 41.6705 8.61196 41.8658C8.41671 42.061 8.29487 42.3312 8.29487 42.6274V42.8456C8.29487 43.1423 8.4162 43.413 8.61094 43.6082C8.80619 43.803 9.07637 43.9243 9.37307 43.9243H34.232C34.5276 43.9243 34.7978 43.8024 34.9931 43.6072C35.1888 43.413 35.3102 43.1428 35.3102 42.8456V42.6274C35.3102 42.3434 35.1995 42.0839 35.0196 41.8907L34.9931 41.8652C34.7978 41.67 34.5276 41.5482 34.232 41.5482Z" fill="#277EB8" stroke="#277EB8"/>
</svg>
