<svg width="50" height="50" viewBox="0 0 50 50" fill="none" xmlns="http://www.w3.org/2000/svg">
<path d="M44.1984 46.3532V44.6424C44.1984 43.7822 43.6755 43.0426 42.9313 42.7221V33.2567C43.6755 32.9362 44.1984 32.1966 44.1984 31.3364V29.0292C44.5883 28.6494 44.8321 28.1204 44.8321 27.5347V25.6338C44.8321 24.4812 43.8942 23.5428 42.7407 23.5428H37.8626V23.0991C37.8626 21.9977 37.0034 21.1017 35.9209 21.0235C35.5238 15.6301 31.2151 11.3162 25.8239 10.9124V8.71615H32.9197C33.5483 8.71615 34.0605 8.20452 34.0605 7.57584V3.14031C34.0605 2.51163 33.5483 2 32.9197 2H24.1756V10.9124C18.7844 11.3162 14.4762 15.6301 14.0796 21.0235C12.9976 21.1017 12.1379 21.9977 12.1379 23.0991V23.5428H7.25882C6.10627 23.5428 5.16787 24.4807 5.16787 25.6338V27.5347C5.16787 28.1204 5.41167 28.6494 5.80164 29.0292V31.3364C5.80164 32.1966 6.32451 32.9362 7.06869 33.2567V42.7216C6.32451 43.0421 5.80164 43.7817 5.80164 44.6419V46.3527H2V48H48V46.3527L44.1984 46.3532ZM25.8239 3.64684H32.4126V7.0688H25.8239V3.64684ZM42.55 31.3364C42.55 31.5807 42.3522 31.78 42.1069 31.78H37.0377C36.7929 31.78 36.5946 31.5807 36.5946 31.3364V29.6257H42.5495L42.55 31.3364ZM37.8621 33.4269H41.2825V42.5514H37.8621V33.4269ZM24.9995 12.5174C29.8571 12.5174 33.8524 16.2572 34.271 21.0081H15.7274C16.146 16.2578 20.1419 12.5174 24.9995 12.5174ZM13.7847 23.0991C13.7847 22.8548 13.984 22.6555 14.2283 22.6555H35.7706C36.0155 22.6555 36.2138 22.8548 36.2138 23.0991V23.5428H13.7847V23.0991ZM6.81518 25.6338C6.81518 25.3895 7.01451 25.1901 7.25882 25.1901H42.7407C42.9855 25.1901 43.1838 25.3895 43.1838 25.6338V27.5347C43.1838 27.779 42.986 27.9783 42.7407 27.9783H7.25882C7.01451 27.9783 6.81518 27.779 6.81518 27.5347V25.6338ZM27.9772 31.3364C27.9772 31.5807 27.7794 31.78 27.5341 31.78H22.4649C22.2201 31.78 22.0218 31.5807 22.0218 31.3364V29.6257H27.9767L27.9772 31.3364ZM23.2893 33.4269H26.7097V42.5514H23.2893V33.4269ZM13.4049 31.3364C13.4049 31.5807 13.2056 31.78 12.9613 31.78H7.8926C7.64829 31.78 7.44896 31.5807 7.44896 31.3364V29.6257H13.4049V31.3364ZM12.1379 42.5514H8.716V33.4269H12.1379V42.5514ZM7.44896 46.3532V44.6424C7.44896 44.3981 7.64829 44.1988 7.8926 44.1988H12.9613C13.2056 44.1988 13.4049 44.3981 13.4049 44.6424V46.3532H7.44896ZM15.0517 46.3532V44.6424C15.0517 43.7822 14.5289 43.0426 13.7847 42.7221V33.2567C14.5289 32.9362 15.0517 32.1966 15.0517 31.3364V29.6257H20.3734V31.3364C20.3734 32.1966 20.8963 32.9362 21.6405 33.2567V42.7221C20.8963 43.0426 20.3734 43.7822 20.3734 44.6424V46.3532H15.0517ZM22.0223 46.3532V44.6424C22.0223 44.3981 22.2201 44.1988 22.4654 44.1988H27.5346C27.7794 44.1988 27.9777 44.3981 27.9777 44.6424V46.3532H22.0223ZM29.6256 46.3532V44.6424C29.6256 43.7822 29.1027 43.0426 28.3585 42.7221V33.2567C29.1027 32.9362 29.6256 32.1966 29.6256 31.3364V29.6257H34.9467V31.3364C34.9467 32.1966 35.4696 32.9362 36.2138 33.2567V42.7221C35.4696 43.0426 34.9467 43.7822 34.9467 44.6424V46.3532H29.6256ZM36.5951 46.3532V44.6424C36.5951 44.3981 36.7929 44.1988 37.0382 44.1988H42.1074C42.3522 44.1988 42.5505 44.3981 42.5505 44.6424V46.3532H36.5951Z" fill="#277EB8" stroke="#277EB8" stroke-width="0.5"/>
</svg>
