<svg width="45" height="45" viewBox="0 0 45 45" fill="none" xmlns="http://www.w3.org/2000/svg">
<circle cx="22.5" cy="22.5" r="22.5" fill="#277EB8" fill-opacity="0.16"/>
<path d="M33.1503 31.0752H32.0348V29.7243C32.0348 29.6037 31.9378 29.5313 31.8408 29.5313H12.8529C12.7317 29.5313 12.6589 29.6278 12.6589 29.7243V31.0752H11.5434C11.4222 31.0752 11.3494 31.1717 11.3494 31.2682V33.0051C11.3494 33.1257 11.4464 33.1981 11.5434 33.1981H33.1988C33.3201 33.1981 33.3928 33.1016 33.3928 33.0051V31.2682C33.3686 31.1717 33.2716 31.0752 33.1503 31.0752Z" fill="#277EB8"/>
<path d="M11.7132 17.9762H32.9563C33.1746 17.9762 33.3686 17.8074 33.3686 17.5661V16.8666C33.3686 16.6736 33.2473 16.4806 33.0776 16.3841L22.6743 10.4015C22.456 10.2809 22.2135 10.2809 21.9953 10.4015L11.6162 16.3841C11.4464 16.4806 11.3252 16.6495 11.3252 16.8666V17.5661C11.3009 17.8074 11.4949 17.9762 11.7132 17.9762ZM22.3348 13.3928C22.9168 13.3928 23.3775 13.8511 23.3775 14.4301C23.3775 15.0091 22.9168 15.4674 22.3348 15.4674C21.7528 15.4674 21.292 15.0091 21.292 14.4301C21.292 13.8511 21.7528 13.3928 22.3348 13.3928Z" fill="#277EB8"/>
<path d="M16.0783 19.496C16.1995 19.496 16.2723 19.3995 16.2723 19.303V18.6758C16.2723 18.5552 16.1753 18.4828 16.0783 18.4828H13.92C13.7987 18.4828 13.726 18.5793 13.726 18.6758V19.303C13.726 19.4237 13.823 19.496 13.92 19.496H14.1867V28.0116H13.92C13.7987 28.0116 13.726 28.1081 13.726 28.2046V28.8318C13.726 28.9524 13.823 29.0248 13.92 29.0248H16.0783C16.1995 29.0248 16.2723 28.9283 16.2723 28.8318V28.2046C16.2723 28.084 16.1753 28.0116 16.0783 28.0116H15.8115V19.496H16.0783Z" fill="#277EB8"/>
<path d="M30.7253 19.496C30.8466 19.496 30.9193 19.3995 30.9193 19.303V18.6758C30.9193 18.5552 30.8223 18.4828 30.7253 18.4828H28.567C28.4458 18.4828 28.373 18.5793 28.373 18.6758V19.303C28.373 19.4237 28.47 19.496 28.567 19.496H28.8338V28.0116H28.567C28.4458 28.0116 28.373 28.1081 28.373 28.2046V28.8318C28.373 28.9524 28.47 29.0248 28.567 29.0248H30.7253C30.8466 29.0248 30.9193 28.9283 30.9193 28.8318V28.2046C30.9193 28.084 30.8223 28.0116 30.7253 28.0116H30.4586V19.496H30.7253Z" fill="#277EB8"/>
<path d="M27.0635 19.496C27.1848 19.496 27.2575 19.3995 27.2575 19.303V18.6758C27.2575 18.5552 27.1605 18.4828 27.0635 18.4828H24.9053C24.784 18.4828 24.7113 18.5793 24.7113 18.6758V19.303C24.7113 19.4237 24.8083 19.496 24.9053 19.496H25.172V28.0116H24.9053C24.784 28.0116 24.7113 28.1081 24.7113 28.2046V28.8318C24.7113 28.9524 24.8083 29.0248 24.9053 29.0248H27.0635C27.1848 29.0248 27.2575 28.9283 27.2575 28.8318V28.2046C27.2575 28.084 27.1605 28.0116 27.0635 28.0116H26.7968V19.496H27.0635Z" fill="#277EB8"/>
<path d="M23.4018 19.496C23.523 19.496 23.5958 19.3995 23.5958 19.303V18.6758C23.5958 18.5552 23.4988 18.4828 23.4018 18.4828H21.2435C21.1222 18.4828 21.0495 18.5793 21.0495 18.6758V19.303C21.0495 19.4237 21.1465 19.496 21.2435 19.496H21.5102V28.0116H21.2435C21.1222 28.0116 21.0495 28.1081 21.0495 28.2046V28.8318C21.0495 28.9524 21.1465 29.0248 21.2435 29.0248H23.4018C23.523 29.0248 23.5958 28.9283 23.5958 28.8318V28.2046C23.5958 28.084 23.4988 28.0116 23.4018 28.0116H23.135V19.496H23.4018Z" fill="#277EB8"/>
<path d="M19.74 19.496C19.8613 19.496 19.934 19.3995 19.934 19.303V18.6758C19.934 18.5552 19.837 18.4828 19.74 18.4828H17.5818C17.4605 18.4828 17.3878 18.5793 17.3878 18.6758V19.303C17.3878 19.4237 17.4848 19.496 17.5818 19.496H17.8485V28.0116H17.5818C17.4605 28.0116 17.3878 28.1081 17.3878 28.2046V28.8318C17.3878 28.9524 17.4848 29.0248 17.5818 29.0248H19.74C19.8613 29.0248 19.934 28.9283 19.934 28.8318V28.2046C19.934 28.084 19.837 28.0116 19.74 28.0116H19.4733V19.496H19.74Z" fill="#277EB8"/>
</svg>
