<svg width="49" height="49" viewBox="0 0 49 49" fill="none" xmlns="http://www.w3.org/2000/svg">
<path d="M45 23.1774C45 20.2605 42.6266 17.8871 39.7097 17.8871C36.7927 17.8871 34.4194 20.2605 34.4194 23.1774C34.4194 25.3927 35.7895 27.2913 37.7258 28.0782V40.371C37.7258 40.7353 37.4296 41.0323 37.0645 41.0323H21.1935C20.8285 41.0323 20.5323 40.7353 20.5323 40.371V32.366C20.8636 32.2589 21.1453 32.0281 21.3066 31.7048L22.2741 29.7692C28.278 29.5463 33.0968 24.6058 33.0968 18.5484V5.98387C33.0968 4.8901 32.2067 4 31.1129 4H28.4677H27.1452H25.8226H25.1613H23.1774C22.448 4 21.8548 4.59318 21.8548 5.32258V10.6129C21.8548 11.3423 22.448 11.9355 23.1774 11.9355H24.5C25.2294 11.9355 25.8226 11.3423 25.8226 10.6129H27.1452C27.8746 10.6129 28.4677 10.0197 28.4677 9.29032V7.96774H29.129V18.5484C29.129 22.5591 25.8656 25.8226 21.8548 25.8226H15.2419C11.2312 25.8226 7.96774 22.5591 7.96774 18.5484V7.96774H9.29032V9.29032C9.29032 10.0197 9.8835 10.6129 10.6129 10.6129H11.9355C11.9355 11.3423 12.5287 11.9355 13.2581 11.9355H14.5806C15.31 11.9355 15.9032 11.3423 15.9032 10.6129V5.32258C15.9032 4.59318 15.31 4 14.5806 4H12.5968H11.9355H9.95161H9.29032H5.98387C4.8901 4 4 4.8901 4 5.98387V18.5484C4 24.6058 8.81882 29.5463 14.8227 29.7692L15.7901 31.7041C15.9515 32.0281 16.2332 32.2589 16.5645 32.366V40.371C16.5645 42.9235 18.6416 45 21.1935 45H37.0645C39.6164 45 41.6936 42.9235 41.6936 40.371V28.0782C43.6298 27.2913 45 25.3927 45 23.1774ZM24.5 10.6129H23.1774V5.32258H24.5V10.6129ZM27.1452 9.29032H25.8226V5.32258H27.1452V9.29032ZM30.4516 18.5484V6.64516H28.4677V5.32258H31.1129C31.4779 5.32258 31.7742 5.6195 31.7742 5.98387V18.5484C31.7742 23.7944 27.6775 28.0915 22.5161 28.434V27.1114C26.9474 26.7715 30.4516 23.0657 30.4516 18.5484ZM10.6129 5.32258H11.9355V6.64516H13.2581V5.32258H14.5806V10.6129H13.2581V6.64516H11.9355V9.29032H10.6129V5.32258ZM5.32258 18.5484V5.98387C5.32258 5.6195 5.61884 5.32258 5.98387 5.32258H9.29032V6.64516H6.64516V18.5484C6.64516 23.0657 10.1493 26.7715 14.5806 27.1114V28.434C9.41927 28.0915 5.32258 23.7944 5.32258 18.5484ZM19.2097 33.7581H17.8871V32.4355H19.2097V33.7581ZM15.9032 28.973V27.1452H21.1935V28.973L20.1236 31.1129H16.9732L15.9032 28.973ZM40.371 40.371C40.371 42.1941 38.8877 43.6774 37.0645 43.6774H21.1935C19.3704 43.6774 17.8871 42.1941 17.8871 40.371V35.0806H19.2097V40.371C19.2097 41.4647 20.0998 42.3548 21.1935 42.3548H37.0645C38.1583 42.3548 39.0484 41.4647 39.0484 40.371V28.4221C39.2653 28.4492 39.4855 28.4677 39.7097 28.4677C39.9339 28.4677 40.1541 28.4492 40.371 28.4221V40.371ZM39.7097 27.1452C37.5215 27.1452 35.7419 25.3656 35.7419 23.1774C35.7419 20.9892 37.5215 19.2097 39.7097 19.2097C41.8979 19.2097 43.6774 20.9892 43.6774 23.1774C43.6774 25.3656 41.8979 27.1452 39.7097 27.1452Z" fill="#277EB8"/>
<path d="M11.9355 6.64516V5.32258H10.6129V9.29032H11.9355V6.64516ZM11.9355 6.64516H13.2581M13.2581 6.64516V5.32258H14.5806V10.6129H13.2581V6.64516ZM20.1236 31.1129L21.1935 28.973V27.1452H15.9032V28.973L16.9732 31.1129H20.1236ZM20.1236 31.1129V31.7742M45 23.1774C45 20.2605 42.6266 17.8871 39.7097 17.8871C36.7927 17.8871 34.4194 20.2605 34.4194 23.1774C34.4194 25.3927 35.7895 27.2913 37.7258 28.0782V40.371C37.7258 40.7353 37.4296 41.0323 37.0645 41.0323H21.1935C20.8285 41.0323 20.5323 40.7353 20.5323 40.371V32.366C20.8636 32.2589 21.1453 32.0281 21.3066 31.7048L22.2741 29.7692C28.278 29.5463 33.0968 24.6058 33.0968 18.5484V5.98387C33.0968 4.8901 32.2067 4 31.1129 4H28.4677H27.1452H25.8226H25.1613H23.1774C22.448 4 21.8548 4.59318 21.8548 5.32258V10.6129C21.8548 11.3423 22.448 11.9355 23.1774 11.9355H24.5C25.2294 11.9355 25.8226 11.3423 25.8226 10.6129H27.1452C27.8746 10.6129 28.4677 10.0197 28.4677 9.29032V7.96774H29.129V18.5484C29.129 22.5591 25.8656 25.8226 21.8548 25.8226H15.2419C11.2312 25.8226 7.96774 22.5591 7.96774 18.5484V7.96774H9.29032V9.29032C9.29032 10.0197 9.8835 10.6129 10.6129 10.6129H11.9355C11.9355 11.3423 12.5287 11.9355 13.2581 11.9355H14.5806C15.31 11.9355 15.9032 11.3423 15.9032 10.6129V5.32258C15.9032 4.59318 15.31 4 14.5806 4H12.5968H11.9355H9.95161H9.29032H5.98387C4.8901 4 4 4.8901 4 5.98387V18.5484C4 24.6058 8.81882 29.5463 14.8227 29.7692L15.7901 31.7041C15.9515 32.0281 16.2332 32.2589 16.5645 32.366V40.371C16.5645 42.9235 18.6416 45 21.1935 45H37.0645C39.6164 45 41.6936 42.9235 41.6936 40.371V28.0782C43.6298 27.2913 45 25.3927 45 23.1774ZM24.5 10.6129H23.1774V5.32258H24.5V10.6129ZM27.1452 9.29032H25.8226V5.32258H27.1452V9.29032ZM30.4516 18.5484V6.64516H28.4677V5.32258H31.1129C31.4779 5.32258 31.7742 5.6195 31.7742 5.98387V18.5484C31.7742 23.7944 27.6775 28.0915 22.5161 28.434V27.1114C26.9474 26.7715 30.4516 23.0657 30.4516 18.5484ZM5.32258 18.5484V5.98387C5.32258 5.6195 5.61884 5.32258 5.98387 5.32258H9.29032V6.64516H6.64516V18.5484C6.64516 23.0657 10.1493 26.7715 14.5806 27.1114V28.434C9.41927 28.0915 5.32258 23.7944 5.32258 18.5484ZM19.2097 33.7581H17.8871V32.4355H19.2097V33.7581ZM40.371 40.371C40.371 42.1941 38.8877 43.6774 37.0645 43.6774H21.1935C19.3704 43.6774 17.8871 42.1941 17.8871 40.371V35.0806H19.2097V40.371C19.2097 41.4647 20.0998 42.3548 21.1935 42.3548H37.0645C38.1583 42.3548 39.0484 41.4647 39.0484 40.371V28.4221C39.2653 28.4492 39.4855 28.4677 39.7097 28.4677C39.9339 28.4677 40.1541 28.4492 40.371 28.4221V40.371ZM39.7097 27.1452C37.5215 27.1452 35.7419 25.3656 35.7419 23.1774C35.7419 20.9892 37.5215 19.2097 39.7097 19.2097C41.8979 19.2097 43.6774 20.9892 43.6774 23.1774C43.6774 25.3656 41.8979 27.1452 39.7097 27.1452Z" stroke="#277EB8" stroke-width="0.5"/>
<path d="M39.7096 20.5322C38.2508 20.5322 37.0645 21.7186 37.0645 23.1774C37.0645 24.6362 38.2508 25.8225 39.7096 25.8225C40.15 25.8225 40.5858 25.7121 40.9707 25.5025L40.3392 24.3406C40.1474 24.4451 39.9298 24.5 39.7096 24.5C38.9802 24.5 38.387 23.9068 38.387 23.1774C38.387 22.448 38.9802 21.8548 39.7096 21.8548C40.439 21.8548 41.0322 22.448 41.0322 23.1774C41.0322 23.3288 41.0071 23.4776 40.9568 23.6191L42.2047 24.0589C42.3045 23.7759 42.3548 23.4789 42.3548 23.1774C42.3548 21.7186 41.1684 20.5322 39.7096 20.5322Z" fill="#277EB8"/>
</svg>
