<svg width="50" height="50" viewBox="0 0 50 50" fill="none" xmlns="http://www.w3.org/2000/svg">
<path d="M39.354 19.3584H36.7907V10.6406C36.7907 7.52896 34.262 5 31.1506 5H18.8435C15.7321 5 13.2034 7.52896 13.2034 10.6406V19.3584H10.6401C7.52871 19.3584 5 21.8873 5 24.999V41.4094C5 43.3884 6.60952 45 8.59022 45H41.4098C43.3885 45 45 43.3903 45 41.4094V24.999C45 21.8873 42.4713 19.3584 39.3599 19.3584H39.354ZM13.2014 41.9229H8.58628C8.30361 41.9229 8.07283 41.6941 8.07283 41.4094V24.999C8.07283 23.5855 9.22276 22.4354 10.6362 22.4354H13.1995V41.9229H13.2014ZM27.5584 41.9229H22.4298V35.2553C22.4298 33.8417 23.5797 32.6917 24.9931 32.6917C26.4065 32.6917 27.5564 33.8417 27.5564 35.2553V41.9229H27.5584ZM33.7119 41.9229H30.6352V35.2553C30.6352 32.1436 28.1065 29.6146 24.9951 29.6146C21.8837 29.6146 19.355 32.1436 19.355 35.2553V41.9229H16.2782V10.6387C16.2782 9.22514 17.4281 8.07511 18.8415 8.07511H31.1486C32.562 8.07511 33.7119 9.22514 33.7119 10.6387V41.9229ZM41.9173 41.4094C41.9173 41.6921 41.6885 41.9229 41.4039 41.9229H36.7887V22.4354H39.352C40.7654 22.4354 41.9154 23.5855 41.9154 24.999V41.4094H41.9173ZM30.6352 18.8449C30.6352 19.6949 29.9468 20.3834 29.0968 20.3834H20.8914C20.0414 20.3834 19.353 19.6949 19.353 18.8449C19.353 17.9948 20.0414 17.3063 20.8914 17.3063H29.0968C29.9468 17.3063 30.6352 17.9948 30.6352 18.8449ZM30.6352 12.6907C30.6352 13.5408 29.9468 14.2293 29.0968 14.2293H20.8914C20.0414 14.2293 19.353 13.5408 19.353 12.6907C19.353 11.8407 20.0414 11.1522 20.8914 11.1522H29.0968C29.9468 11.1522 30.6352 11.8407 30.6352 12.6907ZM30.6352 24.999C30.6352 25.8491 29.9468 26.5376 29.0968 26.5376H20.8914C20.0414 26.5376 19.353 25.8491 19.353 24.999C19.353 24.149 20.0414 23.4605 20.8914 23.4605H29.0968C29.9468 23.4605 30.6352 24.149 30.6352 24.999Z" fill="#277EB8"/>
</svg>
