<svg width="53" height="44" viewBox="0 0 53 44" fill="none" xmlns="http://www.w3.org/2000/svg">
<path d="M45.9743 44H7.02566C5.29564 43.9977 3.63713 43.3029 2.41382 42.0679C1.19051 40.8329 0.502263 39.1586 0.5 37.4121V6.58791C0.502263 4.84139 1.19051 3.16706 2.41382 1.93208C3.63713 0.6971 5.29564 0.00228453 7.02566 0H45.9743C47.7044 0.00228453 49.3629 0.6971 50.5862 1.93208C51.8095 3.16706 52.4977 4.84139 52.5 6.58791V37.4121C52.4977 39.1586 51.8095 40.8329 50.5862 42.0679C49.3629 43.3029 47.7044 43.9977 45.9743 44ZM7.02566 2.55573C5.97613 2.55801 4.97023 2.97992 4.2281 3.72913C3.48597 4.47834 3.06805 5.49383 3.06579 6.55337V37.3775C3.06805 38.4371 3.48597 39.4526 4.2281 40.2018C4.97023 40.951 5.97613 41.3729 7.02566 41.3752H45.9743C47.0239 41.3729 48.0298 40.951 48.7719 40.2018C49.514 39.4526 49.9319 38.4371 49.9342 37.3775V6.58791C49.9319 5.52837 49.514 4.51288 48.7719 3.76367C48.0298 3.01446 47.0239 2.59255 45.9743 2.59027L7.02566 2.55573ZM44.0757 37.5934H8.92434C8.38545 37.5931 7.85791 37.437 7.40409 37.1436C6.95027 36.8502 6.58913 36.4318 6.36336 35.9378C6.13759 35.4438 6.05663 34.8949 6.13004 34.356C6.20345 33.817 6.42817 33.3105 6.77763 32.8964L16.9895 20.7567C17.2527 20.4404 17.5812 20.1861 17.952 20.0116C18.3229 19.8371 18.727 19.7466 19.1362 19.7465C19.5466 19.7465 19.952 19.837 20.3243 20.0114C20.6965 20.1859 21.0266 20.4402 21.2914 20.7567L29.673 30.7119C29.6947 30.7389 29.7221 30.7607 29.7531 30.7756C29.7842 30.7906 29.8182 30.7983 29.8526 30.7983C29.889 30.8002 29.9254 30.7942 29.9593 30.7808C29.9932 30.7674 30.0239 30.7469 30.0493 30.7206L35.9079 24.8407C36.1905 24.5566 36.5293 24.336 36.9022 24.1934C37.275 24.0507 37.6736 23.9892 38.0717 24.0128C38.4697 24.0364 38.8584 24.1447 39.2121 24.3305C39.5658 24.5163 39.8767 24.7755 40.1243 25.0911L46.3164 32.9655C46.6483 33.3848 46.8561 33.8902 46.916 34.4235C46.9758 34.9568 46.8852 35.4963 46.6546 35.9799C46.424 36.4635 46.0628 36.8715 45.6126 37.157C45.1624 37.4424 44.6415 37.5937 44.1099 37.5934H44.0757ZM19.1362 22.3367C19.0985 22.337 19.0613 22.3457 19.0273 22.3621C18.9933 22.3785 18.9633 22.4023 18.9395 22.4317L8.72763 34.5714C8.69845 34.6115 8.68272 34.6599 8.68272 34.7096C8.68272 34.7593 8.69845 34.8077 8.72763 34.8477C8.74424 34.8954 8.77573 34.9363 8.81738 34.9644C8.85903 34.9924 8.90858 35.006 8.95855 35.0031H44.1099C44.1584 35.0041 44.2061 34.9908 44.2471 34.9647C44.2882 34.9386 44.3207 34.9009 44.3408 34.8564C44.37 34.8163 44.3857 34.7679 44.3857 34.7182C44.3857 34.6685 44.37 34.6201 44.3408 34.5801L38.1487 26.697C38.127 26.6673 38.0987 26.6432 38.0659 26.6266C38.0332 26.6101 37.9971 26.6017 37.9605 26.602C37.9227 26.5976 37.8843 26.6023 37.8486 26.6158C37.8129 26.6293 37.7809 26.6512 37.7553 26.6797L31.9309 32.5597C31.6557 32.8414 31.3264 33.0633 30.9631 33.2118C30.5998 33.3603 30.2102 33.4322 29.8184 33.4231C29.4128 33.4087 29.015 33.3064 28.652 33.1231C28.289 32.9399 27.9693 32.68 27.7145 32.3611L19.3414 22.4317C19.3163 22.4016 19.2848 22.3775 19.2493 22.3611C19.2139 22.3446 19.1752 22.3363 19.1362 22.3367ZM40.15 20.6099C38.9185 20.6099 37.7148 20.2412 36.6908 19.5506C35.6669 18.8599 34.8689 17.8782 34.3976 16.7296C33.9264 15.581 33.8031 14.3172 34.0433 13.0979C34.2836 11.8786 34.8766 10.7586 35.7473 9.8795C36.6181 9.00043 37.7275 8.40177 38.9353 8.15924C40.1431 7.9167 41.395 8.04118 42.5327 8.51693C43.6704 8.99268 44.6428 9.79834 45.327 10.832C46.0112 11.8657 46.3763 13.081 46.3763 14.3242C46.3718 15.9831 45.7188 17.5732 44.5593 18.7486C43.3997 19.9241 41.8274 20.5899 40.1842 20.6013L40.15 20.6099ZM40.15 10.6374C39.4257 10.6374 38.7176 10.8543 38.1154 11.2608C37.5133 11.6672 37.0441 12.2449 36.7673 12.9206C36.4905 13.5964 36.4185 14.3399 36.5604 15.0569C36.7024 15.774 37.0519 16.4325 37.5647 16.9489C38.0774 17.4654 38.7305 17.8167 39.4411 17.9583C40.1518 18.0999 40.888 18.0255 41.5568 17.7445C42.2255 17.4634 42.7966 16.9884 43.1978 16.3796C43.599 15.7708 43.8122 15.0554 43.8105 14.3242C43.8106 13.35 43.4296 12.4153 42.7505 11.7232C42.0714 11.0312 41.1491 10.6378 40.1842 10.6287L40.15 10.6374Z" fill="#5A5A5A"/>
</svg>
