<svg width="40" height="40" viewBox="0 0 40 40" fill="none" xmlns="http://www.w3.org/2000/svg">
<rect width="40" height="40" rx="20" fill="#277EB8" fill-opacity="0.5"/>
<path d="M14.683 27.5136C15.2905 28.2687 16.2031 29 17.2536 29C17.8512 29 18.3588 28.7187 18.9044 28.5134C19.407 28.3281 19.9382 28.2329 20.4738 28.2322C20.9905 28.2292 21.5025 28.3296 21.9798 28.5275C22.2329 28.6344 22.4833 28.7483 22.7406 28.8467C23.0017 28.9475 23.2791 28.9994 23.559 29C24.0768 28.994 24.5806 28.8318 25.0046 28.5345C26.2364 27.6908 27.1491 26.2086 27.7959 24.9107C27.8606 24.7813 27.9225 24.6506 27.9843 24.5212C28.087 24.3046 27.9253 24.0304 27.6384 23.8729C26.3728 23.1783 25.6318 22.1039 25.508 20.6218C25.3843 19.1396 25.9608 17.9697 27.1181 17.1203L27.3459 16.9333C27.4725 16.8292 27.4036 16.5409 27.1659 16.316C26.2906 15.4539 25.1178 14.9607 23.8895 14.9379C23.6511 14.938 23.4131 14.9577 23.1779 14.9969C22.1092 15.1797 21.2514 15.6888 20.2446 15.6888C19.9391 15.6891 19.6354 15.6417 19.3446 15.5482C18.5009 15.2782 17.6628 14.9379 16.7656 14.9379C16.6672 14.9379 16.5673 14.9379 16.4675 14.9505C15.3614 15.0684 14.3287 15.56 13.5398 16.3441C11.9845 17.8768 11.7637 20.2576 12.1518 22.2698C12.5245 24.2189 13.4413 25.9752 14.683 27.5136Z" fill="white"/>
<path d="M20.1406 14.9378C20.1607 14.9396 20.181 14.9396 20.2011 14.9378C23.1724 14.3837 23.4972 12.0888 23.5155 11.2507C23.5162 11.2168 23.5098 11.1832 23.4968 11.1519C23.4838 11.1205 23.4645 11.0923 23.4401 11.0688C23.4157 11.0453 23.3867 11.0271 23.3549 11.0153C23.3231 11.0035 23.2892 10.9985 23.2554 11.0004C23.2303 11.0004 23.2053 11.0032 23.1808 11.0088C20.18 11.7035 19.8678 13.8677 19.8594 14.6762C19.8601 14.7121 19.868 14.7474 19.8826 14.7801C19.8972 14.8128 19.9183 14.8422 19.9446 14.8666C19.9708 14.891 20.0017 14.9099 20.0354 14.9221C20.069 14.9344 20.1048 14.9397 20.1406 14.9378Z" fill="white"/>
</svg>
