<svg width="24" height="24" viewBox="0 0 24 24" fill="none" xmlns="http://www.w3.org/2000/svg">
<path d="M12.4999 6C10.7361 6 9.28159 7.34866 9.0399 9.1305C9.03727 9.1307 9.03521 9.13089 9.03108 9.1305L9.02527 9.22931C9.01008 9.36823 8.99996 9.50871 8.99996 9.65212V10.1739C8.44757 10.1739 8 10.6435 8 11.2174V16.9566C8 17.5304 8.44776 18 8.99996 18H16C16.5526 18 17 17.5304 17 16.9566V11.2174C17 10.6435 16.5524 10.1739 16 10.1739V9.65212C16 9.50851 15.9899 9.36823 15.9747 9.22931L15.9689 9.1305C15.9648 9.13089 15.9627 9.1307 15.9601 9.1305C15.7184 7.34866 14.2638 6 12.4999 6ZM12.4999 7.56525C12.6379 7.56525 12.7731 7.58032 12.9032 7.6081C13.5542 7.7478 14.0898 8.21855 14.3427 8.84211C14.3929 8.96635 14.4323 9.09626 14.4589 9.23146C14.4858 9.36764 14.5 9.50812 14.5 9.65232V10.1741H10.5V9.65232C10.5 9.50832 10.5202 9.36431 10.5469 9.22833C10.5846 9.03561 10.6537 8.85639 10.7383 8.68715C10.764 8.63647 10.7871 8.58443 10.8165 8.53629C10.8469 8.48601 10.8819 8.43984 10.9161 8.39268C10.9569 8.33672 10.9989 8.28194 11.0451 8.23068C11.0775 8.19448 11.1118 8.16044 11.1467 8.12679C11.2041 8.07141 11.2641 8.01917 11.3274 7.97085C11.3618 7.94463 11.3961 7.91822 11.4319 7.89435C11.5016 7.84797 11.5753 7.80826 11.6507 7.77108C11.6865 7.75328 11.7212 7.73352 11.7581 7.71806C11.8395 7.68382 11.9248 7.65936 12.0111 7.63647C12.0471 7.62688 12.0816 7.61338 12.1185 7.60595C12.2423 7.5809 12.3696 7.56525 12.5003 7.56525H12.4999Z" fill="#5A5A5A"/>
</svg>
