<svg width="50" height="50" viewBox="0 0 50 50" fill="none" xmlns="http://www.w3.org/2000/svg">
<path d="M41.4963 18.0322C41.7133 17.4113 42.3904 17.0869 43.0081 17.3051C43.6258 17.5232 43.9486 18.2037 43.7315 18.8245L42.7521 21.5876C42.5351 22.2084 41.858 22.5328 41.2403 22.3146C40.6226 22.0965 40.2998 21.416 40.5169 20.7952L41.4963 18.0322ZM1.1872 10.925C0.532386 10.925 0 10.3899 0 9.73177C0 9.07365 0.532386 8.53857 1.1872 8.53857H6.2608C6.82471 8.53857 7.29589 8.93382 7.41831 9.4633L14.532 31.6511H41.4813C42.1361 31.6511 42.6685 32.1862 42.6685 32.8443C42.6685 33.5024 42.1361 34.0375 41.4813 34.0375H37.2353C37.558 34.6528 37.7398 35.3537 37.7398 36.0958C37.7398 37.3225 37.2445 38.4337 36.445 39.2372C35.6455 40.0408 34.5399 40.5386 33.3194 40.5386C32.0988 40.5386 30.9932 40.0408 30.1937 39.2372C29.3942 38.4337 28.8989 37.3207 28.8989 36.0958C28.8989 35.3537 29.0807 34.6546 29.4035 34.0375H24.4543C24.7771 34.6528 24.9588 35.3537 24.9588 36.0958C24.9588 37.3225 24.4635 38.4337 23.664 39.2372C22.8645 40.0408 21.7571 40.5386 20.5384 40.5386C19.3215 40.5386 18.2178 40.0408 17.4164 39.2372L17.4127 39.2335C16.6132 38.4299 16.1179 37.3188 16.1179 36.0958C16.1179 35.3537 16.2997 34.6546 16.6206 34.0375H13.6768C13.1759 34.0338 12.7103 33.7131 12.5508 33.2078L5.4053 10.9246L1.1872 10.925ZM39.4277 23.8674C39.6448 23.2465 40.3218 22.9221 40.9395 23.1403C41.5573 23.3584 41.88 24.0389 41.663 24.6598L40.2625 28.6122C40.0955 29.0895 39.654 29.3934 39.1792 29.4065L16.0735 30.7992C15.504 30.8327 15.005 30.4561 14.8622 29.9248L9.30467 12.59C9.10433 11.9654 9.4475 11.2942 10.0689 11.0947C10.1895 11.0556 10.3101 11.0369 10.4307 11.0369L44.8128 11.0332C45.4676 11.0332 46 11.5683 46 12.2264C46 12.3961 45.9648 12.5564 45.9017 12.7018L44.8221 15.7482C44.6051 16.3691 43.928 16.6935 43.3103 16.4753C42.6926 16.2571 42.3698 15.5767 42.5868 14.9558L43.1322 13.4177H12.0557L16.8491 28.3642L38.2927 27.0722L39.4298 23.8636L39.4277 23.8674ZM34.7698 34.6377C34.3988 34.2667 33.8868 34.0374 33.3192 34.0374C32.7516 34.0374 32.2396 34.2667 31.8686 34.6377C31.4995 35.0106 31.2713 35.5251 31.2713 36.0956C31.2713 36.6643 31.5013 37.1788 31.8705 37.5517C32.2396 37.9227 32.7534 38.1539 33.3174 38.1539C33.8831 38.1539 34.3951 37.9227 34.7661 37.5517C35.1353 37.1807 35.3653 36.6643 35.3653 36.0956C35.3653 35.5251 35.1371 35.0106 34.768 34.6377H34.7698ZM21.9871 34.6377C21.6161 34.2667 21.1041 34.0374 20.5364 34.0374C19.9707 34.0374 19.4587 34.2685 19.0877 34.6395C18.7185 35.0105 18.4885 35.527 18.4885 36.0938C18.4885 36.6643 18.7167 37.1788 19.0858 37.5517C19.4568 37.9227 19.9688 38.152 20.5364 38.152C21.1022 38.152 21.6142 37.9208 21.9852 37.5498C22.3543 37.1788 22.5844 36.6624 22.5844 36.0938C22.5844 35.5233 22.3562 35.0087 21.9871 34.6358V34.6377Z" fill="#277EB8"/>
</svg>
