<svg width="50" height="50" viewBox="0 0 50 50" fill="none" xmlns="http://www.w3.org/2000/svg">
<path d="M34.3039 39.8003H14.8039C14.0239 39.8003 13.5039 39.2803 13.5039 38.5003V27.5803C13.5039 26.8003 14.0239 26.2803 14.8039 26.2803H34.3039C35.0839 26.2803 35.6039 26.8003 35.6039 27.5803V38.5003C35.6039 39.2803 35.0839 39.8003 34.3039 39.8003ZM16.1039 37.2003H33.0039V28.8803H16.1039V37.2003Z" fill="#277EB8"/>
<path d="M44.0539 19.39L40.1539 6.91C40.0239 6.39 39.5039 6 38.8539 6H10.2538C9.73385 6 9.21385 6.39 8.95385 6.91L5.05385 19.39C4.92385 19.78 5.05385 20.17 5.18385 20.56C5.44385 20.95 5.83385 21.08 6.22385 21.08C6.74385 21.08 7.00385 21.34 7.52385 21.86C7.65385 22.12 7.91385 22.38 8.17385 22.51V43.7C8.17385 44.48 8.82385 45 9.47385 45H39.3738C40.0238 45 40.6738 44.48 40.6738 43.7V22.51C40.9338 22.25 41.0639 21.99 41.3239 21.86C41.8439 21.21 42.1039 21.08 42.6239 21.08C43.0139 21.08 43.4039 20.82 43.6639 20.56C44.0539 20.17 44.1839 19.78 44.0539 19.39ZM38.2039 42.4H10.9038V23.68C12.5938 23.68 13.5038 22.64 14.1538 21.86C14.6738 21.21 14.9338 21.08 15.4538 21.08C15.9738 21.08 16.2338 21.34 16.7538 21.86C17.4038 22.51 18.3138 23.68 20.0038 23.68C21.6938 23.68 22.6038 22.64 23.2538 21.86C23.7738 21.21 24.0338 21.08 24.5538 21.08C25.0738 21.08 25.3338 21.34 25.8538 21.86C26.5038 22.51 27.4138 23.68 29.1038 23.68C30.7938 23.68 31.7038 22.64 32.3538 21.86C32.8738 21.21 33.1338 21.08 33.6539 21.08C34.1739 21.08 34.4339 21.34 34.9539 21.86C35.6039 22.64 36.5139 23.68 38.2039 23.68V42.4ZM39.5039 20.17C38.9839 20.82 38.7239 21.08 38.2039 21.08C37.6839 21.08 37.4239 20.82 36.9039 20.17C36.2539 19.39 35.3439 18.48 33.6539 18.48C31.9639 18.48 31.0538 19.52 30.4038 20.17C29.8838 20.82 29.6238 21.08 29.1038 21.08C28.5838 21.08 28.3238 20.82 27.8038 20.17C27.1538 19.52 26.2438 18.48 24.5538 18.48C22.8638 18.48 21.9538 19.52 21.3038 20.17C20.7838 20.82 20.5238 21.08 20.0038 21.08C19.4838 21.08 19.2238 20.82 18.7038 20.17C18.0538 19.52 17.1438 18.48 15.4538 18.48C13.7638 18.48 12.8538 19.52 12.2038 20.17C11.6838 20.82 11.4238 21.08 10.9038 21.08C10.3838 21.08 10.1238 20.82 9.60385 20.17C9.21385 19.78 8.69385 19.13 8.04385 18.74L11.1638 8.6H37.8139L41.0639 18.74C40.4139 19.13 39.8939 19.65 39.5039 20.17Z" fill="#277EB8"/>
</svg>
