<svg width="320" height="320" viewBox="0 0 320 320" fill="none" xmlns="http://www.w3.org/2000/svg">
<path d="M264.658 283H65.9171C68.0949 267.704 72.1157 254.728 77.7856 250.878C86.0786 245.254 94.8548 260.718 103.13 254.903C107.831 251.603 111.532 241.987 115.421 234.001C130.092 203.871 150.199 194.966 167.56 210.914C176.635 219.246 184.904 233.816 194.2 240.011C206.221 248.025 218.792 241.378 231.154 240.284C243.194 239.219 260.445 252.731 264.658 283Z" fill="#F3F5FD"/>
<path d="M293.075 243.463C290.718 242.692 288.298 243.557 285.984 245.319C289.033 237.618 290.291 230.662 285.079 230.348C281.431 230.13 278.637 232.928 276.515 236.907C275.768 229.911 273.842 224.693 269.528 226.423C264.791 228.322 264.071 234.831 264.789 241.642C262.703 238.163 260.456 236.223 258.416 238.264C252.328 244.353 267.272 261.513 267.272 261.513C267.272 261.513 280.126 266.397 285.13 261.159C291.912 254.059 298.705 245.306 293.075 243.463Z" fill="#9FC6A3"/>
<path d="M286.421 283H265.417L261.901 258.474H289.937L286.421 283Z" fill="#C1D8ED"/>
<path d="M255.33 283H179.377C173.806 278.552 173.422 268.533 179.196 264.058C183.648 260.61 190.377 261.532 194.56 265.119C193.779 262.448 193.763 259.612 194.516 256.933C195.876 252.109 198.901 247.208 203.518 245.257C215.3 240.284 223.672 250.704 225.35 256.528C228.368 252.091 235.115 249.746 239.353 252.733C244.719 256.516 244.476 262.48 240.196 266.761C245.901 265.698 250.194 266.519 254.151 270.765C257.159 273.999 257.62 279.507 255.33 283Z" fill="#9FC6A3"/>
<path d="M105.299 283H29.348C23.7765 278.552 23.3922 268.533 29.1669 264.058C33.6181 260.61 40.347 261.532 44.5309 265.119C43.7492 262.449 43.7337 259.612 44.4861 256.933C45.8468 252.109 48.8709 247.208 53.4881 245.257C65.2707 240.284 73.6427 250.704 75.3207 256.528C78.3381 252.091 85.0859 249.746 89.3236 252.733C94.689 256.516 94.4462 262.48 90.1661 266.761C95.871 265.698 100.164 266.519 104.122 270.765C107.129 273.999 107.59 279.507 105.299 283Z" fill="#9FC6A3"/>
<path d="M149.763 279.926H248.041C255.567 279.926 261.668 273.823 261.668 266.296V53.7048C261.668 46.1771 255.567 40.0746 248.041 40.0746H149.763C142.237 40.0746 136.136 46.1771 136.136 53.7048L136.136 266.296C136.136 273.823 142.237 279.926 149.763 279.926Z" fill="white"/>
<path d="M133.062 266.296V53.7063C133.066 49.2774 134.827 45.0312 137.958 41.8993C141.089 38.7673 145.334 37.0054 149.761 37H248.04C252.468 37.0051 256.713 38.7667 259.844 41.8984C262.975 45.0301 264.736 49.2761 264.741 53.7049V266.294C264.736 270.723 262.975 274.969 259.844 278.1C256.713 281.232 252.468 282.994 248.04 282.999H149.761C145.334 282.993 141.09 281.232 137.959 278.101C134.828 274.969 133.067 270.724 133.062 266.296ZM149.761 43.1494C146.964 43.1526 144.281 44.2656 142.303 46.2445C140.324 48.2233 139.212 50.9063 139.208 53.7049V266.294C139.211 269.093 140.324 271.776 142.302 273.755C144.281 275.735 146.963 276.848 149.761 276.851H248.04C250.838 276.848 253.521 275.735 255.499 273.756C257.477 271.777 258.59 269.094 258.593 266.296V53.7063C258.59 50.9078 257.477 48.2248 255.499 46.2459C253.521 44.2671 250.838 43.154 248.04 43.1508L149.761 43.1494Z" fill="#DEE8F5"/>
<path d="M214.17 54.6777L183.633 54.6777C181.976 54.6777 180.386 54.0191 179.214 52.8468C178.042 51.6744 177.384 50.0844 177.384 48.4264V40.0747L220.42 40.0747V48.4264C220.42 50.0844 219.761 51.6744 218.589 52.8468C217.417 54.0191 215.828 54.6777 214.17 54.6777Z" fill="#DEE8F5"/>
<path d="M198.901 217.864C218.721 217.864 234.788 201.793 234.788 181.969C234.788 162.144 218.721 146.074 198.901 146.074C179.081 146.074 163.014 162.144 163.014 181.969C163.014 201.793 179.081 217.864 198.901 217.864Z" fill="#F3F5FD"/>
<path d="M198.901 195.297C201.625 195.297 203.834 193.089 203.834 190.364C203.834 187.639 201.625 185.43 198.901 185.43C196.177 185.43 193.969 187.639 193.969 190.364C193.969 193.089 196.177 195.297 198.901 195.297Z" fill="white"/>
<path d="M193.179 116.653L194.889 113.999C196.245 115.037 197.431 115.568 198.693 115.568C200.204 115.568 200.87 114.941 200.87 113.729C200.87 110.984 193.829 111.034 193.829 106.219C193.829 103.124 195.972 101.153 199.352 101.153C200.312 101.139 201.263 101.335 202.14 101.725C203.017 102.116 203.798 102.693 204.43 103.417L202.467 105.665C201.498 104.783 200.676 104.318 199.562 104.318C198.279 104.318 197.582 104.837 197.582 106.034C197.582 108.581 204.623 108.357 204.623 113.456C204.623 116.522 202.596 118.738 198.692 118.738C196.67 118.691 194.725 117.956 193.179 116.653ZM197.87 98.5359H200.472V102.378H197.87V98.5359ZM197.87 117.132H200.472V121.348H197.87V117.132Z" fill="white"/>
<path d="M227.635 118.032L227.609 95.0809C227.617 94.9417 227.596 94.8022 227.547 94.6717C227.498 94.5411 227.421 94.4225 227.323 94.3235C227.225 94.2246 227.107 94.1476 226.976 94.0976C226.846 94.0477 226.707 94.0259 226.567 94.0336L199.385 94.0597L172.203 94.0336C172.063 94.0261 171.924 94.048 171.794 94.0981C171.664 94.1481 171.546 94.2251 171.448 94.3241C171.35 94.423 171.273 94.5415 171.224 94.672C171.175 94.8024 171.154 94.9418 171.163 95.0809L171.137 118.032L171.134 121.458C171.126 121.598 171.148 121.737 171.197 121.868C171.247 121.999 171.323 122.118 171.422 122.217C171.521 122.316 171.639 122.393 171.77 122.443C171.9 122.493 172.04 122.515 172.179 122.507L176.952 122.512L192.926 122.527L192.929 122.538L199.387 122.533L205.843 122.539L205.846 122.528L221.82 122.513L226.591 122.506C226.73 122.513 226.87 122.492 227.001 122.441C227.131 122.391 227.249 122.314 227.348 122.215C227.447 122.116 227.523 121.997 227.573 121.867C227.622 121.736 227.644 121.596 227.636 121.457L227.635 118.032Z" fill="#9FC6A3"/>
<path opacity="0.47" d="M224.486 101.335C223.382 101.332 222.324 100.893 221.542 100.114C220.76 99.334 220.318 98.2768 220.313 97.1726L199.385 97.1903L178.457 97.1726C178.452 98.2768 178.01 99.334 177.228 100.114C176.446 100.893 175.388 101.332 174.284 101.335L174.27 115.209C174.743 115.209 175.212 115.291 175.657 115.451C176.188 115.64 176.674 115.934 177.089 116.315C177.504 116.696 177.838 117.157 178.071 117.67C178.317 118.208 178.443 118.794 178.439 119.386L192.07 119.399L192.073 119.41L199.385 119.404L206.697 119.41L206.7 119.399L220.331 119.386C220.327 118.794 220.453 118.208 220.699 117.67C220.933 117.157 221.267 116.696 221.681 116.315C222.096 115.934 222.583 115.64 223.113 115.451C223.558 115.291 224.028 115.209 224.5 115.209L224.486 101.335Z" fill="white"/>
<path d="M182.826 110.836C184.265 110.836 185.432 109.668 185.432 108.229C185.432 106.789 184.265 105.622 182.826 105.622C181.386 105.622 180.22 106.789 180.22 108.229C180.22 109.668 181.386 110.836 182.826 110.836Z" fill="#9FC6A3"/>
<path d="M215.944 110.836C217.383 110.836 218.55 109.668 218.55 108.229C218.55 106.789 217.383 105.622 215.944 105.622C214.504 105.622 213.338 106.789 213.338 108.229C213.338 109.668 214.504 110.836 215.944 110.836Z" fill="#9FC6A3"/>
<path d="M203.98 100.55C205.252 101.281 206.318 102.321 207.08 103.574C207.842 104.828 208.275 106.253 208.338 107.719C208.377 109.157 208.338 110.835 206.821 113.273C206.032 114.482 204.944 115.466 203.662 116.129C203.122 116.426 202.55 116.663 201.958 116.833C201.124 117.085 200.257 117.213 199.385 117.21C197.809 117.21 196.261 116.794 194.897 116.003C193.534 115.213 192.403 114.076 191.619 112.708C190.838 111.366 190.425 109.841 190.423 108.288C190.42 108.271 190.423 108.255 190.421 108.239C190.426 105.861 191.374 103.581 193.057 101.901C194.739 100.221 197.019 99.2759 199.397 99.2743C199.559 99.2779 199.72 99.2813 199.88 99.2923C201.33 99.3627 202.74 99.7951 203.98 100.55Z" fill="#9FC6A3"/>
<path d="M198.841 113.792V112.473C198.422 112.42 198.011 112.311 197.621 112.149C197.217 111.99 196.844 111.76 196.521 111.468L197.366 110.163C197.66 110.394 197.981 110.587 198.322 110.738C198.616 110.864 198.932 110.929 199.252 110.93C199.54 110.954 199.828 110.875 200.063 110.707C200.154 110.618 200.224 110.511 200.269 110.392C200.313 110.274 200.331 110.147 200.321 110.02C200.323 109.911 200.301 109.802 200.256 109.702C200.212 109.602 200.147 109.512 200.065 109.44C199.868 109.263 199.651 109.11 199.418 108.984C199.159 108.839 198.881 108.694 198.583 108.55C198.286 108.406 198.006 108.231 197.746 108.028C197.491 107.83 197.272 107.589 197.1 107.315C196.921 107.012 196.832 106.664 196.844 106.312C196.822 105.727 197.012 105.154 197.379 104.697C197.757 104.258 198.278 103.966 198.85 103.874V102.515H200.13V103.847C200.521 103.899 200.898 104.029 201.237 104.231C201.553 104.425 201.841 104.661 202.094 104.933L201.117 106.04C200.913 105.843 200.682 105.677 200.431 105.544C200.197 105.431 199.94 105.373 199.68 105.377C199.423 105.36 199.167 105.43 198.954 105.575C198.865 105.656 198.796 105.756 198.752 105.868C198.709 105.981 198.692 106.101 198.703 106.221C198.702 106.324 198.725 106.426 198.769 106.518C198.814 106.611 198.879 106.692 198.96 106.756C199.158 106.919 199.375 107.059 199.606 107.172C199.865 107.304 200.144 107.441 200.443 107.582C200.74 107.722 201.02 107.895 201.278 108.097C201.537 108.299 201.756 108.548 201.924 108.83C202.105 109.154 202.194 109.521 202.18 109.892C202.195 110.477 202.013 111.051 201.665 111.521C201.277 112 200.728 112.321 200.121 112.423V113.793L198.841 113.792Z" fill="white"/>
<path d="M108.043 88.4902C108.043 88.4902 111.835 86.8613 111.835 76.8982L119.456 76.1215C119.456 76.1215 117.885 84.925 121.452 88.0525L108.043 88.4902Z" fill="#EEAF96"/>
<path d="M107.89 72.7115C108.163 75.757 109.568 78.7346 112.137 79.9215C114.929 81.3042 118.018 81.9825 121.132 81.897C129.406 81.897 129.312 63.0724 125.708 59.1219C122.105 55.1715 110.464 56.5311 108.574 62.4895C107.596 65.5713 107.629 69.8155 107.89 72.7115Z" fill="#EEAF96"/>
<path d="M99.9075 279.082C99.9075 279.082 99.9405 268.826 99.9405 267.918H90.0395C90.0395 268.823 90.0065 279.05 90.0065 279.05L99.9075 279.082Z" fill="#E98862"/>
<path d="M111.943 282.912C112.21 282.911 112.473 282.855 112.716 282.747C112.96 282.64 113.179 282.483 113.359 282.287C113.54 282.091 113.678 281.86 113.765 281.608C113.852 281.357 113.886 281.09 113.865 280.824C113.836 280.456 113.703 280.104 113.481 279.809C113.259 279.514 112.957 279.289 112.611 279.16L101.088 275.299C100.864 275.225 100.628 275.201 100.394 275.227C100.16 275.252 99.9351 275.329 99.7335 275.45C98.1493 276.549 96.2541 277.111 94.3266 277.053C92.8254 276.947 91.3843 276.42 90.1677 275.534C90.0609 275.446 89.9312 275.391 89.794 275.374C89.6567 275.357 89.5175 275.379 89.3926 275.439C89.2676 275.498 89.1622 275.592 89.0885 275.709C89.0148 275.826 88.9759 275.961 88.9763 276.1V281.736C88.9763 281.902 89.009 282.067 89.0728 282.221C89.1366 282.374 89.23 282.514 89.3478 282.631C89.4656 282.748 89.6055 282.841 89.7593 282.904C89.9131 282.968 90.0779 283 90.2441 282.999L111.943 282.912Z" fill="#C1D8ED"/>
<path d="M139.358 277.898C140.402 269.118 140.402 268.215 140.402 267.918H130.501C130.501 267.888 130.501 267.849 130.503 267.802C130.469 268.536 129.969 273.006 129.526 276.728L139.358 277.898Z" fill="#E98862"/>
<path d="M104.837 275.678L87.4553 274.209C89.5732 241.804 96.1248 137.077 96.1248 137.077L131.993 139.293L132.362 141.807L132.488 141.77C136.694 164.069 138.483 188.698 141.893 211.155C142.132 231.952 142.199 253.735 143.012 274.476L125.57 274.773C125.625 254.529 125.123 233.347 124.527 213.043C121.551 196.85 119.221 179.905 115.798 163.554C112.807 197.228 107.988 243.515 104.837 275.678Z" fill="#262626"/>
<path d="M151.422 282.912C151.688 282.911 151.951 282.855 152.195 282.747C152.438 282.64 152.657 282.483 152.838 282.287C153.018 282.091 153.156 281.86 153.243 281.608C153.33 281.357 153.365 281.09 153.344 280.824C153.315 280.456 153.182 280.104 152.96 279.809C152.738 279.514 152.436 279.289 152.09 279.16L140.566 275.3C140.343 275.226 140.106 275.201 139.872 275.227C139.639 275.253 139.413 275.329 139.212 275.45C137.628 276.55 135.732 277.112 133.805 277.053C132.304 276.947 130.863 276.42 129.646 275.534C129.54 275.446 129.41 275.391 129.273 275.374C129.135 275.357 128.996 275.38 128.871 275.439C128.746 275.498 128.641 275.592 128.567 275.709C128.493 275.826 128.454 275.961 128.455 276.1V281.736C128.455 281.902 128.487 282.067 128.551 282.221C128.615 282.374 128.708 282.514 128.826 282.631C128.944 282.748 129.084 282.841 129.238 282.904C129.391 282.968 129.556 283 129.722 282.999L151.422 282.912Z" fill="#C1D8ED"/>
<path d="M82.525 158.21L88.1582 158.948C88.1582 160.353 88.8999 165.052 87.7066 165.387C87.253 165.515 86.7481 164.156 86.4388 163.143C85.2525 165.142 84.8093 169.933 84.6505 172.635C84.6396 172.814 84.5751 172.985 84.4655 173.127C84.3558 173.268 84.206 173.373 84.0356 173.428C83.8652 173.483 83.6822 173.486 83.5105 173.435C83.3387 173.385 83.1862 173.283 83.0729 173.145C78.6288 167.696 82.525 158.21 82.525 158.21Z" fill="#EEAF96"/>
<path d="M132.554 117.995C132.707 104.917 139.579 87.1066 123.937 86.4369C122.045 86.3553 112.808 86.3426 106.045 86.3426C101.502 86.3426 97.7717 87.7371 95.618 89.8917C88.1918 97.3196 97.3069 109.977 97.3069 119.884C97.3069 129.792 92.8278 134.229 93.1579 139.311C93.6765 147.303 132.492 145.414 134.47 140.875C136.506 136.191 132.373 133.307 132.554 117.995Z" fill="#277EB8"/>
<path d="M89.7759 160.548L93.6609 124.268L103.905 95.6809L94.2276 92.211L83.7778 121.376C83.64 121.759 83.5487 122.158 83.5057 122.563L79.5562 159.453L89.7759 160.548Z" fill="#277EB8"/>
<path d="M172.852 113.502C172.852 113.502 179.566 111.706 180.537 110.436C181.508 109.166 179.212 104.836 179.212 104.836C179.212 104.836 185.933 102.156 185.298 101.068C184.549 99.7832 176.147 104.279 176.147 104.279C176.147 104.279 177.986 102.146 177.101 101.57C176.737 101.334 176.259 101.583 174.885 103.061C173.321 104.745 170.623 107.13 170.623 107.13L172.852 113.502Z" fill="#EEAF96"/>
<path d="M148.017 121.871C148.509 121.871 148.998 121.8 149.47 121.66L175.217 114.068L172.311 104.205L149.782 110.847L131.535 89.2155L123.678 95.8469L144.088 120.043C144.57 120.615 145.172 121.076 145.851 121.391C146.529 121.707 147.269 121.871 148.017 121.871Z" fill="#277EB8"/>
<path d="M109.744 74.5173C109.744 74.5173 110.379 65.0061 113.199 64.4187C115.078 64.0275 119.632 66.7522 123.851 65.9293C125.697 65.5704 127.449 66.0364 127.627 66.9281C127.698 67.2812 128.848 62.2074 125.957 58.358C123.656 55.2923 116.125 54.4268 112.699 55.4317C103.213 58.215 107.399 71.0616 107.399 71.0616L107.822 74.3406L109.744 74.5173Z" fill="#0C0C0C"/>
<path d="M127.533 66.4333C127.533 66.4333 129.867 62.2964 128.102 55.8775C126.734 50.9078 123.738 55.8148 123.738 55.8148C123.738 55.8148 122.719 52.2457 120.408 53.6486C118.096 55.0515 118.262 59.1938 118.262 59.1938" fill="#0C0C0C"/>
<path d="M119.383 61.1066C120.648 60.2116 120.605 57.978 119.288 56.1177C117.971 54.2573 115.878 53.4747 114.614 54.3697C113.349 55.2646 113.392 57.4982 114.709 59.3585C116.026 61.2189 118.119 62.0015 119.383 61.1066Z" fill="#0C0C0C"/>
<path d="M120.93 78.4042C121.957 78.4731 122.98 78.1839 123.918 77.5599C123.937 77.5477 123.954 77.5299 123.969 77.5076C123.984 77.4854 123.996 77.459 124.003 77.4301C124.011 77.4011 124.015 77.3702 124.015 77.339C124.015 77.3079 124.01 77.2771 124.002 77.2484C123.994 77.2197 123.982 77.1937 123.967 77.1719C123.952 77.1501 123.934 77.1329 123.914 77.1213C123.895 77.1096 123.874 77.1038 123.853 77.1041C123.832 77.1045 123.811 77.111 123.792 77.1232C121.772 78.3977 119.939 78.2109 118.489 76.5834C118.46 76.5491 118.429 76.5171 118.398 76.4878C118.361 76.4628 118.32 76.4589 118.282 76.4769C118.243 76.4949 118.211 76.5334 118.191 76.585C118.171 76.6365 118.165 76.6972 118.174 76.7552C118.182 76.8132 118.205 76.8642 118.238 76.8983C118.25 76.9089 118.269 76.9307 118.294 76.9606C119.056 77.8194 119.974 78.3221 120.93 78.4042Z" fill="#0C0C0C"/>
<path d="M121.422 80.3476C121.593 80.3755 121.764 80.3646 121.934 80.3151C121.973 80.3041 122.009 80.2527 122.034 80.1719C122.058 80.0912 122.07 79.9879 122.066 79.8847C122.062 79.7815 122.042 79.6869 122.012 79.6216C121.981 79.5564 121.942 79.5259 121.903 79.5368C120.88 79.8251 120.391 78.5826 120.37 78.5292C120.343 78.4557 120.305 78.4143 120.266 78.4142C120.227 78.4141 120.189 78.4552 120.161 78.5285C120.134 78.6018 120.118 78.7013 120.118 78.8051C120.118 78.909 120.134 79.0086 120.161 79.0821C120.514 79.8771 120.959 80.3242 121.422 80.3476Z" fill="#0C0C0C"/>
<path d="M124.989 72.5689C125.527 72.5689 125.963 72.1327 125.963 71.5947C125.963 71.0566 125.527 70.6205 124.989 70.6205C124.451 70.6205 124.015 71.0566 124.015 71.5947C124.015 72.1327 124.451 72.5689 124.989 72.5689Z" fill="#0C0C0C"/>
<path d="M119.144 72.5689C119.682 72.5689 120.118 72.1327 120.118 71.5947C120.118 71.0566 119.682 70.6205 119.144 70.6205C118.606 70.6205 118.17 71.0566 118.17 71.5947C118.17 72.1327 118.606 72.5689 119.144 72.5689Z" fill="#0C0C0C"/>
<path d="M122.223 76.4655H122.236C122.902 76.4589 124.019 76.3767 124.015 75.8971C124.01 75.4997 122.835 71.2224 122.701 70.736C122.688 70.6956 122.659 70.6615 122.621 70.641C122.582 70.6205 122.537 70.6151 122.495 70.6259C122.452 70.6367 122.416 70.663 122.393 70.6991C122.37 70.7352 122.363 70.7784 122.373 70.8196C122.895 72.714 123.672 75.6305 123.676 75.9011C123.611 76.0153 122.923 76.1329 122.233 76.1397C122.189 76.1406 122.148 76.1576 122.117 76.187C122.086 76.2165 122.068 76.2563 122.067 76.2981C122.065 76.34 122.081 76.3807 122.11 76.4119C122.139 76.4431 122.179 76.4624 122.223 76.4658V76.4655Z" fill="#0C0C0C"/>
<path d="M124.139 66.8934C124.458 66.667 124.795 66.667 125.114 66.8934C125.271 67.002 125.421 67.1708 125.558 67.3941C125.694 67.6126 125.819 67.8746 125.929 68.1736C125.95 68.2264 125.962 68.2984 125.963 68.3742C125.964 68.45 125.953 68.5236 125.933 68.5792C125.913 68.6348 125.886 68.668 125.856 68.6717C125.827 68.6754 125.798 68.6493 125.776 68.599L125.769 68.5836C125.667 68.34 125.553 68.1305 125.431 67.9599C125.311 67.7903 125.181 67.6686 125.047 67.5987C124.782 67.4559 124.508 67.4954 124.251 67.7134L124.241 67.7232C124.198 67.7617 124.152 67.7554 124.111 67.7055C124.071 67.6557 124.04 67.5664 124.025 67.4573C124.01 67.3483 124.012 67.2284 124.031 67.124C124.051 67.0196 124.085 66.9393 124.128 66.9007L124.139 66.8934Z" fill="#0C0C0C"/>
<path d="M119.614 68.1702C119.137 67.7884 118.608 67.6209 118.079 67.6849C117.811 67.7136 117.547 67.8092 117.296 67.9684C117.041 68.1281 116.799 68.3398 116.576 68.5986L116.562 68.6144C116.514 68.665 116.456 68.6832 116.4 68.6653C116.344 68.6474 116.295 68.5947 116.262 68.5182C116.229 68.4417 116.215 68.3472 116.223 68.2545C116.232 68.1617 116.261 68.0778 116.306 68.0201C116.551 67.6955 116.82 67.4232 117.106 67.2096C117.396 66.9914 117.704 66.846 118.02 66.7781C118.664 66.6333 119.32 66.7782 119.918 67.1973C119.999 67.2554 120.062 67.364 120.095 67.4995C120.127 67.6349 120.126 67.7859 120.09 67.9194C120.055 68.0529 119.989 68.1579 119.907 68.2112C119.825 68.2645 119.733 68.2619 119.652 68.2039L119.634 68.1894L119.614 68.1702Z" fill="#0C0C0C"/>
<path d="M178.885 172.762C178.786 172.762 178.691 172.723 178.621 172.653C178.551 172.583 178.512 172.488 178.512 172.389V165.471C178.513 164.526 178.888 163.62 179.555 162.952C180.223 162.284 181.127 161.908 182.071 161.907H188.982C189.079 161.91 189.172 161.95 189.24 162.02C189.308 162.09 189.346 162.183 189.346 162.281C189.346 162.378 189.308 162.472 189.24 162.542C189.172 162.612 189.079 162.652 188.982 162.654H182.071C181.325 162.655 180.61 162.952 180.083 163.48C179.556 164.008 179.259 164.724 179.258 165.471V172.389C179.258 172.488 179.219 172.583 179.149 172.653C179.079 172.723 178.984 172.762 178.885 172.762Z" fill="#292A2E"/>
<path d="M188.981 201.175H182.071C181.127 201.174 180.223 200.798 179.555 200.13C178.888 199.462 178.513 198.556 178.512 197.611V190.694C178.511 190.644 178.519 190.594 178.537 190.548C178.556 190.502 178.583 190.459 178.618 190.424C178.653 190.388 178.694 190.36 178.74 190.34C178.786 190.321 178.835 190.311 178.885 190.311C178.935 190.311 178.984 190.321 179.03 190.34C179.076 190.36 179.117 190.388 179.152 190.424C179.187 190.459 179.214 190.502 179.232 190.548C179.25 190.594 179.259 190.644 179.258 190.694V197.611C179.259 198.358 179.555 199.074 180.083 199.602C180.61 200.13 181.325 200.427 182.071 200.428H188.981C189.079 200.43 189.171 200.47 189.239 200.54C189.308 200.61 189.346 200.704 189.346 200.801C189.346 200.899 189.308 200.993 189.239 201.062C189.171 201.132 189.079 201.173 188.981 201.175Z" fill="#292A2E"/>
<path d="M217.356 172.762C217.257 172.762 217.162 172.723 217.092 172.653C217.022 172.583 216.983 172.488 216.982 172.389V165.471C216.982 164.724 216.685 164.008 216.158 163.48C215.631 162.952 214.916 162.655 214.17 162.654H207.259C207.21 162.656 207.16 162.647 207.114 162.629C207.067 162.61 207.025 162.583 206.99 162.548C206.954 162.513 206.926 162.472 206.906 162.426C206.887 162.38 206.877 162.331 206.877 162.281C206.877 162.231 206.887 162.182 206.906 162.136C206.926 162.09 206.954 162.048 206.99 162.013C207.025 161.978 207.067 161.951 207.114 161.933C207.16 161.915 207.21 161.906 207.259 161.907H214.17C215.113 161.908 216.018 162.284 216.685 162.952C217.352 163.62 217.728 164.526 217.729 165.471V172.389C217.729 172.488 217.689 172.583 217.619 172.653C217.55 172.723 217.455 172.762 217.356 172.762Z" fill="#292A2E"/>
<path d="M214.17 201.175H207.259C207.21 201.176 207.16 201.167 207.114 201.149C207.067 201.131 207.025 201.104 206.99 201.069C206.954 201.034 206.926 200.992 206.906 200.946C206.887 200.901 206.877 200.851 206.877 200.801C206.877 200.752 206.887 200.702 206.906 200.656C206.926 200.61 206.954 200.569 206.99 200.534C207.025 200.499 207.067 200.472 207.114 200.454C207.16 200.435 207.21 200.427 207.259 200.428H214.17C214.916 200.427 215.631 200.13 216.158 199.602C216.685 199.074 216.982 198.358 216.982 197.611V190.694C216.981 190.644 216.99 190.594 217.008 190.548C217.027 190.502 217.054 190.459 217.089 190.424C217.123 190.388 217.165 190.36 217.211 190.34C217.257 190.321 217.306 190.311 217.356 190.311C217.405 190.311 217.455 190.321 217.501 190.34C217.546 190.36 217.588 190.388 217.623 190.424C217.657 190.459 217.685 190.502 217.703 190.548C217.721 190.594 217.73 190.644 217.729 190.694V197.611C217.728 198.556 217.352 199.462 216.685 200.13C216.018 200.798 215.114 201.174 214.17 201.175Z" fill="#292A2E"/>
<path d="M194.531 194.38C194.448 194.38 194.368 194.353 194.302 194.302C194.237 194.251 194.19 194.18 194.17 194.1C194.149 194.019 194.156 193.934 194.189 193.858C194.222 193.782 194.279 193.719 194.351 193.679C198.444 191.433 196.704 186.749 196.628 186.551C196.595 186.459 196.599 186.357 196.639 186.268C196.68 186.179 196.753 186.11 196.845 186.075C196.936 186.039 197.037 186.041 197.127 186.08C197.216 186.119 197.287 186.191 197.324 186.282C197.346 186.336 199.379 191.772 194.71 194.335C194.655 194.365 194.594 194.381 194.531 194.38Z" fill="#78B07E"/>
<path d="M196.474 196.316C196.39 196.316 196.309 196.288 196.243 196.236C196.177 196.185 196.131 196.112 196.111 196.031C196.091 195.949 196.099 195.864 196.134 195.788C196.169 195.711 196.228 195.649 196.303 195.611C196.51 195.503 201.303 192.925 199.741 186.162C199.554 185.351 199.033 184.328 198.133 183.891C197.47 183.569 196.689 183.615 195.812 184.028C194.646 184.576 194.743 185.955 194.854 187.552C194.988 189.485 195.141 191.676 192.748 192.475C191.278 192.965 190.376 192.518 189.877 192.056C188.184 190.486 188.451 186.455 189.192 183.479C189.656 181.673 190.746 180.09 192.268 179.016C193.791 177.941 195.645 177.445 197.5 177.615C203.747 178.116 206.336 181.739 206.157 189.73C206.156 189.779 206.146 189.828 206.127 189.873C206.107 189.918 206.079 189.959 206.043 189.993C206.008 190.027 205.966 190.054 205.919 190.071C205.873 190.089 205.824 190.097 205.775 190.095C205.726 190.094 205.678 190.083 205.633 190.063C205.588 190.043 205.547 190.015 205.514 189.979C205.48 189.944 205.453 189.902 205.435 189.856C205.418 189.811 205.409 189.762 205.41 189.713C205.581 182.117 203.272 178.828 197.441 178.36C195.762 178.205 194.084 178.654 192.705 179.625C191.327 180.596 190.338 182.026 189.917 183.66C189.018 187.262 189.205 190.415 190.384 191.507C190.902 191.987 191.597 192.071 192.511 191.766C194.356 191.15 194.242 189.507 194.109 187.604C193.99 185.89 193.866 184.118 195.494 183.352C196.585 182.838 197.582 182.794 198.458 183.219C199.595 183.772 200.242 185.015 200.468 185.994C202.165 193.341 196.699 196.247 196.644 196.275C196.591 196.302 196.533 196.316 196.474 196.316Z" fill="#78B07E"/>
<path d="M202.143 193.558C202.084 193.558 202.027 193.544 201.975 193.518C201.923 193.492 201.878 193.454 201.843 193.407C201.808 193.36 201.785 193.305 201.775 193.248C201.765 193.19 201.769 193.131 201.786 193.075C203.215 188.378 202.856 184.38 200.825 182.379C199.582 181.156 197.821 180.83 195.865 181.463C190.944 183.054 192.116 189.837 192.129 189.906C192.145 190.003 192.122 190.102 192.066 190.182C192.01 190.262 191.924 190.317 191.828 190.334C191.731 190.352 191.632 190.331 191.551 190.276C191.47 190.221 191.414 190.136 191.395 190.04C191.381 189.966 190.091 182.545 195.636 180.752C197.87 180.029 199.898 180.418 201.348 181.846C203.581 184.045 204.011 188.324 202.499 193.293C202.476 193.37 202.429 193.437 202.365 193.485C202.301 193.532 202.223 193.558 202.143 193.558Z" fill="#78B07E"/>
<path d="M206.1 179.96C206.038 179.96 205.978 179.945 205.923 179.916C205.869 179.887 205.823 179.844 205.789 179.793C204.04 177.152 202.122 176.81 199.469 176.336C198.543 176.171 197.492 175.983 196.345 175.677C192.605 174.681 189.832 171.715 189.715 171.589C189.648 171.516 189.613 171.42 189.616 171.321C189.62 171.222 189.663 171.128 189.736 171.061C189.808 170.994 189.905 170.958 190.004 170.962C190.103 170.966 190.196 171.009 190.263 171.081C190.29 171.111 193.01 174.016 196.536 174.955C197.654 175.253 198.688 175.437 199.6 175.601C202.329 176.088 204.485 176.473 206.411 179.38C206.448 179.436 206.469 179.502 206.473 179.569C206.476 179.636 206.461 179.703 206.429 179.763C206.397 179.823 206.349 179.872 206.292 179.907C206.234 179.942 206.168 179.96 206.1 179.96Z" fill="#78B07E"/>
<path d="M188.581 179.524C188.491 179.524 188.403 179.491 188.335 179.431C188.267 179.371 188.223 179.288 188.212 179.198C188.2 179.108 188.222 179.017 188.272 178.941C188.323 178.866 188.399 178.812 188.487 178.789C189.442 178.537 191.892 177.613 191.758 176.373C191.594 174.85 188.9 174.444 188.873 174.44C188.775 174.426 188.687 174.373 188.628 174.294C188.568 174.215 188.543 174.115 188.557 174.017C188.571 173.919 188.623 173.83 188.702 173.771C188.781 173.711 188.881 173.686 188.979 173.7C189.113 173.719 192.274 174.193 192.5 176.293C192.726 178.387 189.091 179.403 188.676 179.512C188.645 179.52 188.613 179.524 188.581 179.524Z" fill="#78B07E"/>
<path d="M190.016 177.229C190.004 177.229 189.992 177.229 189.98 177.227L188.678 177.105C188.628 177.101 188.58 177.088 188.535 177.066C188.491 177.043 188.452 177.012 188.419 176.974C188.387 176.936 188.363 176.892 188.348 176.845C188.333 176.797 188.328 176.747 188.332 176.697C188.337 176.648 188.351 176.6 188.375 176.556C188.398 176.512 188.43 176.473 188.469 176.442C188.508 176.41 188.552 176.387 188.6 176.373C188.648 176.359 188.698 176.355 188.747 176.361L190.05 176.483C190.146 176.492 190.234 176.537 190.297 176.61C190.361 176.682 190.393 176.776 190.389 176.872C190.385 176.969 190.343 177.059 190.274 177.126C190.204 177.192 190.112 177.229 190.016 177.229Z" fill="#78B07E"/>
<path d="M206.861 176.538C206.806 176.538 206.751 176.526 206.701 176.502C206.651 176.478 206.607 176.444 206.572 176.401C205.147 174.656 202.174 174.149 199.784 173.741C199.553 173.702 199.327 173.663 199.107 173.624C197.532 173.366 196.025 172.797 194.673 171.948C194.593 171.892 194.538 171.805 194.521 171.708C194.504 171.611 194.525 171.511 194.582 171.431C194.638 171.35 194.723 171.294 194.82 171.276C194.917 171.258 195.017 171.279 195.098 171.334C196.364 172.116 197.769 172.643 199.235 172.888C199.454 172.927 199.679 172.965 199.909 173.004C202.42 173.433 205.546 173.966 207.148 175.927C207.193 175.982 207.221 176.048 207.229 176.118C207.238 176.188 207.227 176.26 207.196 176.324C207.166 176.387 207.118 176.441 207.059 176.479C206.999 176.517 206.93 176.537 206.859 176.537L206.861 176.538Z" fill="#78B07E"/>
<path d="M205.452 172.699C205.37 172.699 205.291 172.672 205.226 172.623C204.348 171.954 203.345 171.841 202.075 171.699C201.13 171.611 200.192 171.456 199.269 171.234C199.221 171.222 199.176 171.201 199.137 171.172C199.098 171.142 199.065 171.105 199.04 171.063C199.015 171.021 198.998 170.974 198.991 170.926C198.984 170.877 198.986 170.828 198.998 170.78C199.011 170.733 199.032 170.688 199.061 170.649C199.09 170.609 199.127 170.576 199.169 170.551C199.211 170.526 199.258 170.509 199.306 170.502C199.355 170.495 199.404 170.498 199.452 170.51C200.342 170.723 201.247 170.872 202.159 170.956C203.489 171.105 204.637 171.233 205.679 172.027C205.741 172.075 205.787 172.14 205.81 172.215C205.833 172.29 205.831 172.37 205.806 172.444C205.782 172.518 205.734 172.582 205.671 172.628C205.607 172.674 205.531 172.698 205.453 172.698L205.452 172.699Z" fill="#78B07E"/>
<path d="M193.761 171.147C193.703 171.147 193.645 171.133 193.593 171.107C193.526 171.073 191.94 170.261 191.469 168.977C191.451 168.931 191.442 168.881 191.443 168.831C191.445 168.782 191.456 168.733 191.476 168.688C191.496 168.642 191.526 168.601 191.562 168.568C191.598 168.534 191.641 168.507 191.688 168.49C191.734 168.473 191.784 168.466 191.833 168.468C191.883 168.47 191.932 168.482 191.976 168.504C192.021 168.525 192.061 168.555 192.094 168.592C192.128 168.629 192.153 168.672 192.169 168.719C192.538 169.725 193.915 170.433 193.929 170.44C194.004 170.478 194.064 170.54 194.099 170.616C194.134 170.692 194.143 170.778 194.124 170.86C194.104 170.942 194.058 171.014 193.992 171.066C193.926 171.118 193.845 171.147 193.761 171.147Z" fill="#78B07E"/>
<path d="M198.04 170.685C198.015 170.685 197.99 170.682 197.966 170.677C196.079 170.297 193.779 168.084 193.682 167.99C193.614 167.92 193.575 167.827 193.575 167.729C193.574 167.631 193.612 167.537 193.68 167.467C193.748 167.397 193.84 167.356 193.938 167.354C194.035 167.351 194.13 167.387 194.201 167.453C194.223 167.475 196.441 169.608 198.113 169.944C198.203 169.963 198.284 170.014 198.339 170.089C198.394 170.163 198.42 170.255 198.411 170.348C198.401 170.44 198.358 170.525 198.29 170.588C198.221 170.65 198.132 170.684 198.04 170.685Z" fill="#78B07E"/>
<path d="M203.086 169.612C199.211 169.612 197.332 167.677 197.252 167.592C197.185 167.52 197.149 167.424 197.152 167.326C197.155 167.227 197.197 167.134 197.268 167.066C197.339 166.999 197.434 166.962 197.532 166.964C197.631 166.966 197.724 167.006 197.793 167.077C197.821 167.106 199.669 168.976 203.426 168.859C203.524 168.858 203.619 168.895 203.69 168.963C203.761 169.03 203.802 169.123 203.805 169.221C203.808 169.32 203.772 169.415 203.706 169.487C203.639 169.559 203.547 169.602 203.449 169.606C203.326 169.61 203.205 169.612 203.086 169.612Z" fill="#78B07E"/>
</svg>
