<svg width="320" height="320" viewBox="0 0 320 320" fill="none" xmlns="http://www.w3.org/2000/svg">
<path d="M296.597 278H24C26.9868 268.391 32.503 260.239 40.2788 257.82C51.6538 254.288 63.6915 264.002 75.041 260.349C81.4891 258.276 86.5654 252.235 91.8996 247.217C112.025 228.29 139.601 222.696 163.415 232.715C175.862 237.949 187.204 247.102 199.955 250.992C216.443 256.026 233.686 251.851 250.642 251.163C267.156 250.496 290.817 258.985 296.597 278Z" fill="#F3F5FD"/>
<path d="M126.9 75.3914L119.621 88.0539L123.13 90.0711L130.409 77.4086L126.9 75.3914Z" fill="#0CBC8B"/>
<path d="M79.8485 131.044L72.5693 143.706L76.0783 145.724L83.3575 133.061L79.8485 131.044Z" fill="#0CBC8B"/>
<path d="M255.232 117.744L249.915 131.347L253.685 132.82L259.002 119.217L255.232 117.744Z" fill="#277EB8"/>
<path d="M131.327 144.144L127.905 146.304L135.699 158.656L139.122 156.496L131.327 144.144Z" fill="#0CBC8B"/>
<path d="M173.007 213.51L160.876 221.645L163.131 225.006L175.261 216.871L173.007 213.51Z" fill="#277EB8"/>
<path d="M161.542 96.2403L159.115 99.4801L170.805 108.236L173.232 104.997L161.542 96.2403Z" fill="#0CBC8B"/>
<path d="M241.612 56.1661L238.104 58.1832L245.383 70.8458L248.892 68.8286L241.612 56.1661Z" fill="#277EB8"/>
<path d="M89.5429 90.6744L79.7986 101.555L82.8136 104.255L92.5579 93.3747L89.5429 90.6744Z" fill="#277EB8"/>
<path d="M58.2322 161.906L54.3557 163.068L58.5499 177.058L62.4264 175.896L58.2322 161.906Z" fill="#277EB8"/>
<path d="M58.279 186.917L44.4838 176.43C44.1806 176.2 43.8327 176.036 43.4624 175.947C43.0921 175.858 42.7074 175.848 42.3329 175.916C41.9583 175.984 41.602 176.13 41.2868 176.343C40.9715 176.557 40.7041 176.834 40.5016 177.156C40.1464 177.763 40.0292 178.48 40.1727 179.169C40.3162 179.857 40.7101 180.468 41.2782 180.882L44.2363 183.131L31.6893 180.33C30.3 179.994 28.3795 180.471 28.1058 182.054C27.9606 182.657 28.0239 183.291 28.2853 183.853C28.5467 184.415 28.9908 184.872 29.5451 185.149C29.5387 185.161 29.5336 185.174 29.53 185.187C29.5292 185.198 29.5292 185.208 29.53 185.219L27.3868 184.701C26.9898 184.605 26.5765 184.599 26.1769 184.684C25.7774 184.768 25.4017 184.94 25.0772 185.188C24.7527 185.436 24.4876 185.753 24.3013 186.117C24.115 186.48 24.0121 186.881 24.0001 187.289C23.9942 187.932 24.2092 188.558 24.6093 189.061C25.0093 189.565 25.5701 189.916 26.1979 190.055L27.1086 190.275C27.1146 190.305 27.1255 190.333 27.141 190.358C26.4903 190.353 25.8589 190.578 25.3595 190.996C24.8601 191.413 24.5253 191.994 24.415 192.635C24.3148 193.34 24.4841 194.057 24.8892 194.643C25.2944 195.229 25.9055 195.64 26.6006 195.795L28.8662 196.342C28.8289 196.357 28.7957 196.381 28.7693 196.411C28.7429 196.441 28.7241 196.477 28.7144 196.516C28.7053 196.563 28.7101 196.612 28.728 196.657C28.1471 196.812 27.6333 197.155 27.2659 197.631C26.8984 198.107 26.6975 198.691 26.6942 199.292C26.7036 199.924 26.9259 200.534 27.3251 201.023C27.7243 201.513 28.2771 201.854 28.894 201.99L48.005 206.607C50.6787 207.253 53.4842 207.085 56.0621 206.126C58.64 205.167 60.8729 203.461 62.4747 201.225C63.8556 199.297 64.4303 196.906 64.0766 194.561C63.7229 192.216 62.4686 190.101 60.5804 188.666L58.279 186.917Z" fill="#EEAF96"/>
<g opacity="0.2">
<path d="M41.951 187.983C41.935 188.047 41.8946 188.102 41.8384 188.137C41.7821 188.172 41.7145 188.183 41.65 188.169L29.7201 185.487C29.6877 185.48 29.6571 185.466 29.6299 185.447C29.6027 185.428 29.5796 185.404 29.5618 185.376C29.5441 185.347 29.5321 185.316 29.5264 185.283C29.5207 185.251 29.5216 185.217 29.5289 185.185C29.5362 185.152 29.5498 185.122 29.569 185.094C29.5881 185.067 29.6125 185.044 29.6406 185.026C29.6687 185.009 29.7 184.997 29.7327 184.991C29.7655 184.985 29.799 184.986 29.8315 184.993L41.7608 187.675C41.7933 187.682 41.8241 187.696 41.8514 187.715C41.8786 187.734 41.9018 187.759 41.9195 187.787C41.9373 187.815 41.9493 187.847 41.9549 187.879C41.9605 187.912 41.9595 187.946 41.952 187.978L41.951 187.983Z" fill="#0C0C0C"/>
</g>
<g opacity="0.2">
<path d="M40.9144 193.277C40.8985 193.342 40.8576 193.397 40.8008 193.432C40.744 193.467 40.6757 193.478 40.6109 193.463L27.2973 190.473C27.2647 190.465 27.234 190.452 27.2067 190.432C27.1795 190.413 27.1563 190.389 27.1385 190.361C27.1208 190.332 27.1088 190.301 27.1032 190.268C27.0976 190.235 27.0986 190.202 27.106 190.169C27.1228 190.105 27.1636 190.049 27.22 190.013C27.2764 189.978 27.3442 189.965 27.4096 189.978L40.7232 192.968C40.7557 192.975 40.7865 192.989 40.8137 193.008C40.841 193.027 40.8641 193.052 40.8819 193.08C40.8997 193.108 40.9117 193.14 40.9173 193.172C40.9229 193.205 40.9219 193.239 40.9144 193.271V193.277Z" fill="#0C0C0C"/>
</g>
<g opacity="0.2">
<path d="M39.8251 199.017C39.8091 199.081 39.7687 199.137 39.7124 199.172C39.6562 199.206 39.5885 199.218 39.524 199.203L28.9041 196.818C28.8386 196.803 28.7816 196.763 28.7457 196.707C28.7098 196.65 28.6979 196.581 28.7126 196.516C28.7272 196.45 28.7674 196.393 28.8241 196.357C28.8808 196.321 28.9494 196.31 29.0149 196.324L39.6348 198.709C39.6674 198.716 39.6983 198.73 39.7256 198.749C39.7529 198.768 39.7761 198.793 39.7939 198.821C39.8118 198.849 39.8238 198.881 39.8294 198.914C39.835 198.947 39.8341 198.98 39.8266 199.013L39.8251 199.017Z" fill="#0C0C0C"/>
</g>
<path d="M173.877 99.395C173.877 99.395 167.608 92.3539 168.335 79.1679C168.898 68.9582 176.773 77.215 176.773 77.215C176.773 77.215 177.25 69.8673 182.322 71.6169C187.393 73.3664 188.818 81.4683 188.818 81.4683" fill="#0C0C0C"/>
<path d="M209.114 77.8277C209.114 77.8277 234.438 85.7601 218.094 118.96L215.774 118.656L211.064 118.042" fill="#0C0C0C"/>
<path d="M173.089 153.575C173.205 153.559 174.492 174.92 199.307 173.058C216.486 171.771 222.611 153.545 223.005 153.545C221.153 153.151 218.034 152.578 217.211 152.139C214.506 150.686 211.159 149.174 210.287 143.92C209.784 140.892 210.637 125.403 210.375 122.339L184.005 128.225C184.374 134.695 186.952 149.694 177.913 152.348C176.41 152.787 174.788 153.191 173.089 153.575Z" fill="#EEAF96"/>
<path opacity="0.52" d="M183.635 146.219C184.048 144.888 184.314 143.515 184.428 142.126C184.718 138.956 184.661 135.764 184.256 132.607C189.616 131.884 194.665 129.672 198.83 126.222C199.32 128.03 202.013 135.932 201.267 137.65C199.858 140.899 193.235 146.219 183.635 146.219Z" fill="#0C0C0C"/>
<path d="M186.797 138.985C197.182 140.104 210.677 136.091 213.615 122.277L216.265 109.813C219.199 96.0007 214.327 83.2578 201.32 80.4929C188.313 77.728 176.211 86.86 173.274 100.674L172.101 106.192C171.732 108.094 171.492 110.018 171.384 111.953C171.06 117.063 170.589 124.836 172.947 130.628C175.173 136.096 180.163 138.27 186.797 138.985Z" fill="#EEAF96"/>
<path d="M178.548 107.161C179.453 107.161 180.186 106.428 180.186 105.523C180.186 104.619 179.453 103.886 178.548 103.886C177.644 103.886 176.911 104.619 176.911 105.523C176.911 106.428 177.644 107.161 178.548 107.161Z" fill="#0C0C0C"/>
<path d="M194.103 108.799C195.007 108.799 195.74 108.065 195.74 107.161C195.74 106.257 195.007 105.523 194.103 105.523C193.198 105.523 192.465 106.257 192.465 107.161C192.465 108.065 193.198 108.799 194.103 108.799Z" fill="#0C0C0C"/>
<path d="M211.912 126.314C215.865 127.154 219.968 123.607 220.809 119.654C221.649 115.701 218.908 112.841 214.956 112L212.356 114.216L208.514 125.592L211.912 126.314Z" fill="#EEAF96"/>
<path d="M209.242 119.161C209.242 119.161 211.81 99.2974 206.109 96.9028C202.314 95.3081 191.596 99.0085 183.044 95.5413C179.304 94.0235 175.419 94.2512 174.678 96.0134C174.384 96.711 174.045 85.7759 181.716 79.0571C187.824 73.7074 204.047 75.0871 210.853 78.5972C229.699 88.3156 215.603 113.026 215.603 113.026L213.365 119.603L209.242 119.161Z" fill="#0C0C0C"/>
<g opacity="0.52">
<path d="M182.809 120.582L182.783 120.578C181.508 120.31 179.401 119.718 179.6 118.766C179.766 117.976 183.717 109.903 184.168 108.985C184.207 108.906 184.275 108.846 184.359 108.817C184.442 108.789 184.533 108.794 184.612 108.833C184.691 108.872 184.751 108.94 184.78 109.024C184.808 109.107 184.802 109.198 184.764 109.277C183.011 112.852 180.362 118.365 180.249 118.902C180.327 119.155 181.599 119.651 182.918 119.928C183.001 119.947 183.074 119.996 183.121 120.067C183.169 120.137 183.187 120.223 183.173 120.307C183.159 120.391 183.114 120.466 183.046 120.517C182.978 120.568 182.893 120.591 182.809 120.582Z" fill="#0C0C0C"/>
</g>
<path d="M182.515 100.4C181.263 99.7684 179.863 99.4858 178.464 99.5822C177.776 99.6255 177.099 99.7716 176.455 100.016C175.817 100.254 175.213 100.573 174.655 100.963C174.562 101.022 174.496 101.116 174.471 101.224C174.446 101.331 174.465 101.444 174.523 101.539C174.581 101.633 174.673 101.7 174.781 101.727C174.888 101.753 175.001 101.736 175.096 101.68L175.126 101.663C175.637 101.346 176.186 101.094 176.76 100.914C177.326 100.733 177.916 100.639 178.51 100.636C179.685 100.618 180.842 100.912 181.867 101.486L181.905 101.509C181.977 101.551 182.056 101.58 182.139 101.591C182.222 101.603 182.306 101.599 182.387 101.578C182.467 101.557 182.543 101.521 182.61 101.47C182.677 101.42 182.733 101.357 182.775 101.285C182.817 101.213 182.845 101.134 182.856 101.051C182.867 100.968 182.862 100.884 182.841 100.803C182.82 100.723 182.783 100.647 182.732 100.581C182.681 100.514 182.618 100.459 182.546 100.417L182.515 100.4Z" fill="#0C0C0C"/>
<path d="M191.879 102.931C193.017 102.64 194.211 102.653 195.342 102.971C195.914 103.128 196.46 103.371 196.961 103.69C197.469 104.012 197.935 104.396 198.348 104.834L198.371 104.857C198.449 104.933 198.553 104.975 198.661 104.976C198.77 104.977 198.875 104.935 198.954 104.861C199.033 104.786 199.08 104.684 199.085 104.575C199.09 104.467 199.053 104.36 198.982 104.278C198.544 103.758 198.041 103.295 197.487 102.901C196.927 102.499 196.31 102.184 195.656 101.966C194.329 101.512 192.904 101.425 191.531 101.713C191.45 101.73 191.373 101.764 191.305 101.811C191.237 101.859 191.178 101.919 191.134 101.989C191.043 102.13 191.012 102.302 191.048 102.466C191.083 102.63 191.183 102.773 191.324 102.864C191.466 102.955 191.637 102.985 191.801 102.95L191.833 102.942L191.879 102.931Z" fill="#0C0C0C"/>
<path d="M180.805 123.646C184.493 124.568 188.384 124.234 191.862 122.697C191.982 122.645 192.115 122.627 192.245 122.648C192.375 122.668 192.497 122.725 192.596 122.811C192.695 122.898 192.767 123.011 192.804 123.137C192.841 123.263 192.841 123.397 192.805 123.524C192.158 125.685 190.336 129.544 185.616 129.225C182.568 129.019 180.818 126.334 180 124.612C179.944 124.493 179.922 124.36 179.939 124.228C179.956 124.097 180.009 123.974 180.094 123.872C180.179 123.771 180.29 123.695 180.416 123.655C180.542 123.615 180.677 123.612 180.805 123.646Z" fill="white"/>
<path d="M195.442 81.8871C197.204 77.7497 196.354 73.4248 193.543 72.2273C190.732 71.0298 187.025 73.4132 185.262 77.5506C183.5 81.6881 184.35 86.0129 187.161 87.2104C189.972 88.4078 193.679 86.0246 195.442 81.8871Z" fill="#0C0C0C"/>
<path d="M199.693 167.819C216.941 167.006 217.667 152.366 217.667 152.366C217.667 152.366 226.213 152.918 231.895 153.687C241.196 154.945 247.332 158.099 252.214 162.982C256.757 167.525 259.522 172.439 256.596 203.816C254.477 226.535 255.968 276.508 255.968 276.508H150.861C150.861 276.508 143.522 204.313 142.652 194.086C140.991 174.563 136.3 170.253 145.805 160.196C152.698 152.902 170.494 152.366 177.657 152.367C177.773 152.367 176.205 168.926 199.693 167.819Z" fill="#277EB8"/>
<path d="M142.403 164.717L115.228 222.329L61.6373 182.028L40.3518 210.333L111.314 263.697C111.949 264.168 112.612 264.601 113.3 264.992C115.328 266.128 117.56 266.853 119.868 267.127C122.176 267.4 124.515 267.217 126.752 266.586C128.989 265.956 131.08 264.891 132.905 263.452C134.731 262.014 136.255 260.23 137.391 258.202L137.698 257.654L179.158 183.652L142.403 164.717Z" fill="#277EB8"/>
<path d="M163.791 243.209L147.969 236.142C147.622 235.987 147.246 235.906 146.865 235.904C146.484 235.902 146.107 235.98 145.758 236.132C145.409 236.284 145.095 236.506 144.837 236.786C144.579 237.066 144.381 237.396 144.258 237.756C144.05 238.428 144.099 239.153 144.396 239.791C144.693 240.429 145.215 240.933 145.863 241.207L149.256 242.725L136.399 242.858C134.97 242.847 133.209 243.749 133.303 245.353C133.299 245.973 133.505 246.576 133.888 247.064C134.27 247.552 134.807 247.895 135.41 248.038C135.406 248.052 135.404 248.066 135.404 248.079C135.405 248.09 135.407 248.1 135.41 248.11L133.206 248.095C132.798 248.092 132.394 248.18 132.025 248.353C131.655 248.526 131.329 248.779 131.069 249.094C130.81 249.409 130.624 249.778 130.525 250.174C130.426 250.57 130.417 250.983 130.498 251.383C130.638 252.011 130.99 252.571 131.495 252.97C131.999 253.369 132.625 253.583 133.268 253.576L134.207 253.583C134.219 253.61 134.236 253.635 134.257 253.656C133.622 253.799 133.059 254.163 132.668 254.682C132.277 255.202 132.083 255.844 132.122 256.494C132.184 257.203 132.513 257.863 133.041 258.341C133.569 258.82 134.258 259.081 134.97 259.074L137.3 259.09C137.267 259.113 137.24 259.143 137.221 259.179C137.202 259.214 137.192 259.253 137.191 259.293C137.193 259.341 137.208 259.387 137.236 259.426C136.706 259.71 136.284 260.16 136.035 260.708C135.785 261.255 135.723 261.869 135.856 262.455C136.01 263.068 136.365 263.611 136.865 263.997C137.366 264.383 137.982 264.588 138.613 264.58L158.274 264.72C161.024 264.74 163.718 263.938 166.009 262.416C168.3 260.895 170.085 258.724 171.135 256.182C172.04 253.99 172.055 251.531 171.176 249.329C170.298 247.126 168.595 245.352 166.43 244.385L163.791 243.209Z" fill="#EEAF96"/>
<g opacity="0.2">
<path d="M148.136 247.968C148.135 248.035 148.108 248.098 148.06 248.145C148.013 248.191 147.949 248.218 147.883 248.218L135.656 248.327C135.623 248.328 135.59 248.321 135.559 248.309C135.529 248.296 135.501 248.278 135.477 248.255C135.453 248.232 135.434 248.204 135.421 248.173C135.408 248.143 135.401 248.11 135.401 248.077C135.401 248.043 135.407 248.01 135.42 247.98C135.432 247.949 135.45 247.921 135.474 247.897C135.497 247.873 135.525 247.854 135.555 247.842C135.586 247.829 135.619 247.822 135.652 247.821L147.878 247.711C147.945 247.711 148.01 247.738 148.057 247.785C148.104 247.833 148.131 247.897 148.131 247.964L148.136 247.968Z" fill="#0C0C0C"/>
</g>
<g opacity="0.2">
<path d="M148.333 253.361C148.332 253.427 148.305 253.49 148.259 253.536C148.212 253.583 148.149 253.61 148.083 253.61L134.438 253.733C134.371 253.733 134.306 253.707 134.259 253.659C134.211 253.612 134.185 253.547 134.185 253.48C134.187 253.414 134.214 253.351 134.261 253.304C134.308 253.257 134.371 253.229 134.438 253.227L148.082 253.104C148.149 253.104 148.214 253.131 148.261 253.178C148.308 253.226 148.335 253.29 148.335 253.357L148.333 253.361Z" fill="#0C0C0C"/>
</g>
<g opacity="0.2">
<path d="M148.581 259.196C148.58 259.263 148.553 259.326 148.506 259.373C148.458 259.419 148.394 259.446 148.328 259.446L137.444 259.544C137.411 259.544 137.378 259.538 137.347 259.525C137.316 259.513 137.288 259.495 137.264 259.471C137.241 259.448 137.222 259.42 137.209 259.39C137.196 259.359 137.189 259.326 137.189 259.293C137.188 259.26 137.195 259.227 137.207 259.196C137.219 259.165 137.238 259.137 137.261 259.114C137.284 259.09 137.312 259.071 137.343 259.058C137.373 259.045 137.406 259.038 137.439 259.038L148.323 258.94C148.39 258.94 148.455 258.966 148.502 259.014C148.55 259.061 148.576 259.126 148.576 259.193L148.581 259.196Z" fill="#0C0C0C"/>
</g>
<path d="M164.322 271.381L246.985 276.144C249.899 276.461 252.847 276.099 255.597 275.085C258.348 274.072 260.826 272.434 262.838 270.302C264.849 268.17 266.34 265.601 267.191 262.796C268.043 259.991 268.233 257.027 267.747 254.136L257.71 173.387C257.297 170.93 256.404 168.578 255.082 166.467C253.759 164.355 252.034 162.524 250.005 161.079C247.975 159.634 245.681 158.603 243.252 158.045C240.824 157.486 238.31 157.412 235.853 157.825C233.396 158.239 231.044 159.132 228.933 160.454C226.821 161.776 224.99 163.501 223.545 165.531C222.1 167.561 221.069 169.855 220.511 172.283C219.952 174.711 219.878 177.226 220.291 179.683L225.125 241.019L164.685 238.863L164.322 271.381Z" fill="#277EB8"/>
<path d="M237.456 240.763C237.52 240.763 237.581 240.738 237.627 240.695C237.674 240.652 237.702 240.592 237.707 240.529C237.712 240.466 237.692 240.403 237.653 240.353C237.613 240.303 237.556 240.27 237.494 240.26L225.27 240.18C225.237 240.174 225.203 240.176 225.171 240.184C225.139 240.191 225.108 240.206 225.081 240.225C225.054 240.245 225.032 240.27 225.015 240.299C224.998 240.327 224.987 240.359 224.982 240.392C224.972 240.459 224.989 240.526 225.029 240.58C225.069 240.634 225.129 240.67 225.195 240.68L237.419 240.76C237.431 240.762 237.444 240.763 237.456 240.763Z" fill="#0C0C0C"/>
<path d="M244.354 276.508C244.421 276.512 244.487 276.489 244.537 276.445C244.588 276.401 244.619 276.338 244.623 276.271C244.627 276.204 244.605 276.138 244.56 276.087C244.516 276.037 244.453 276.006 244.386 276.002L164.872 271.263L165.11 239.237L225.187 240.679C225.226 240.684 225.266 240.68 225.303 240.667C225.341 240.654 225.374 240.632 225.402 240.604C225.43 240.576 225.45 240.541 225.462 240.503C225.474 240.465 225.476 240.425 225.47 240.386L222.072 203.823C222.067 203.79 222.055 203.758 222.038 203.73C222.02 203.701 221.997 203.677 221.97 203.657C221.943 203.638 221.912 203.624 221.88 203.617C221.847 203.61 221.813 203.609 221.781 203.615C221.748 203.621 221.716 203.632 221.688 203.65C221.66 203.668 221.635 203.691 221.616 203.718C221.597 203.745 221.583 203.775 221.576 203.808C221.568 203.84 221.567 203.874 221.573 203.907L224.914 240.131L164.995 238.679C164.962 238.67 164.928 238.668 164.895 238.672C164.861 238.677 164.829 238.688 164.8 238.704C164.771 238.722 164.746 238.744 164.725 238.771C164.705 238.798 164.691 238.829 164.682 238.862L164.321 271.38C164.305 271.443 164.315 271.511 164.349 271.567C164.382 271.624 164.436 271.666 164.5 271.683L244.319 276.503C244.33 276.505 244.342 276.507 244.354 276.508Z" fill="#0C0C0C"/>
<path d="M67.3037 115.374L61.6105 101.606C61.5813 101.521 61.5342 101.442 61.4725 101.376C61.4107 101.31 61.3356 101.258 61.2522 101.222C61.1687 101.187 61.0788 101.17 60.9882 101.173C60.8977 101.175 60.8087 101.196 60.7269 101.235L44.403 107.98L28.0662 114.695C27.9808 114.725 27.9026 114.772 27.8369 114.835C27.7712 114.897 27.7194 114.972 27.6849 115.056C27.6503 115.14 27.6339 115.23 27.6367 115.32C27.6394 115.411 27.6613 115.5 27.7008 115.581L33.3619 129.362L34.2094 131.419C34.239 131.504 34.2864 131.583 34.3485 131.649C34.4106 131.715 34.486 131.768 34.5698 131.803C34.6535 131.838 34.7438 131.855 34.8345 131.852C34.9253 131.85 35.0146 131.829 35.0965 131.789L37.9652 130.611L47.5658 126.665L47.5701 126.671L51.4481 125.069L55.3288 123.473L55.3277 123.466L64.9208 119.502L67.7869 118.317C67.8726 118.287 67.9511 118.24 68.0171 118.177C68.0831 118.115 68.1352 118.039 68.17 117.956C68.2048 117.872 68.2214 117.781 68.2188 117.691C68.2163 117.6 68.1946 117.511 68.1551 117.429L67.3037 115.374Z" fill="#9FC6A3"/>
<path opacity="0.47" d="M61.2825 106.133C60.6186 106.405 59.8742 106.403 59.2117 106.129C58.5491 105.854 58.022 105.329 57.7455 104.668L45.1775 109.86L32.6004 115.03C32.8701 115.695 32.8662 116.439 32.5893 117.1C32.3125 117.762 31.7852 118.287 31.1226 118.562L34.5455 126.893C34.8293 126.776 35.1312 126.709 35.4378 126.695C35.8033 126.677 36.1685 126.733 36.5119 126.859C36.8553 126.985 37.1698 127.179 37.4369 127.429C37.7181 127.691 37.9383 128.012 38.0821 128.368L46.2751 125L46.2797 125.006L50.6711 123.193L55.065 121.386L55.0643 121.378L63.2508 117.996C63.102 117.641 63.0324 117.259 63.0469 116.874C63.0606 116.509 63.1474 116.15 63.3022 115.819C63.4571 115.487 63.6768 115.19 63.9485 114.945C64.1761 114.739 64.4377 114.574 64.7216 114.457L61.2825 106.133Z" fill="white"/>
<path d="M38.6042 122.149C39.4691 121.793 39.8815 120.803 39.5253 119.939C39.1691 119.075 38.1793 118.663 37.3144 119.02C36.4495 119.376 36.0371 120.366 36.3933 121.23C36.7495 122.094 37.7393 122.506 38.6042 122.149Z" fill="#9FC6A3"/>
<path d="M58.5006 113.95C59.3654 113.593 59.7778 112.604 59.4217 111.74C59.0655 110.875 58.0757 110.464 57.2108 110.82C56.3459 111.177 55.9335 112.166 56.2897 113.03C56.6458 113.895 57.6357 114.306 58.5006 113.95Z" fill="#9FC6A3"/>
<path d="M48.7689 110.739C49.7136 110.863 50.6116 111.223 51.3793 111.787C52.1471 112.35 52.7597 113.099 53.1603 113.963C53.7224 115.113 53.8853 116.418 53.6233 117.671C53.4489 118.592 53.0384 119.453 52.4319 120.168C52.1815 120.48 51.8968 120.763 51.5831 121.012C51.1448 121.37 50.6556 121.661 50.1318 121.875C49.1849 122.265 48.1519 122.399 47.1371 122.262C46.1223 122.125 45.1619 121.723 44.3528 121.096C43.5516 120.484 42.9266 119.671 42.5413 118.739C42.535 118.73 42.5333 118.72 42.5275 118.71C41.9424 117.282 41.948 115.679 42.5433 114.254C43.1385 112.829 44.2748 111.697 45.703 111.107C45.8009 111.07 45.8986 111.032 45.9971 110.999C46.885 110.683 47.8379 110.593 48.7689 110.739Z" fill="#9FC6A3"/>
<path d="M48.9568 119.959L48.6305 119.167C48.3655 119.239 48.092 119.275 47.8175 119.274C47.5349 119.279 47.2539 119.233 46.9877 119.139L47.1728 118.146C47.406 118.212 47.6466 118.248 47.889 118.254C48.0967 118.257 48.3029 118.218 48.4952 118.139C48.6745 118.082 48.8277 117.964 48.9273 117.804C48.96 117.729 48.9756 117.647 48.973 117.565C48.9705 117.483 48.9498 117.402 48.9125 117.329C48.8864 117.262 48.8463 117.203 48.7949 117.154C48.7435 117.104 48.682 117.067 48.6148 117.043C48.4528 116.986 48.2847 116.948 48.1139 116.93C47.922 116.908 47.7185 116.89 47.5032 116.876C47.2896 116.863 47.0779 116.828 46.8716 116.771C46.6693 116.715 46.4783 116.624 46.3073 116.503C46.1247 116.365 45.9852 116.178 45.9054 115.964C45.7476 115.618 45.7199 115.227 45.8274 114.862C45.9464 114.505 46.1876 114.201 46.5086 114.003L46.1724 113.188L46.9411 112.871L47.2707 113.671C47.5185 113.604 47.7772 113.589 48.0309 113.627C48.269 113.664 48.5008 113.735 48.7201 113.835L48.4069 114.741C48.2357 114.674 48.0559 114.631 47.8728 114.614C47.704 114.604 47.5353 114.633 47.3801 114.701C47.2213 114.754 47.085 114.859 46.993 114.998C46.9594 115.069 46.9428 115.147 46.9443 115.225C46.9459 115.303 46.9656 115.379 47.0019 115.449C47.027 115.51 47.0658 115.566 47.1155 115.61C47.1651 115.655 47.2243 115.688 47.2885 115.706C47.4481 115.754 47.6128 115.785 47.7794 115.796C47.9681 115.811 48.1696 115.823 48.3837 115.834C48.597 115.845 48.8085 115.879 49.0142 115.936C49.2195 115.994 49.4124 116.088 49.5831 116.216C49.7718 116.366 49.9159 116.564 49.9999 116.79C50.1537 117.138 50.1864 117.527 50.0929 117.896C49.9788 118.279 49.7283 118.608 49.3886 118.819L49.728 119.643L48.9568 119.959Z" fill="white"/>
<path d="M125.191 60.2519L125.171 42.7978C125.177 42.692 125.161 42.586 125.124 42.4868C125.086 42.3875 125.028 42.2974 124.954 42.2221C124.879 42.1469 124.789 42.0883 124.69 42.0502C124.591 42.0121 124.485 41.9954 124.379 42.0011L103.687 42.0209L82.9944 42.0011C82.8885 41.9954 82.7826 42.0122 82.6836 42.0503C82.5846 42.0884 82.4948 42.147 82.4201 42.2222C82.3454 42.2975 82.2874 42.3876 82.25 42.4868C82.2126 42.586 82.1966 42.692 82.2031 42.7978L82.1833 60.2519V62.8577C82.1771 62.9639 82.1933 63.0701 82.231 63.1695C82.2688 63.2689 82.3271 63.3593 82.4022 63.4346C82.4773 63.5099 82.5674 63.5685 82.6668 63.6066C82.7661 63.6446 82.8724 63.6613 82.9786 63.6554L86.6119 63.6594L98.7723 63.6709L98.7742 63.6791L103.69 63.6752L108.605 63.6791L108.607 63.6709L120.768 63.6594L124.401 63.6554C124.507 63.6613 124.614 63.6446 124.713 63.6066C124.812 63.5685 124.902 63.5099 124.977 63.4346C125.053 63.3593 125.111 63.2689 125.149 63.1695C125.186 63.0701 125.203 62.9639 125.196 62.8577L125.191 60.2519Z" fill="#9FC6A3"/>
<path opacity="0.47" d="M122.795 47.5543C121.954 47.5524 121.148 47.2185 120.553 46.6255C119.958 46.0325 119.622 45.2284 119.617 44.3886L103.687 44.4024L87.7557 44.3886C87.7514 45.2284 87.4149 46.0325 86.8198 46.6255C86.2246 47.2185 85.419 47.5524 84.5785 47.5543L84.5673 58.106C84.9269 58.1057 85.2839 58.1677 85.6224 58.2892C86.0261 58.4334 86.3967 58.657 86.7123 58.9469C87.028 59.2368 87.2822 59.587 87.46 59.9768C87.6475 60.3863 87.7429 60.8319 87.7396 61.2822L98.1171 61.2917L98.1194 61.3003L103.686 61.296L109.251 61.3003L109.254 61.2917L119.631 61.2822C119.628 60.8319 119.724 60.3864 119.911 59.9768C120.089 59.587 120.343 59.2368 120.659 58.9469C120.974 58.6571 121.345 58.4334 121.749 58.2892C122.087 58.1677 122.444 58.1057 122.804 58.106L122.795 47.5543Z" fill="white"/>
<path d="M91.081 54.7795C92.1769 54.7795 93.0653 53.8917 93.0653 52.7966C93.0653 51.7016 92.1769 50.8138 91.081 50.8138C89.9851 50.8138 89.0967 51.7016 89.0967 52.7966C89.0967 53.8917 89.9851 54.7795 91.081 54.7795Z" fill="#9FC6A3"/>
<path d="M116.292 54.7795C117.388 54.7795 118.276 53.8917 118.276 52.7966C118.276 51.7016 117.388 50.8138 116.292 50.8138C115.196 50.8138 114.308 51.7016 114.308 52.7966C114.308 53.8917 115.196 54.7795 116.292 54.7795Z" fill="#9FC6A3"/>
<path d="M107.184 46.9579C108.152 47.5134 108.964 48.3045 109.544 49.2576C110.124 50.2108 110.454 51.295 110.502 52.4095C110.597 53.9065 110.191 55.3926 109.348 56.6335C108.748 57.5532 107.919 58.3016 106.943 58.8054C106.533 59.0319 106.098 59.2115 105.647 59.3409C105.012 59.5329 104.353 59.6296 103.69 59.6278C102.49 59.6279 101.311 59.3113 100.273 58.7102C99.2352 58.109 98.3745 57.2445 97.7781 56.2042C97.1833 55.1838 96.8692 54.0243 96.8677 52.8434C96.8651 52.8303 96.8677 52.8187 96.8657 52.8059C96.8697 50.9971 97.5912 49.2637 98.8721 47.9857C100.153 46.7077 101.889 45.9893 103.699 45.9882C103.822 45.9908 103.945 45.9935 104.066 46.002C105.169 46.0556 106.241 46.3842 107.184 46.9579Z" fill="#9FC6A3"/>
<path d="M103.272 57.0279V56.0246C102.953 55.9843 102.641 55.9013 102.344 55.7778C102.035 55.6573 101.752 55.482 101.506 55.2605L102.149 54.2678C102.372 54.4435 102.617 54.5903 102.877 54.7047C103.1 54.8004 103.341 54.8502 103.585 54.851C103.804 54.8695 104.023 54.8092 104.202 54.681C104.271 54.6138 104.325 54.5322 104.358 54.4421C104.392 54.3519 104.406 54.2554 104.398 54.1594C104.4 54.0761 104.383 53.9934 104.349 53.9172C104.315 53.8409 104.266 53.7728 104.203 53.7176C104.053 53.5834 103.888 53.4672 103.711 53.3713C103.513 53.2615 103.301 53.1509 103.074 53.0395C102.848 52.9305 102.635 52.798 102.437 52.6441C102.243 52.4933 102.076 52.3098 101.945 52.1018C101.809 51.8713 101.741 51.6066 101.75 51.339C101.734 50.8938 101.879 50.4576 102.158 50.1104C102.446 49.7764 102.843 49.5547 103.279 49.4844V48.4508H104.253V49.4643C104.551 49.5033 104.838 49.6025 105.096 49.7559C105.337 49.9033 105.557 50.0826 105.75 50.289L105.006 51.1311C104.85 50.982 104.675 50.8553 104.484 50.7545C104.306 50.6683 104.11 50.6252 103.912 50.6287C103.716 50.6154 103.521 50.6682 103.359 50.7786C103.291 50.8401 103.239 50.9165 103.206 51.0018C103.172 51.0871 103.16 51.179 103.168 51.2702C103.168 51.3483 103.185 51.4256 103.219 51.496C103.253 51.5665 103.302 51.6283 103.364 51.6767C103.515 51.8006 103.68 51.9068 103.855 51.9931C104.053 52.0934 104.266 52.1973 104.493 52.3047C104.719 52.4113 104.933 52.5427 105.13 52.6965C105.327 52.8503 105.493 53.0392 105.621 53.2537C105.759 53.5002 105.826 53.7795 105.816 54.0616C105.828 54.5068 105.69 54.9429 105.424 55.3004C105.129 55.6648 104.711 55.9088 104.249 55.9864V57.0299L103.272 57.0279Z" fill="white"/>
</svg>
