<svg width="320" height="320" viewBox="0 0 320 320" fill="none" xmlns="http://www.w3.org/2000/svg">
<path d="M294 278.381H27C29.9255 268.969 35.3284 260.985 42.9446 258.616C54.0861 255.156 65.8766 264.671 76.993 261.093C83.3088 259.062 88.2809 253.145 93.5055 248.23C113.218 229.692 140.228 224.213 163.552 234.025C175.744 239.152 186.853 248.118 199.342 251.928C215.492 256.858 232.381 252.769 248.989 252.095C265.163 251.442 288.339 259.756 294 278.381Z" fill="#F3F5FD"/>
<path d="M256.421 224.52C254.582 230.087 248.234 235.035 250.131 239.13C250.852 240.686 251.576 242.314 251.91 243.976C252.126 244.968 252.162 245.99 252.016 246.994C251.332 251.33 247.272 254.21 243.496 256.453C243.263 256.591 243.028 256.731 242.792 256.872C239.214 259.014 235.467 261.481 234.318 265.435C233.68 267.631 233.961 269.98 233.697 272.252C233.447 274.339 232.737 276.345 231.619 278.126H207.507C205.367 275.769 205.545 271.806 207.174 269.027C208.918 266.052 211.864 264.031 214.522 261.831C216.818 259.93 219.056 257.642 219.933 254.851C220.072 254.409 220.175 253.957 220.24 253.498C220.453 251.988 220.338 244.272 222.959 239.523C227.01 232.189 233.582 233.995 235.591 229.858C236.361 228.273 237.025 208.796 249.826 212.394C251.075 212.727 252.242 213.311 253.257 214.11C254.272 214.909 255.114 215.906 255.731 217.041C256.348 218.175 256.727 219.424 256.846 220.709C256.965 221.995 256.82 223.291 256.421 224.52Z" fill="#D0FFD5"/>
<path d="M269.838 254.974C269.47 255.226 269.075 255.436 268.66 255.6C265.206 256.895 255.599 256.751 254.194 260.159C253.533 261.762 253.375 263.53 252.809 265.17C251.525 268.889 248.134 271.677 244.341 272.725C242.976 273.101 241.562 273.276 240.211 273.695C237.602 274.508 235.441 276.142 233.542 278.126H202.401C202.387 276.062 202.895 274.029 203.878 272.214C204.86 270.398 206.286 268.861 208.022 267.743C211.484 265.561 215.858 265.153 219.257 262.873C221.499 261.368 223.111 259.195 224.39 256.791C225.203 255.219 225.922 253.599 226.542 251.941C227.493 249.475 228.487 246.827 230.648 245.3C231.708 244.612 232.883 244.119 234.117 243.847C237.237 243.031 239.637 243.511 241.91 243.976C244.668 244.539 247.243 245.076 250.7 243.241C256.832 239.985 265.798 223.747 274.757 239.175C278.349 245.363 273.393 252.596 269.838 254.974Z" fill="#9FC6A3"/>
<path d="M74.5428 224.52C76.3819 230.087 82.7296 235.035 80.833 239.13C80.1118 240.686 79.3873 242.314 79.0543 243.976C78.8379 244.968 78.8019 245.99 78.948 246.994C79.6319 251.33 83.6922 254.21 87.4681 256.453C87.7008 256.591 87.9362 256.731 88.1721 256.872C91.7497 259.014 95.4968 261.481 96.6463 265.435C97.2842 267.631 97.0026 269.98 97.267 272.252C97.5174 274.339 98.2269 276.345 99.3445 278.126H123.457C125.597 275.769 125.419 271.806 123.79 269.027C122.046 266.052 119.1 264.031 116.442 261.831C114.146 259.93 111.907 257.642 111.031 254.851C110.892 254.409 110.789 253.957 110.724 253.498C110.511 251.988 110.626 244.272 108.005 239.523C103.954 232.189 97.3819 233.995 95.3733 229.858C94.6032 228.273 93.9394 208.796 81.1376 212.394C79.8893 212.727 78.7221 213.311 77.707 214.11C76.692 214.909 75.8503 215.906 75.2333 217.041C74.6163 218.175 74.2368 219.424 74.1181 220.709C73.9994 221.995 74.1439 223.291 74.5428 224.52Z" fill="#C1D8ED"/>
<path d="M51.1252 254.974C51.4928 255.226 51.8881 255.436 52.3034 255.6C55.7577 256.895 65.364 256.751 66.7692 260.159C67.4301 261.762 67.5882 263.53 68.1543 265.17C69.4388 268.889 72.8296 271.677 76.6227 272.725C77.9876 273.101 79.4014 273.276 80.7517 273.695C83.3612 274.508 85.5218 276.142 87.4213 278.126H118.563C118.577 276.062 118.069 274.029 117.086 272.214C116.104 270.398 114.678 268.861 112.942 267.743C109.48 265.561 105.106 265.153 101.707 262.873C99.4652 261.368 97.8535 259.195 96.5747 256.791C95.7611 255.219 95.0424 253.599 94.4224 251.941C93.4713 249.475 92.477 246.827 90.3161 245.3C89.2563 244.612 88.0814 244.119 86.8474 243.847C83.727 243.031 81.3273 243.511 79.0546 243.976C76.296 244.539 73.7212 245.076 70.2641 243.241C64.1321 239.985 55.1663 223.747 46.2068 239.175C42.6146 245.363 47.5715 252.596 51.1252 254.974Z" fill="#9FC6A3"/>
<path d="M225.553 44.5896H125.641C117.989 44.5896 111.787 50.7874 111.787 58.4328V262.147C111.787 269.793 117.989 275.99 125.641 275.99H225.553C233.205 275.99 239.407 269.793 239.407 262.147V58.4328C239.407 50.7874 233.205 44.5896 225.553 44.5896Z" fill="white"/>
<path d="M225.553 279.58H125.641C121.016 279.575 116.581 277.737 113.311 274.468C110.04 271.2 108.2 266.769 108.195 262.147V58.4328C108.2 53.811 110.04 49.38 113.311 46.1119C116.581 42.8438 121.016 41.0054 125.641 41H225.554C230.179 41.0055 234.614 42.8439 237.884 46.112C241.155 49.3801 242.995 53.811 243 58.4328V262.147C242.995 266.769 241.155 271.2 237.884 274.468C234.613 277.737 230.179 279.575 225.553 279.58ZM125.641 48.1791C122.921 48.1826 120.313 49.2639 118.39 51.1858C116.466 53.1078 115.384 55.7135 115.381 58.4316V262.146C115.384 264.864 116.466 267.47 118.39 269.392C120.313 271.314 122.921 272.395 125.641 272.398H225.554C228.274 272.395 230.882 271.314 232.806 269.392C234.729 267.47 235.811 264.864 235.814 262.146V58.4328C235.811 55.7147 234.729 53.109 232.805 51.187C230.882 49.2651 228.274 48.1838 225.554 48.1804L125.641 48.1791Z" fill="#DEE8F5"/>
<path d="M153.721 44.5896H197.473V53.0722C197.473 53.9061 197.309 54.7318 196.99 55.5021C196.67 56.2725 196.202 56.9725 195.612 57.5621C195.022 58.1517 194.322 58.6194 193.551 58.9385C192.78 59.2576 191.954 59.4218 191.119 59.4218H160.074C158.389 59.4218 156.773 58.7529 155.581 57.5621C154.39 56.3713 153.72 54.7563 153.72 53.0722V44.5896H153.721Z" fill="#DEE8F5"/>
<path d="M69.5836 135.553C69.5836 135.553 65.716 132.072 65.5005 130.895C65.285 129.717 68.2905 127.614 68.2905 127.614C68.2905 127.614 67.521 126.736 66.7755 125.745C65.9153 124.6 65.088 123.305 65.5131 123.032C65.9234 122.769 66.9344 123.742 67.942 124.919C69.2381 126.433 70.5246 128.284 70.5246 128.284C70.5246 128.284 70.0243 126.237 70.8105 126.154C71.1338 126.12 71.366 126.45 71.78 127.901C72.2499 129.555 73.2387 132.062 73.2387 132.062L69.5836 135.553Z" fill="#EEAF96"/>
<path d="M77.324 154.847C76.5208 154.847 75.7358 154.608 75.0695 154.16C74.4032 153.711 73.8859 153.075 73.5838 152.331L66.3256 134.47L73.806 131.436L76.0034 136.843L77.7284 128.229L85.6462 129.812L81.282 151.608C81.1117 152.458 80.6716 153.232 80.0267 153.812C79.3819 154.393 78.5668 154.751 77.7025 154.833C77.5777 154.842 77.4503 154.847 77.324 154.847Z" fill="#2B80B4"/>
<path d="M64.2214 140.367L68.7104 139.651C68.8868 139.623 69.0553 139.558 69.2048 139.461C69.3543 139.363 69.4815 139.235 69.578 139.085C69.6745 138.934 69.7382 138.765 69.7649 138.589C69.7916 138.412 69.7807 138.232 69.7329 138.06L66.9088 127.93C66.8251 127.63 66.6339 127.371 66.3715 127.202C66.1091 127.034 65.7939 126.968 65.4861 127.017L60.9971 127.733C60.8207 127.762 60.6522 127.827 60.5027 127.924C60.3532 128.022 60.226 128.15 60.1295 128.3C60.033 128.451 59.9693 128.62 59.9426 128.796C59.9159 128.973 59.9268 129.153 59.9746 129.325L62.799 139.454C62.8823 139.754 63.0734 140.013 63.3358 140.182C63.5982 140.35 63.9134 140.416 64.2214 140.367Z" fill="#C1D8ED"/>
<path d="M104.894 231.438C98.1629 229.74 97.5004 229.486 97.2827 229.403L100.063 222.146C100.041 222.137 100.013 222.127 99.9778 222.115C100.525 222.295 103.944 223.184 106.798 223.904L104.894 231.438Z" fill="#EEAF96"/>
<path d="M104.591 241.588C104.524 241.786 104.416 241.968 104.275 242.123C104.135 242.277 103.963 242.401 103.772 242.486C103.581 242.571 103.375 242.617 103.166 242.619C102.957 242.62 102.749 242.579 102.557 242.498C102.29 242.384 102.061 242.197 101.897 241.959C101.733 241.72 101.641 241.439 101.631 241.15L101.636 231.611C101.637 231.426 101.677 231.244 101.755 231.076C101.833 230.909 101.946 230.76 102.086 230.641C103.301 229.736 104.193 228.467 104.632 227.018C104.927 225.874 104.895 224.67 104.539 223.544C104.501 223.442 104.492 223.332 104.514 223.226C104.536 223.119 104.587 223.021 104.663 222.943C104.738 222.865 104.834 222.81 104.94 222.785C105.045 222.759 105.156 222.764 105.259 222.799L109.455 224.205C109.579 224.247 109.693 224.312 109.791 224.398C109.89 224.484 109.97 224.588 110.028 224.705C110.086 224.822 110.12 224.949 110.129 225.079C110.137 225.209 110.12 225.34 110.078 225.463L104.591 241.588Z" fill="#C1D8ED"/>
<path d="M86.4682 274.894C86.4682 274.894 86.4423 266.847 86.4423 266.134H94.219C94.219 266.845 94.2449 274.867 94.2449 274.867L86.4682 274.894Z" fill="#EEAF96"/>
<path d="M106.843 163.465C101.853 158.479 78.6701 165.204 78.6701 165.204L78.649 165.349L78.1731 165.082C72.2777 176.923 63.9285 194.648 58.1504 206.721C57.7092 207.551 57.4433 208.463 57.3694 209.399C57.2954 210.336 57.4149 211.279 57.7205 212.167C58.0261 213.056 58.5112 213.873 59.1457 214.567C59.7802 215.261 60.5507 215.817 61.4092 216.2L86.6464 227.421C85.3503 241.645 83.8627 255.857 82.6236 270.059L96.2198 271.754C98.6906 254.812 101.231 237.888 103.5 220.924L103.871 220.093L103.627 219.984C105.018 209.533 106.303 199.066 107.402 188.568C107.613 186.433 107.799 184.111 107.891 181.854C107.89 181.855 109.527 166.148 106.843 163.465ZM74.0459 206.834C78.9112 198.73 84.6348 189.18 89.5904 181.074C89.3364 191.718 88.705 202.354 87.8755 212.983L74.0459 206.834Z" fill="#262626"/>
<path d="M71.4508 137.712L68.803 141.302C68.803 141.302 61.6873 139.876 61.0196 134.399C60.9426 133.77 61.0096 132.023 61.791 132.257C63.8278 132.867 66.3626 135.99 68.1397 136.405C67.7342 135.679 67.2395 134.655 67.5587 134.468C68.3967 133.975 70.6557 136.949 71.4508 137.712Z" fill="#EEAF96"/>
<path d="M107.239 126.439C105.547 124.748 102.625 123.657 99.0628 123.653C98.7958 125.729 86.1827 125.736 86.0868 123.701C85.6054 123.708 85.2314 123.716 84.9981 123.727C76.4371 124.097 76.4623 130.991 77.3044 138.61L70.2606 135.506L67.0018 142.888L78.2124 147.829C78.2198 148.051 78.2257 148.273 78.228 148.495C78.3727 160.507 75.1251 162.771 76.7248 166.442C78.2761 170.006 108.764 171.486 109.172 165.217C109.431 161.228 105.913 157.746 105.913 149.972C105.913 142.197 113.072 132.268 107.239 126.439Z" fill="#2B80B4"/>
<path d="M77.0222 278.056C76.813 278.055 76.6063 278.011 76.415 277.927C76.2236 277.842 76.0517 277.72 75.9101 277.566C75.7684 277.412 75.6599 277.231 75.5915 277.033C75.5231 276.836 75.4962 276.626 75.5124 276.418C75.5349 276.129 75.6396 275.853 75.814 275.621C75.9885 275.39 76.2255 275.213 76.4971 275.112L85.5484 272.083C85.7238 272.024 85.9097 272.005 86.0933 272.025C86.2769 272.046 86.454 272.106 86.6123 272.201C87.8567 273.064 89.3453 273.505 90.8591 273.459C92.0382 273.375 93.17 272.962 94.1253 272.266C94.2093 272.198 94.3111 272.154 94.4189 272.141C94.5266 272.128 94.6359 272.146 94.734 272.192C94.832 272.239 94.9148 272.312 94.9728 272.404C95.0307 272.496 95.0613 272.602 95.0611 272.71V277.135C95.0611 277.265 95.0353 277.394 94.9852 277.515C94.9351 277.635 94.8617 277.745 94.7692 277.837C94.6767 277.929 94.5669 278.002 94.4461 278.051C94.3253 278.101 94.1959 278.126 94.0653 278.126L77.0222 278.056Z" fill="#C1D8ED"/>
<path d="M86.0868 123.701C86.1827 125.736 87.2904 128.73 90.7084 128.956C95.2633 129.255 98.7958 125.729 99.0628 123.653H99.0513C94.5671 123.653 88.7013 123.66 86.0868 123.701Z" fill="#E98862"/>
<path d="M209.436 220.03L209.395 185.531C209.408 185.322 209.377 185.112 209.303 184.916C209.229 184.72 209.114 184.542 208.967 184.393C208.819 184.244 208.641 184.129 208.446 184.053C208.25 183.978 208.04 183.945 207.831 183.956L166.931 183.995L126.032 183.956C125.822 183.945 125.613 183.978 125.417 184.054C125.222 184.129 125.044 184.245 124.896 184.393C124.749 184.542 124.634 184.72 124.56 184.916C124.486 185.112 124.455 185.322 124.468 185.531L124.428 220.03V225.181C124.416 225.39 124.448 225.6 124.523 225.797C124.597 225.993 124.713 226.172 124.861 226.321C125.009 226.47 125.188 226.585 125.384 226.661C125.58 226.736 125.79 226.769 126 226.757L133.182 226.765L157.217 226.788L157.221 226.804L166.937 226.796L176.653 226.804L176.657 226.788L200.693 226.765L207.874 226.757C208.084 226.769 208.294 226.736 208.49 226.661C208.687 226.585 208.865 226.47 209.013 226.321C209.162 226.172 209.277 225.993 209.352 225.797C209.426 225.6 209.458 225.39 209.446 225.181L209.436 220.03Z" fill="#9FC6A3"/>
<path opacity="0.47" d="M204.699 194.932C203.038 194.929 201.445 194.269 200.269 193.097C199.092 191.925 198.427 190.335 198.419 188.675L166.931 188.703L135.443 188.675C135.434 190.335 134.769 191.925 133.593 193.097C132.416 194.269 130.824 194.929 129.163 194.932L129.14 215.788C129.851 215.788 130.557 215.91 131.226 216.151C132.024 216.436 132.756 216.878 133.38 217.451C134.004 218.024 134.507 218.716 134.858 219.486C135.229 220.296 135.417 221.176 135.411 222.066L155.922 222.085L155.927 222.102L166.929 222.094L177.93 222.102L177.935 222.085L198.446 222.066C198.44 221.176 198.629 220.296 198.999 219.486C199.35 218.716 199.853 218.024 200.477 217.451C201.101 216.878 201.834 216.436 202.632 216.151C203.301 215.91 204.006 215.788 204.717 215.788L204.699 194.932Z" fill="white"/>
<path d="M142.015 209.213C144.181 209.213 145.937 207.459 145.937 205.294C145.937 203.13 144.181 201.375 142.015 201.375C139.849 201.375 138.093 203.13 138.093 205.294C138.093 207.459 139.849 209.213 142.015 209.213Z" fill="#9FC6A3"/>
<path d="M191.846 209.213C194.012 209.213 195.768 207.459 195.768 205.294C195.768 203.13 194.012 201.375 191.846 201.375C189.68 201.375 187.924 203.13 187.924 205.294C187.924 207.459 189.68 209.213 191.846 209.213Z" fill="#9FC6A3"/>
<path d="M173.844 193.754C175.758 194.852 177.362 196.415 178.509 198.299C179.655 200.183 180.307 202.326 180.402 204.529C180.59 207.488 179.788 210.425 178.121 212.878C176.935 214.696 175.297 216.175 173.368 217.171C172.556 217.619 171.697 217.974 170.806 218.229C169.552 218.609 168.248 218.8 166.937 218.797C164.566 218.797 162.236 218.171 160.184 216.983C158.133 215.794 156.431 214.086 155.252 212.029C154.077 210.013 153.456 207.721 153.453 205.387C153.448 205.361 153.453 205.338 153.449 205.313C153.457 201.737 154.883 198.311 157.415 195.785C159.947 193.259 163.378 191.839 166.955 191.837C167.199 191.842 167.441 191.847 167.681 191.864C169.861 191.97 171.98 192.62 173.844 193.754Z" fill="#9FC6A3"/>
<path d="M166.112 213.658V211.675C165.481 211.595 164.864 211.431 164.277 211.187C163.668 210.948 163.106 210.602 162.62 210.164L163.892 208.202C164.333 208.549 164.816 208.84 165.33 209.066C165.772 209.255 166.248 209.353 166.729 209.355C167.163 209.391 167.596 209.272 167.95 209.019C168.087 208.886 168.192 208.725 168.259 208.547C168.326 208.368 168.353 208.178 168.338 207.988C168.34 207.823 168.307 207.66 168.241 207.509C168.174 207.358 168.075 207.224 167.952 207.115C167.656 206.849 167.329 206.62 166.98 206.43C166.589 206.213 166.169 205.994 165.72 205.774C165.274 205.559 164.852 205.297 164.461 204.993C164.077 204.695 163.748 204.332 163.489 203.921C163.219 203.465 163.086 202.942 163.104 202.413C163.071 201.533 163.357 200.671 163.909 199.985C164.479 199.325 165.264 198.886 166.125 198.747V196.704H168.05V198.708C168.639 198.785 169.206 198.981 169.717 199.284C170.193 199.575 170.628 199.93 171.009 200.338L169.538 202.002C169.231 201.708 168.884 201.457 168.507 201.258C168.155 201.087 167.767 201.002 167.376 201.009C166.989 200.983 166.605 201.087 166.284 201.305C166.15 201.427 166.046 201.578 165.98 201.747C165.915 201.915 165.889 202.097 165.906 202.277C165.905 202.432 165.94 202.584 166.007 202.724C166.074 202.863 166.171 202.985 166.293 203.081C166.592 203.326 166.918 203.535 167.264 203.706C167.655 203.904 168.075 204.11 168.524 204.322C168.972 204.533 169.394 204.792 169.784 205.096C170.173 205.4 170.502 205.774 170.755 206.198C171.027 206.685 171.16 207.237 171.141 207.794C171.163 208.674 170.89 209.537 170.365 210.243C169.782 210.963 168.956 211.446 168.042 211.599V213.661L166.112 213.658Z" fill="white"/>
<path d="M252.023 140.471L251.982 105.972C251.995 105.763 251.963 105.553 251.889 105.357C251.815 105.161 251.701 104.983 251.553 104.834C251.405 104.685 251.228 104.569 251.032 104.494C250.836 104.419 250.627 104.386 250.418 104.397L209.518 104.436L168.618 104.397C168.409 104.386 168.199 104.419 168.004 104.494C167.808 104.57 167.631 104.685 167.483 104.834C167.335 104.983 167.221 105.161 167.147 105.357C167.073 105.553 167.041 105.763 167.054 105.972L167.015 140.471V145.621C167.003 145.831 167.035 146.041 167.109 146.238C167.184 146.434 167.299 146.613 167.448 146.762C167.596 146.91 167.774 147.026 167.971 147.101C168.167 147.177 168.377 147.21 168.587 147.198L175.768 147.206L199.804 147.229L199.808 147.245L209.524 147.237L219.24 147.245L219.244 147.229L243.279 147.206L250.461 147.198C250.671 147.21 250.881 147.177 251.077 147.101C251.273 147.026 251.452 146.91 251.6 146.762C251.748 146.613 251.864 146.434 251.938 146.238C252.013 146.041 252.045 145.831 252.033 145.621L252.023 140.471Z" fill="#9FC6A3"/>
<path opacity="0.47" d="M247.285 115.373C245.624 115.369 244.032 114.71 242.855 113.537C241.679 112.365 241.014 110.776 241.005 109.116L209.517 109.143L178.029 109.116C178.021 110.776 177.356 112.365 176.179 113.537C175.003 114.71 173.41 115.369 171.749 115.373L171.727 136.229C172.438 136.229 173.143 136.351 173.812 136.591C174.61 136.876 175.343 137.318 175.967 137.891C176.591 138.464 177.093 139.156 177.445 139.927C177.815 140.736 178.004 141.617 177.997 142.507L198.509 142.526L198.514 142.543L209.515 142.535L220.516 142.543L220.522 142.526L241.033 142.507C241.027 141.617 241.215 140.737 241.585 139.927C241.937 139.156 242.44 138.464 243.064 137.891C243.688 137.318 244.42 136.876 245.218 136.591C245.887 136.351 246.593 136.229 247.304 136.229L247.285 115.373Z" fill="white"/>
<path d="M184.602 129.654C186.768 129.654 188.524 127.9 188.524 125.735C188.524 123.571 186.768 121.816 184.602 121.816C182.436 121.816 180.68 123.571 180.68 125.735C180.68 127.9 182.436 129.654 184.602 129.654Z" fill="#9FC6A3"/>
<path d="M234.433 129.654C236.599 129.654 238.355 127.9 238.355 125.735C238.355 123.571 236.599 121.816 234.433 121.816C232.267 121.816 230.511 123.571 230.511 125.735C230.511 127.9 232.267 129.654 234.433 129.654Z" fill="#9FC6A3"/>
<path d="M216.431 114.194C218.344 115.292 219.949 116.856 221.095 118.74C222.242 120.624 222.893 122.767 222.988 124.97C223.177 127.929 222.374 130.866 220.707 133.319C219.521 135.137 217.884 136.616 215.954 137.612C215.143 138.059 214.283 138.414 213.392 138.67C212.138 139.05 210.834 139.241 209.524 139.237C207.152 139.237 204.823 138.612 202.771 137.423C200.719 136.235 199.018 134.526 197.839 132.47C196.663 130.453 196.043 128.162 196.04 125.828C196.034 125.801 196.04 125.779 196.036 125.753C196.043 122.178 197.47 118.752 200.001 116.226C202.533 113.7 205.964 112.28 209.542 112.278C209.785 112.283 210.028 112.288 210.267 112.305C212.447 112.411 214.566 113.061 216.431 114.194Z" fill="#9FC6A3"/>
<path d="M208.699 134.098V132.115C208.068 132.036 207.45 131.872 206.863 131.627C206.254 131.389 205.693 131.043 205.207 130.605L206.479 128.643C206.92 128.99 207.403 129.28 207.917 129.506C208.359 129.696 208.835 129.794 209.316 129.796C209.75 129.832 210.183 129.713 210.537 129.459C210.673 129.327 210.779 129.165 210.846 128.987C210.913 128.809 210.94 128.618 210.924 128.429C210.927 128.264 210.894 128.1 210.827 127.95C210.76 127.799 210.662 127.664 210.538 127.555C210.242 127.29 209.916 127.06 209.566 126.871C209.175 126.654 208.755 126.435 208.307 126.215C207.861 126 207.438 125.738 207.047 125.434C206.663 125.135 206.334 124.773 206.075 124.362C205.806 123.906 205.672 123.383 205.69 122.854C205.658 121.974 205.944 121.112 206.496 120.425C207.066 119.765 207.85 119.327 208.712 119.188V117.145H210.637V119.148C211.226 119.225 211.793 119.422 212.303 119.725C212.78 120.016 213.214 120.371 213.595 120.778L212.125 122.443C211.817 122.148 211.47 121.898 211.094 121.699C210.741 121.528 210.354 121.443 209.962 121.45C209.576 121.424 209.191 121.528 208.871 121.746C208.737 121.868 208.633 122.019 208.567 122.187C208.501 122.356 208.476 122.538 208.493 122.718C208.492 122.872 208.526 123.025 208.593 123.164C208.66 123.303 208.758 123.426 208.879 123.521C209.178 123.766 209.504 123.976 209.851 124.147C210.242 124.345 210.662 124.55 211.111 124.763C211.558 124.973 211.981 125.233 212.37 125.537C212.76 125.841 213.089 126.214 213.342 126.638C213.613 127.126 213.747 127.678 213.727 128.235C213.75 129.115 213.477 129.977 212.951 130.684C212.369 131.404 211.542 131.886 210.628 132.04V134.102L208.699 134.098Z" fill="white"/>
<path d="M83.7606 109.305C83.7606 109.305 81.4879 107.588 80.9248 103.635C80.4888 100.575 83.309 102.558 83.309 102.558C83.309 102.558 83.0165 100.351 84.6228 100.57C86.2291 100.789 87.1277 103.107 87.1277 103.107" fill="#0C0C0C"/>
<path d="M92.924 100.828C92.924 100.828 100.893 101.684 98.0124 112.493L97.3071 112.541L95.8756 112.637" fill="#0C0C0C"/>
<path d="M85.0954 123.782C85.1304 123.778 85.5193 130.235 93.0142 129.673C98.2027 129.284 100.053 123.773 100.172 123.773C99.6122 123.654 98.9209 123.474 98.6461 123.412C98.0473 123.273 97.5051 122.954 97.0915 122.499C96.6778 122.044 96.4125 121.473 96.3307 120.864C96.1788 119.948 96.4358 115.265 96.3571 114.339L88.3926 116.118C88.5039 118.075 89.2829 122.609 86.5533 123.412C86.0984 123.545 85.6092 123.667 85.0954 123.782Z" fill="#EEAF96"/>
<path opacity="0.52" d="M88.2807 121.559C88.4054 121.156 88.4857 120.741 88.5203 120.321C88.6077 119.363 88.5901 118.398 88.4677 117.443C90.0865 117.224 91.6116 116.556 92.8696 115.513C93.0175 116.059 93.8308 118.448 93.6053 118.968C93.1805 119.95 91.1806 121.559 88.2807 121.559Z" fill="#0C0C0C"/>
<path d="M89.9245 120.28C93.0667 119.998 96.8275 118.011 96.8816 113.741L96.9306 109.889C96.9848 105.62 94.7886 102.13 90.7727 102.079C86.7569 102.028 83.7112 105.451 83.657 109.72L83.6353 111.426C83.6381 112.011 83.6808 112.596 83.763 113.176C83.969 114.71 84.2885 117.043 85.3285 118.621C86.3109 120.111 87.9172 120.46 89.9245 120.28Z" fill="#EEAF96"/>
<path d="M88.4668 116.378C87.8184 116.408 87.1721 116.284 86.5802 116.018C86.5679 116.012 86.5568 116.005 86.5475 115.995C86.5382 115.986 86.5309 115.974 86.5259 115.962C86.521 115.95 86.5185 115.936 86.5186 115.923C86.5188 115.91 86.5215 115.897 86.5267 115.884C86.532 115.872 86.5396 115.861 86.5491 115.852C86.5586 115.842 86.5698 115.835 86.5822 115.83C86.5945 115.825 86.6077 115.823 86.621 115.823C86.6343 115.823 86.6475 115.826 86.6597 115.831C87.9349 116.375 89.093 116.296 90.0084 115.6C90.0269 115.586 90.0461 115.572 90.0661 115.559C90.0891 115.549 90.1153 115.547 90.1394 115.555C90.1636 115.563 90.184 115.579 90.1966 115.601C90.2093 115.623 90.2132 115.649 90.2077 115.674C90.2022 115.698 90.1876 115.72 90.1668 115.735C90.1594 115.739 90.1477 115.749 90.1318 115.761C89.6505 116.128 89.0707 116.343 88.4668 116.378Z" fill="#0C0C0C"/>
<path d="M88.4971 117.34C88.3799 117.347 88.2623 117.344 88.1457 117.331C88.1189 117.328 88.0945 117.315 88.0776 117.294C88.0607 117.273 88.0528 117.246 88.0556 117.22C88.0585 117.193 88.0718 117.168 88.0927 117.152C88.1136 117.135 88.1403 117.127 88.167 117.13C88.8689 117.204 89.2039 116.882 89.2181 116.868C89.237 116.849 89.2628 116.839 89.2897 116.839C89.3165 116.839 89.3423 116.849 89.3613 116.868C89.3804 116.887 89.3911 116.913 89.3911 116.94C89.3911 116.967 89.3805 116.993 89.3615 117.012C89.1199 117.218 88.8144 117.334 88.4971 117.34Z" fill="#0C0C0C"/>
<path d="M84.9833 112.247C84.7101 112.247 84.4886 112.025 84.4886 111.751C84.4886 111.478 84.7101 111.256 84.9833 111.256C85.2565 111.256 85.478 111.478 85.478 111.751C85.478 112.025 85.2565 112.247 84.9833 112.247Z" fill="#0C0C0C"/>
<path d="M89.8159 111.943C89.5427 111.943 89.3212 111.721 89.3212 111.448C89.3212 111.174 89.5427 110.953 89.8159 110.953C90.0891 110.953 90.3106 111.174 90.3106 111.448C90.3106 111.721 90.0891 111.943 89.8159 111.943Z" fill="#0C0C0C"/>
<path d="M96.6157 115.039C97.8361 115.055 98.8419 113.76 98.8578 112.539C98.8738 111.317 97.8927 110.631 96.6722 110.615L96.033 111.426L95.5667 115.026L96.6157 115.039Z" fill="#EEAF96"/>
<path d="M95.4023 113.076C95.4023 113.076 94.9901 107.035 93.1601 106.662C91.9413 106.413 88.9856 108.144 86.248 107.621C85.0502 107.393 83.9132 107.689 83.7976 108.255C83.7519 108.48 83.0056 105.257 84.8812 102.812C86.3745 100.865 91.2614 100.315 93.4847 100.953C99.6407 102.721 96.9242 110.881 96.9242 110.881L96.6497 112.964L95.4023 113.076Z" fill="#0C0C0C"/>
<path d="M87.7298 114.952H87.7219C87.3287 114.948 86.6695 114.898 86.6721 114.603C86.6748 114.359 87.3684 111.732 87.4478 111.433C87.4554 111.408 87.4723 111.387 87.4949 111.374C87.5176 111.362 87.5442 111.359 87.5693 111.365C87.5943 111.372 87.6159 111.388 87.6293 111.41C87.6427 111.432 87.6471 111.459 87.6414 111.484C87.3332 112.648 86.8743 114.439 86.8724 114.605C86.9104 114.676 87.3166 114.748 87.7239 114.752C87.7496 114.753 87.774 114.763 87.7923 114.781C87.8105 114.799 87.8211 114.824 87.8219 114.849C87.8226 114.875 87.8135 114.9 87.7964 114.919C87.7793 114.938 87.7554 114.95 87.7298 114.952V114.952Z" fill="#0C0C0C"/>
<path d="M86.3873 109.066C85.974 108.952 85.5376 108.952 85.1243 109.066C84.9213 109.121 84.7276 109.206 84.5497 109.318C84.3739 109.428 84.2127 109.56 84.0699 109.71C84.0426 109.737 84.0267 109.773 84.0257 109.811C84.0246 109.849 84.0386 109.886 84.0645 109.914C84.0904 109.942 84.1262 109.959 84.1642 109.961C84.2023 109.962 84.2396 109.949 84.2681 109.924L84.277 109.916C84.4093 109.794 84.5564 109.688 84.7149 109.603C84.8705 109.517 85.038 109.456 85.2119 109.421C85.5541 109.349 85.9093 109.369 86.2414 109.479L86.2554 109.483C86.3102 109.503 86.3704 109.5 86.4229 109.475C86.4753 109.45 86.5157 109.405 86.535 109.35C86.5544 109.295 86.5512 109.235 86.5262 109.182C86.5011 109.13 86.4563 109.089 86.4015 109.07L86.3873 109.066Z" fill="#0C0C0C"/>
<path d="M89.3141 109.315C89.6286 109.162 89.9779 109.095 90.3266 109.12C90.5036 109.132 90.6778 109.17 90.8433 109.234C91.0116 109.298 91.1712 109.383 91.3184 109.487L91.3279 109.493C91.3595 109.513 91.3976 109.521 91.4345 109.513C91.4713 109.506 91.504 109.485 91.5257 109.454C91.5474 109.424 91.5564 109.386 91.551 109.349C91.5455 109.312 91.526 109.278 91.4964 109.255C91.3348 109.125 91.1575 109.016 90.9686 108.93C90.7773 108.843 90.5741 108.784 90.3656 108.757C89.9408 108.699 89.5083 108.757 89.1137 108.925C89.0603 108.948 89.0183 108.992 88.9969 109.046C88.9756 109.1 88.9766 109.161 88.9998 109.214C89.0231 109.268 89.0666 109.31 89.1208 109.331C89.175 109.353 89.2354 109.352 89.2889 109.328L89.301 109.323L89.3141 109.315Z" fill="#0C0C0C"/>
<path d="M86.9756 104.908C86.0722 104.719 85.5651 103.487 85.8429 102.156C86.1207 100.825 87.0782 99.8989 87.9815 100.088C88.8849 100.277 89.392 101.509 89.1142 102.84C88.8364 104.171 87.8789 105.096 86.9756 104.908Z" fill="#0C0C0C"/>
</svg>
