<svg width="50" height="50" viewBox="0 0 50 50" fill="none" xmlns="http://www.w3.org/2000/svg">
<path d="M13.4633 33.3702V28.285C13.4633 26.706 14.0864 25.2733 15.0903 24.2345L15.1555 24.173C16.1551 23.1706 17.5159 22.553 19.0099 22.553H20.6694C21.6125 22.553 22.4691 22.155 23.0893 21.5126L23.1375 21.4657C23.7293 20.8277 24.0947 19.9628 24.0947 19.0116V16.2224C23.272 16.0175 22.5357 15.5799 21.9565 14.9814C21.1381 14.1356 20.6312 12.9663 20.6312 11.6756C20.6312 10.3878 21.1395 9.21999 21.9594 8.37268C22.7764 7.52392 23.9078 7 25.1567 7C26.4056 7 27.537 7.52388 28.3554 8.36972L28.4177 8.4385C29.1993 9.27996 29.6822 10.4214 29.6822 11.6741C29.6822 12.9648 29.1753 14.1341 28.3569 14.9799L28.2903 15.0443C27.7211 15.6092 27.0088 16.0233 26.2187 16.2209V19.0101C26.2187 19.9847 26.6039 20.8701 27.2255 21.5125C27.8457 22.1535 28.7038 22.553 29.6454 22.553H31.305C32.7988 22.553 34.1596 23.1705 35.1593 24.173L35.2245 24.2344C36.2284 25.272 36.8515 26.7061 36.8515 28.2849V33.3702C37.6416 33.5677 38.3538 33.9804 38.923 34.5453L38.9896 34.6097C39.808 35.4555 40.3149 36.6248 40.3149 37.9155C40.3149 39.2062 39.808 40.3754 38.9896 41.2213C38.1712 42.0671 37.0398 42.591 35.7909 42.591C34.542 42.591 33.4106 42.0671 32.5922 41.2213C31.7737 40.3711 31.2668 39.2033 31.2668 37.9155C31.2668 36.6248 31.7737 35.4555 32.5922 34.6097C33.1713 34.0111 33.9076 33.5736 34.7317 33.3687V28.2849C34.7317 27.3103 34.3466 26.425 33.725 25.784L33.6782 25.7342C33.0623 25.1225 32.224 24.745 31.3036 24.745H29.6441C28.3527 24.745 27.1618 24.284 26.2174 23.5157V33.3719C27.0386 33.5768 27.775 34.0143 28.3541 34.6143C29.1754 35.4572 29.6823 36.6265 29.6823 37.9172C29.6823 39.2079 29.1754 40.3772 28.357 41.223C27.5385 42.0689 26.4071 42.5928 25.1582 42.5928C23.9093 42.5928 22.778 42.0689 21.9595 41.223L21.8972 41.1543C21.1156 40.3128 20.6327 39.1713 20.6327 37.9187C20.6327 36.628 21.1396 35.4587 21.9581 34.6129C22.5372 34.0143 23.2735 33.5768 24.0976 33.3719V23.5157C23.1546 24.2855 21.9623 24.745 20.6709 24.745H19.0114C18.091 24.745 17.2527 25.1225 16.6368 25.7342L16.5901 25.784C15.9699 26.4249 15.5833 27.3118 15.5833 28.2849V33.3687C16.4074 33.5736 17.1437 34.0096 17.7229 34.6097C18.5413 35.4555 19.0482 36.6248 19.0482 37.9155C19.0482 39.2033 18.5399 40.3711 17.72 41.2184C16.903 42.0671 15.7716 42.5911 14.5227 42.5911C13.2766 42.5911 12.1467 42.0657 11.3268 41.2184C10.5055 40.3754 10 39.2062 10 37.9155C10 36.6248 10.5069 35.4555 11.3253 34.6097L11.3919 34.5453C11.9611 33.9804 12.6733 33.5663 13.4633 33.3702Z" fill="#277EB8"/>
</svg>
