<svg width="45" height="45" viewBox="0 0 45 45" fill="none" xmlns="http://www.w3.org/2000/svg">
<circle cx="22.5" cy="22.5" r="22.5" fill="#277EB8" fill-opacity="0.16"/>
<path d="M14.3992 27.7813V24.3523C14.3992 23.2876 14.8308 22.3216 15.5262 21.6211L15.5713 21.5797C16.2638 20.9037 17.2065 20.4873 18.2414 20.4873H19.391C20.0443 20.4873 20.6377 20.2189 21.0673 19.7857L21.1007 19.7542C21.5107 19.3239 21.7638 18.7408 21.7638 18.0994V16.2186C21.1939 16.0804 20.6838 15.7854 20.2826 15.3818C19.7157 14.8115 19.3645 14.023 19.3645 13.1527C19.3645 12.2844 19.7166 11.4969 20.2846 10.9256C20.8506 10.3533 21.6343 10 22.4995 10C23.3646 10 24.1484 10.3533 24.7153 10.9236L24.7585 10.97C25.2999 11.5374 25.6344 12.307 25.6344 13.1517C25.6344 14.022 25.2833 14.8105 24.7163 15.3808L24.6702 15.4242C24.2759 15.8051 23.7825 16.0844 23.2352 16.2176V18.0983C23.2352 18.7555 23.502 19.3525 23.9326 19.7857C24.3622 20.2179 24.9566 20.4873 25.6089 20.4873H26.7585C27.7934 20.4873 28.736 20.9037 29.4286 21.5796L29.4737 21.6211C30.1691 22.3207 30.6008 23.2877 30.6008 24.3523V27.7812C31.1481 27.9145 31.6415 28.1927 32.0358 28.5736L32.0819 28.617C32.6488 29.1874 33 29.9758 33 30.8461C33 31.7164 32.6488 32.5049 32.0819 33.0752C31.5149 33.6456 30.7312 33.9988 29.8661 33.9988C29.0009 33.9988 28.2172 33.6456 27.6502 33.0752C27.0833 32.5019 26.7321 31.7145 26.7321 30.8461C26.7321 29.9758 27.0833 29.1874 27.6502 28.617C28.0514 28.2134 28.5615 27.9184 29.1323 27.7803V24.3523C29.1323 23.6951 28.8655 23.0982 28.4349 22.6659L28.4026 22.6324C27.9759 22.2199 27.3952 21.9653 26.7576 21.9653H25.608C24.7134 21.9653 23.8885 21.6545 23.2342 21.1365V27.7824C23.8031 27.9206 24.3132 28.2156 24.7144 28.6202C25.2833 29.1886 25.6345 29.977 25.6345 30.8473C25.6345 31.7176 25.2833 32.5061 24.7164 33.0764C24.1494 33.6467 23.3657 34 22.5005 34C21.6354 34 20.8517 33.6467 20.2847 33.0764L20.2415 33.03C19.7001 32.4626 19.3656 31.693 19.3656 30.8483C19.3656 29.978 19.7167 29.1896 20.2837 28.6192C20.6849 28.2156 21.195 27.9206 21.7658 27.7824V21.1365C21.1125 21.6555 20.2866 21.9653 19.3921 21.9653H18.2425C17.6049 21.9653 17.0242 22.2199 16.5975 22.6324L16.5651 22.6659C16.1355 23.0981 15.8677 23.6961 15.8677 24.3523V27.7803C16.4386 27.9184 16.9487 28.2125 17.3498 28.617C17.9168 29.1874 18.2679 29.9758 18.2679 30.8461C18.2679 31.7145 17.9158 32.5019 17.3479 33.0732C16.7819 33.6456 15.9981 33.9988 15.133 33.9988C14.2698 33.9988 13.487 33.6446 12.9191 33.0732C12.3502 32.5049 12 31.7164 12 30.8461C12 29.9758 12.3512 29.1874 12.9181 28.617L12.9642 28.5736C13.3585 28.1927 13.8518 27.9135 14.3992 27.7813Z" fill="#277EB8"/>
</svg>
