<svg width="56" height="56" viewBox="0 0 56 56" fill="none" xmlns="http://www.w3.org/2000/svg">
<g filter="url(#filter0_d_202_2747)">
<rect x="2" y="1" width="52" height="52" rx="12" fill="#E8F0F6"/>
<path d="M21.7144 25.8571C24.5547 25.8571 26.8572 23.5546 26.8572 20.7143C26.8572 17.8739 24.5547 15.5714 21.7144 15.5714C18.8741 15.5714 16.5715 17.8739 16.5715 20.7143C16.5715 23.5546 18.8741 25.8571 21.7144 25.8571Z" fill="#277EB8"/>
<path d="M24.8001 28.1428H18.6287C17.4858 28.1428 16.5715 29.0571 16.5715 30.2V36.4857C16.5715 37.6285 17.4858 38.5428 18.6287 38.5428H24.9144C26.0572 38.5428 26.9715 37.6285 26.9715 36.4857V30.2C26.8572 29.0571 25.943 28.1428 24.8001 28.1428Z" fill="#277EB8"/>
<path d="M37.3714 15.5714H31.0857C29.9429 15.5714 29.0286 16.4857 29.0286 17.6286V23.9143C29.0286 25.0571 29.9429 25.9714 31.0857 25.9714H37.3714C38.5143 25.9714 39.4286 25.0571 39.4286 23.9143V17.6286C39.4286 16.4857 38.5143 15.5714 37.3714 15.5714Z" fill="#277EB8"/>
<path d="M37.7145 31.5714H36.0002V29.8571C36.0002 28.9428 35.2002 28.1428 34.2859 28.1428C33.3716 28.1428 32.5716 28.9428 32.5716 29.8571V31.5714H30.8574C29.9431 31.5714 29.1431 32.3714 29.1431 33.2857C29.1431 34.2 29.9431 35 30.8574 35H32.5716V36.7143C32.5716 37.6285 33.3716 38.4285 34.2859 38.4285C35.2002 38.4285 36.0002 37.6285 36.0002 36.7143V35H37.7145C38.6288 35 39.4288 34.2 39.4288 33.2857C39.4288 32.3714 38.6288 31.5714 37.7145 31.5714Z" fill="#277EB8"/>
</g>
<defs>
<filter id="filter0_d_202_2747" x="0" y="0" width="56" height="56" filterUnits="userSpaceOnUse" color-interpolation-filters="sRGB">
<feFlood flood-opacity="0" result="BackgroundImageFix"/>
<feColorMatrix in="SourceAlpha" type="matrix" values="0 0 0 0 0 0 0 0 0 0 0 0 0 0 0 0 0 0 127 0" result="hardAlpha"/>
<feOffset dy="1"/>
<feGaussianBlur stdDeviation="1"/>
<feComposite in2="hardAlpha" operator="out"/>
<feColorMatrix type="matrix" values="0 0 0 0 0 0 0 0 0 0 0 0 0 0 0 0 0 0 0.1 0"/>
<feBlend mode="normal" in2="BackgroundImageFix" result="effect1_dropShadow_202_2747"/>
<feBlend mode="normal" in="SourceGraphic" in2="effect1_dropShadow_202_2747" result="shape"/>
</filter>
</defs>
</svg>
