<svg width="65" height="65" viewBox="0 0 65 65" fill="none" xmlns="http://www.w3.org/2000/svg">
<circle cx="32.5" cy="32.5" r="32.5" fill="#277EB8" fill-opacity="0.16"/>
<path fill-rule="evenodd" clip-rule="evenodd" d="M37.7642 18.0059C36.5462 16.8232 34.9438 16.0873 33.2298 15.9236C31.5159 15.7599 29.7966 16.1785 28.3648 17.1081C26.933 18.0376 25.8773 19.4206 25.3777 21.0214C24.878 22.6223 24.9652 24.3419 25.6245 25.8872C26.2837 27.4326 27.4743 28.7081 28.9932 29.4964C30.5121 30.2848 32.2655 30.5372 33.9545 30.2106C35.6436 29.8841 37.1638 28.9988 38.2561 27.7056C39.3485 26.4124 39.9455 24.7913 39.9453 23.1185C39.9464 22.1687 39.7544 21.2281 39.3801 20.3507C39.0057 19.4733 38.4566 18.6764 37.7642 18.0059ZM39.6784 50.2848C42.0645 50.1034 44.3602 49.8345 46.5417 49.4875C46.8574 49.4399 47.1449 49.2834 47.3515 49.0467C47.5582 48.81 47.6701 48.5089 47.6668 48.1986V46.6798C47.6541 42.7763 46.0523 39.0362 43.2109 36.2757C40.3695 33.5153 36.5193 31.9586 32.5006 31.9455V31.9497C28.4821 31.9616 24.6317 33.5173 21.7901 36.2771C18.9484 39.0369 17.3463 42.7766 17.3336 46.6798V48.1998C17.3305 48.51 17.4425 48.811 17.6491 49.0476C17.8556 49.2843 18.143 49.4408 18.4586 49.4886C20.6397 49.8353 22.9362 50.1049 25.3219 50.286C27.6379 50.462 30.0383 50.5556 32.4998 50.5556C34.9612 50.5556 37.3632 50.462 39.6784 50.2848Z" fill="#277EB8"/>
</svg>
