<svg width="45" height="45" viewBox="0 0 45 45" fill="none" xmlns="http://www.w3.org/2000/svg">
<circle cx="22.5" cy="22.5" r="22.5" fill="#277EB8" fill-opacity="0.16"/>
<path fill-rule="evenodd" clip-rule="evenodd" d="M26.1443 12.4656C25.3011 11.6468 24.1917 11.1374 23.0052 11.024C21.8186 10.9107 20.6283 11.2005 19.6371 11.844C18.6458 12.4876 17.915 13.445 17.569 14.5533C17.2231 15.6615 17.2835 16.852 17.7399 17.9219C18.1963 18.9918 19.0205 19.8748 20.0721 20.4206C21.1237 20.9664 22.3375 21.1411 23.5069 20.915C24.6762 20.689 25.7287 20.0761 26.4849 19.1808C27.2412 18.2855 27.6544 17.1632 27.6543 16.0051C27.6551 15.3476 27.5221 14.6964 27.263 14.0889C27.0039 13.4815 26.6237 12.9298 26.1443 12.4656ZM27.4695 34.8125C29.1215 34.6869 30.7108 34.5008 32.2211 34.2605C32.4396 34.2276 32.6387 34.1193 32.7817 33.9554C32.9248 33.7915 33.0022 33.5831 33 33.3682V32.3168C32.9912 29.6144 31.8822 27.025 29.9151 25.114C27.948 23.2029 25.2825 22.1252 22.5003 22.1161V22.119C19.7183 22.1273 17.0526 23.2043 15.0853 25.1149C13.118 27.0255 12.0089 29.6146 12 32.3168V33.369C11.9979 33.5838 12.0755 33.7922 12.2185 33.956C12.3615 34.1199 12.5604 34.2282 12.7789 34.2613C14.2889 34.5013 15.8788 34.688 17.5305 34.8133C19.1338 34.9352 20.7956 35 22.4997 35C24.2038 35 25.8667 34.9352 27.4695 34.8125Z" fill="#277EB8"/>
</svg>
