<svg width="50" height="50" viewBox="0 0 50 50" fill="none" xmlns="http://www.w3.org/2000/svg">
<path d="M41.9093 29.9036C42.0194 29.4806 31.52 33.6815 31.3252 33.695C31.5511 32.3044 30.8519 30.8597 29.6564 30.1354L24.571 27.0065C22.0814 25.4748 19.0238 25.3242 16.3934 26.6067L9.35742 30.0408C8.89194 29.1252 7.76787 28.6212 6.77122 28.8858L3.76978 29.6236C2.55493 29.8959 1.7476 31.2248 2.07205 32.428L4.6544 42.935C4.9557 44.1866 6.24978 44.9398 7.45884 44.6327L10.4603 43.8949C11.1614 43.723 11.7002 43.2402 11.99 42.6337L27.0127 44.428C28.9364 44.6578 30.9161 44.2117 32.554 43.1706L43.7062 36.1307C46.5377 34.3808 45.2456 29.8804 41.91 29.9056L41.9093 29.9036ZM10.0907 42.3923L7.08925 43.1301C6.67785 43.2325 6.2568 42.9775 6.15445 42.5642L3.5721 32.0572C3.46394 31.6555 3.73241 31.2132 4.138 31.1224L7.13943 30.3846C7.53924 30.2765 7.98345 30.5449 8.07423 30.9505L10.6566 41.4575C10.7589 41.8708 10.504 42.29 10.0907 42.3923ZM42.8803 34.8213L31.7261 41.8613C30.3858 42.713 28.7749 43.078 27.1931 42.8907L12.157 41.0964C12.1531 41.0925 9.81414 31.5437 9.80835 31.5378L17.0688 27.9936C19.2204 26.9448 21.7236 27.0684 23.7591 28.32L28.8465 31.4508C29.903 32.0593 30.1463 33.6507 29.3255 34.5488C28.7886 35.1611 27.9387 35.4025 27.1584 35.1611L20.7751 33.1988C19.8017 32.9187 19.3517 34.3596 20.3212 34.6763C21.0687 34.8482 27.1332 36.9303 27.7686 36.799C28.7131 36.799 29.6247 36.4127 30.3084 35.7328L41.5783 31.4779C43.5175 31.1225 44.5701 33.7647 42.8801 34.8231L42.8803 34.8213Z" fill="#277EB8" stroke="#277EB8"/>
<path d="M32.9531 26.1532C36.362 26.1532 39.1356 23.3796 39.1356 19.9706V9.15066C38.7976 0.951759 27.1107 0.947803 26.7705 9.15066V19.9706C26.7705 23.3796 29.5441 26.1532 32.9531 26.1532ZM32.9531 4.51523C35.5103 4.51523 37.5904 6.59536 37.5904 9.15259V13.7899H28.3176V9.15259C28.3176 6.59536 30.3977 4.51523 32.9549 4.51523H32.9531ZM28.3157 15.3352H37.5885V19.9725C37.5885 22.5298 35.5084 24.6099 32.9512 24.6099C30.394 24.6099 28.3138 22.5298 28.3138 19.9725V15.3352H28.3157Z" fill="#277EB8" stroke="#277EB8"/>
</svg>
