<svg width="36" height="36" viewBox="0 0 36 36" fill="none" xmlns="http://www.w3.org/2000/svg">
<path d="M17.8333 13.8331H18.1666C18.4426 13.8331 18.6666 13.6092 18.6666 13.3331V10.3331C18.6666 10.0571 18.4426 9.83313 18.1666 9.83313H17.8333C17.5572 9.83313 17.3333 10.0571 17.3333 10.3331V13.3331C17.3333 13.6092 17.5572 13.8331 17.8333 13.8331Z" fill="#F3FAFF"/>
<path d="M18.1666 19.4999H17.8333C17.5572 19.4999 17.3333 19.7238 17.3333 19.9999V23.6666C17.3333 23.9426 17.5572 24.1666 17.8333 24.1666H18.1666C18.4426 24.1666 18.6666 23.9426 18.6666 23.6666V19.9999C18.6666 19.7238 18.4426 19.4999 18.1666 19.4999Z" fill="#F3FAFF"/>
<path d="M17.8333 24.8334H18.1666C18.4426 24.8334 18.6666 25.1094 18.6666 25.3334V25.6667C18.6666 25.9428 18.4426 26.1667 18.1666 26.1667H17.8333C17.5572 26.1667 17.3333 25.8907 17.3333 25.6667V25.3334C17.3333 25.0573 17.5572 24.8334 17.8333 24.8334Z" fill="#F3FAFF"/>
<path d="M21.8335 24.8334H23.5002C23.7762 24.8334 24.0002 25.1094 24.0002 25.3334V25.6667C24.0002 25.9428 23.7762 26.1667 23.5002 26.1667H21.8335C21.5575 26.1667 21.3335 25.8907 21.3335 25.6667V25.3334C21.3335 25.0573 21.5575 24.8334 21.8335 24.8334Z" fill="#F3FAFF"/>
<path d="M21.5002 11.8333H23.8335C23.926 11.8333 24.0002 11.9257 24.0002 11.9999V14.3333C24.0002 14.4257 23.926 14.4999 23.8335 14.4999H21.5002C21.4077 14.4999 21.3335 14.4075 21.3335 14.3333V11.9999C21.3335 11.9075 21.4077 11.8333 21.5002 11.8333Z" fill="#F3FAFF"/>
<path d="M19.8333 16.4998H25.4999C25.776 16.4998 25.9999 16.2759 25.9999 15.9998V10.3331C25.9999 10.0571 25.776 9.83313 25.4999 9.83313H19.8333C19.5572 9.83313 19.3333 10.0571 19.3333 10.3331V15.9998C19.3333 16.2759 19.5572 16.4998 19.8333 16.4998ZM20.6666 13.8331V11.367C20.6666 11.2563 20.7564 11.1665 20.8671 11.1665H24.4675C24.5781 11.1665 24.668 11.2563 24.668 11.367V14.9673C24.668 15.078 24.5781 15.1679 24.4675 15.1679H20.8671C20.7564 15.1679 20.6666 15.078 20.6666 14.9673V13.8331Z" fill="#F3FAFF"/>
<path d="M23.1667 20.8333H23.5001C23.7761 20.8333 24.0001 21.1093 24.0001 21.3333V21.6666C24.0001 21.9426 23.7761 22.1666 23.5001 22.1666H23.1667C22.8907 22.1666 22.6667 21.8905 22.6667 21.6666V21.3333C22.6667 21.0572 22.8907 20.8333 23.1667 20.8333Z" fill="#F3FAFF"/>
<path d="M12.1669 11.8333H14.5003C14.5927 11.8333 14.6669 11.9257 14.6669 11.9999V14.3333C14.6669 14.4257 14.5927 14.4999 14.5003 14.4999H12.1669C12.0745 14.4999 12.0002 14.4075 12.0002 14.3333V11.9999C12.0002 11.9075 12.0745 11.8333 12.1669 11.8333Z" fill="#F3FAFF"/>
<path d="M10 10.3331V15.9998C10 16.2759 10.224 16.4998 10.5 16.4998H16.1667C16.4427 16.4998 16.6667 16.2759 16.6667 15.9998V10.3331C16.6667 10.0571 16.4427 9.83313 16.1667 9.83313H10.5C10.224 9.83313 10 10.0571 10 10.3331ZM11.3333 13.8331V11.367C11.3333 11.2563 11.4232 11.1665 11.5339 11.1665H15.1342C15.2449 11.1665 15.3347 11.2563 15.3347 11.367V14.9673C15.3347 15.078 15.2449 15.1679 15.1342 15.1679H11.5339C11.4232 15.1679 11.3333 15.078 11.3333 14.9673V13.8331Z" fill="#F3FAFF"/>
<path d="M12.1669 21.5H14.5003C14.5927 21.5 14.6669 21.5924 14.6669 21.6667V24C14.6669 24.0925 14.5927 24.1667 14.5003 24.1667H12.1669C12.0745 24.1667 12.0002 24.0742 12.0002 24V21.6667C12.0002 21.5742 12.0745 21.5 12.1669 21.5Z" fill="#F3FAFF"/>
<path d="M16.1667 19.4999H10.5C10.224 19.4999 10 19.7238 10 19.9999V25.6666C10 25.9426 10.224 26.1666 10.5 26.1666H16.1667C16.4427 26.1666 16.6667 25.9426 16.6667 25.6666V19.9999C16.6667 19.7238 16.4427 19.4999 16.1667 19.4999ZM15.3333 22.1666V24.6327C15.3333 24.7434 15.2435 24.8332 15.1328 24.8332H11.5325C11.4218 24.8332 11.332 24.7434 11.332 24.6327V21.0323C11.332 20.9217 11.4218 20.8318 11.5325 20.8318H15.1328C15.2435 20.8318 15.3333 20.9217 15.3333 21.0323V22.1666Z" fill="#F3FAFF"/>
<path d="M26.0001 25.6666V19.9999C26.0001 19.7238 25.7761 19.4999 25.5001 19.4999H25.1667C24.8907 19.4999 24.6667 19.7238 24.6667 19.9999V22.7004C24.6667 22.7746 24.6069 22.8332 24.5339 22.8332H19.8333C19.5572 22.8332 19.3333 23.0572 19.3333 23.3332V25.6666C19.3333 25.9426 19.5572 26.1666 19.8333 26.1666H20.1666C20.4426 26.1666 20.6666 25.9426 20.6666 25.6666V24.3671C20.6666 24.2564 20.7564 24.1666 20.8671 24.1666H24.4675C24.5781 24.1666 24.668 24.2564 24.668 24.3671V25.6666C24.668 25.9426 24.8919 26.1666 25.168 26.1666H25.5013C25.7773 26.1666 26.0013 25.9426 26.0013 25.6666L26.0001 25.6666Z" fill="#F3FAFF"/>
<path d="M20.1666 19.4999H19.8333C19.5572 19.4999 19.3333 19.7239 19.3333 19.9999V21.6666C19.3333 21.9426 19.5572 22.1666 19.8333 22.1666H21.4999C21.776 22.1666 21.9999 21.9426 21.9999 21.6666V21.3332C21.9999 21.0572 21.776 20.8332 21.4999 20.8332H20.7994C20.7252 20.8332 20.6666 20.7733 20.6666 20.7004V19.9999C20.6666 19.7238 20.4426 19.4999 20.1666 19.4999Z" fill="#F3FAFF"/>
<path d="M14.1668 17.5H5.16675C4.89071 17.5 4.66675 17.7239 4.66675 18C4.66675 18.276 4.89071 18.5 5.16675 18.5H30.8335C31.1095 18.5 31.3335 18.276 31.3335 18C31.3335 17.7239 31.1095 17.5 30.8335 17.5H18.8375C18.745 17.5 18.6708 17.4257 18.6708 17.3333V15.6666C18.6708 15.3906 18.4468 15.1666 18.1708 15.1666H17.8336C17.5575 15.1666 17.3336 15.3906 17.3336 15.6666V17.3333C17.3336 17.4257 17.2593 17.5 17.1669 17.5H14.1668Z" fill="#F3FAFF"/>
<path d="M30.8334 25.6665C30.4662 25.6665 30.1668 25.966 30.1668 26.3332V28.6665C30.1668 29.4933 29.4936 30.1665 28.6668 30.1665H26.3334C25.9662 30.1665 25.6667 30.466 25.6667 30.8332C25.6667 31.2004 25.9662 31.4999 26.3334 31.4999H28.6668C30.2293 31.4999 31.5001 30.229 31.5001 28.6665V26.3332C31.5001 25.966 31.2006 25.6665 30.8334 25.6665Z" fill="#F3FAFF"/>
<path d="M28.6668 4.49988H26.3334C25.9662 4.49988 25.6667 4.79936 25.6667 5.16655C25.6667 5.53373 25.9662 5.83322 26.3334 5.83322H28.6668C29.4936 5.83322 30.1668 6.50638 30.1668 7.33322V9.66656C30.1668 10.0338 30.4662 10.3332 30.8334 10.3332C31.2006 10.3332 31.5001 10.0337 31.5001 9.66656V7.33322C31.5001 5.77071 30.2293 4.49988 28.6668 4.49988Z" fill="#F3FAFF"/>
<path d="M5.16667 10.3334C5.53387 10.3334 5.83334 10.0339 5.83334 9.66668V7.33334C5.83334 6.50651 6.50651 5.83334 7.33334 5.83334H9.66668C10.0339 5.83334 10.3334 5.53386 10.3334 5.16667C10.3334 4.79948 10.0339 4.5 9.66668 4.5H7.33334C5.77084 4.5 4.5 5.77084 4.5 7.33334V9.66668C4.5 10.0339 4.79948 10.3334 5.16667 10.3334Z" fill="#F3FAFF"/>
<path d="M9.66668 30.1665H7.33334C6.50651 30.1665 5.83334 29.4933 5.83334 28.6665V26.3332C5.83334 25.966 5.53386 25.6665 5.16667 25.6665C4.79948 25.6665 4.5 25.966 4.5 26.3332V28.6665C4.5 30.229 5.77084 31.4999 7.33334 31.4999H9.66668C10.0339 31.4999 10.3334 31.2004 10.3334 30.8332C10.3334 30.466 10.0339 30.1665 9.66668 30.1665Z" fill="#F3FAFF"/>
</svg>
