<svg width="50" height="50" viewBox="0 0 50 50" fill="none" xmlns="http://www.w3.org/2000/svg">
<path d="M36.5496 29.2C31.3416 29.2 27.0996 24.958 27.0996 19.75V13.45C27.0996 8.242 31.3416 4 36.5496 4C41.7576 4 45.9996 8.242 45.9996 13.45V19.75C45.9996 24.958 41.7576 29.2 36.5496 29.2ZM36.5496 8.2C33.6516 8.2 31.2996 10.552 31.2996 13.45V19.75C31.2996 22.648 33.6516 25 36.5496 25C39.4476 25 41.7996 22.648 41.7996 19.75V13.45C41.7996 10.552 39.4476 8.2 36.5496 8.2Z" fill="#277EB8"/>
<path d="M38.6502 25H34.4502V46H38.6502V25Z" fill="#277EB8"/>
<path d="M14 6H11V29H14V6Z" fill="#277EB8"/>
<path d="M12.4 29.2001C7.759 29.2001 4 25.4411 4 20.8001V6.1001H8.2V20.8001C8.2 23.1101 10.09 25.0001 12.4 25.0001C14.71 25.0001 16.6 23.1101 16.6 20.8001V6.1001H20.8V20.8001C20.8 25.4411 17.041 29.2001 12.4 29.2001Z" fill="#277EB8"/>
<path d="M14 27H11V46H14V27Z" fill="#277EB8"/>
</svg>
