<svg width="236" height="148" viewBox="0 0 236 148" fill="none" xmlns="http://www.w3.org/2000/svg">
<path opacity="0.1" d="M210.866 147.644C232.858 147.644 239.558 129.604 233.222 107.511C229.639 95.017 221.353 78.6786 207.817 71.2848C170.774 51.0508 175.766 50.0793 166.596 28.5426C151.626 -6.6147 94.0647 -7.97136 70.5447 17.2215C52.2443 36.8236 44.4129 64.4571 19.4798 84.8174C-10.6159 109.394 -2.4073 148 26.5015 148L210.866 147.644Z" fill="#367CFF"/>
<path d="M125.601 114.29H101.52V132.41H125.601V114.29Z" fill="#292A2E"/>
<path opacity="0.64" d="M125.602 114.291H101.52V123.97H125.602V114.291Z" fill="#0C0C0C"/>
<path d="M164.59 46.4525H62.41C60.8029 46.4525 59.5 47.6842 59.5 49.2036V116.621C59.5 118.141 60.8029 119.372 62.41 119.372H164.59C166.197 119.372 167.5 118.141 167.5 116.621V49.2036C167.5 47.6842 166.197 46.4525 164.59 46.4525Z" fill="url(#paint0_linear_4404_7928)"/>
<path d="M130.612 130.921H96.5096C95.6368 130.921 94.9292 131.625 94.9292 132.494C94.9292 133.362 95.6368 134.066 96.5096 134.066H130.612C131.485 134.066 132.192 133.362 132.192 132.494C132.192 131.625 131.485 130.921 130.612 130.921Z" fill="#292A2E"/>
<path d="M72.6478 55.6331H66.5634C66.5364 55.6341 66.5095 55.6297 66.4843 55.6201C66.459 55.6105 66.436 55.5959 66.4165 55.5772C66.3971 55.5586 66.3816 55.5362 66.371 55.5114C66.3604 55.4867 66.355 55.4601 66.355 55.4332C66.355 55.4063 66.3604 55.3796 66.371 55.3549C66.3816 55.3301 66.3971 55.3077 66.4165 55.2891C66.436 55.2704 66.459 55.2558 66.4843 55.2462C66.5095 55.2366 66.5364 55.2322 66.5634 55.2332H72.6467C72.6987 55.2351 72.748 55.257 72.7841 55.2943C72.8202 55.3316 72.8404 55.3814 72.8404 55.4332C72.8404 55.485 72.8202 55.5347 72.7841 55.572C72.748 55.6093 72.6987 55.6312 72.6467 55.6331H72.6478Z" fill="#292A2E"/>
<path d="M73.277 75.3655H66.5634C66.5101 75.3655 66.4589 75.3444 66.4212 75.3068C66.3835 75.2693 66.3623 75.2184 66.3623 75.1653C66.3623 75.1123 66.3835 75.0614 66.4212 75.0238C66.4589 74.9863 66.5101 74.9652 66.5634 74.9652H73.2759C73.3293 74.9652 73.3804 74.9863 73.4181 75.0238C73.4558 75.0614 73.477 75.1123 73.477 75.1653C73.477 75.2184 73.4558 75.2693 73.4181 75.3068C73.3804 75.3444 73.3293 75.3655 73.2759 75.3655H73.277Z" fill="#292A2E"/>
<path d="M70.9694 79.3121H66.5634C66.5101 79.3121 66.4589 79.291 66.4212 79.2535C66.3835 79.216 66.3623 79.1651 66.3623 79.112C66.3623 79.0589 66.3835 79.008 66.4212 78.9705C66.4589 78.9329 66.5101 78.9119 66.5634 78.9119H70.9683C71.0216 78.9119 71.0728 78.9329 71.1105 78.9705C71.1482 79.008 71.1694 79.0589 71.1694 79.112C71.1694 79.1651 71.1482 79.216 71.1105 79.2535C71.0728 79.291 71.0216 79.3121 70.9683 79.3121H70.9694Z" fill="#292A2E"/>
<path d="M164.278 49H62.7216C62.0469 49 61.5 49.5041 61.5 50.126V105.874C61.5 106.496 62.0469 107 62.7216 107H164.278C164.953 107 165.5 106.496 165.5 105.874V50.126C165.5 49.5041 164.953 49 164.278 49Z" fill="white"/>
<path d="M96.2705 58.2645H91.6456C91.618 58.2654 91.5905 58.2612 91.5647 58.2521C91.5389 58.2431 91.5153 58.2293 91.4955 58.2116C91.4756 58.194 91.4598 58.1728 91.449 58.1494C91.4382 58.1259 91.4326 58.1008 91.4326 58.0753C91.4326 58.0499 91.4382 58.0247 91.449 58.0013C91.4598 57.9778 91.4756 57.9567 91.4955 57.939C91.5153 57.9213 91.5389 57.9076 91.5647 57.8985C91.5905 57.8894 91.618 57.8852 91.6456 57.8861H96.2705C96.3237 57.8879 96.374 57.9086 96.4109 57.9439C96.4478 57.9792 96.4684 58.0263 96.4684 58.0753C96.4684 58.1243 96.4478 58.1714 96.4109 58.2067C96.374 58.242 96.3237 58.2627 96.2705 58.2645Z" fill="#292A2E"/>
<path d="M88.31 58.2645H86.5601C86.5325 58.2654 86.505 58.2612 86.4792 58.2521C86.4534 58.2431 86.4299 58.2293 86.41 58.2116C86.3901 58.194 86.3743 58.1728 86.3635 58.1494C86.3527 58.1259 86.3472 58.1008 86.3472 58.0753C86.3472 58.0499 86.3527 58.0247 86.3635 58.0013C86.3743 57.9778 86.3901 57.9567 86.41 57.939C86.4299 57.9213 86.4534 57.9076 86.4792 57.8985C86.505 57.8894 86.5325 57.8852 86.5601 57.8861H88.31C88.3376 57.8852 88.3651 57.8894 88.3909 57.8985C88.4167 57.9076 88.4402 57.9213 88.4601 57.939C88.48 57.9567 88.4958 57.9778 88.5066 58.0013C88.5174 58.0247 88.523 58.0499 88.523 58.0753C88.523 58.1008 88.5174 58.1259 88.5066 58.1494C88.4958 58.1728 88.48 58.194 88.4601 58.2116C88.4402 58.2293 88.4167 58.2431 88.3909 58.2521C88.3651 58.2612 88.3376 58.2654 88.31 58.2645Z" fill="#367CFF"/>
<path d="M88.3098 61.6792H86.5599C86.5054 61.6792 86.4532 61.6592 86.4146 61.6237C86.3761 61.5882 86.3545 61.5401 86.3545 61.4899C86.3545 61.4396 86.3761 61.3915 86.4146 61.356C86.4532 61.3205 86.5054 61.3005 86.5599 61.3005H88.3098C88.3643 61.3005 88.4165 61.3205 88.455 61.356C88.4936 61.3915 88.5152 61.4396 88.5152 61.4899C88.5152 61.5401 88.4936 61.5882 88.455 61.6237C88.4165 61.6592 88.3643 61.6792 88.3098 61.6792Z" fill="#367CFF"/>
<path d="M88.3098 65.0939H86.5599C86.5054 65.0939 86.4532 65.0739 86.4146 65.0384C86.3761 65.0029 86.3545 64.9547 86.3545 64.9045C86.3545 64.8543 86.3761 64.8062 86.4146 64.7707C86.4532 64.7352 86.5054 64.7152 86.5599 64.7152H88.3098C88.3643 64.7152 88.4165 64.7352 88.455 64.7707C88.4936 64.8062 88.5152 64.8543 88.5152 64.9045C88.5152 64.9547 88.4936 65.0029 88.455 65.0384C88.4165 65.0739 88.3643 65.0939 88.3098 65.0939Z" fill="#367CFF"/>
<path d="M88.3098 68.5085H86.5599C86.5054 68.5085 86.4532 68.4886 86.4146 68.4531C86.3761 68.4176 86.3545 68.3694 86.3545 68.3192C86.3545 68.269 86.3761 68.2208 86.4146 68.1853C86.4532 68.1498 86.5054 68.1299 86.5599 68.1299H88.3098C88.3643 68.1299 88.4165 68.1498 88.455 68.1853C88.4936 68.2208 88.5152 68.269 88.5152 68.3192C88.5152 68.3694 88.4936 68.4176 88.455 68.4531C88.4165 68.4886 88.3643 68.5085 88.3098 68.5085Z" fill="#367CFF"/>
<path d="M88.31 71.9229H86.5601C86.5325 71.9239 86.505 71.9197 86.4792 71.9106C86.4534 71.9015 86.4299 71.8877 86.41 71.8701C86.3901 71.8524 86.3743 71.8312 86.3635 71.8078C86.3527 71.7844 86.3472 71.7592 86.3472 71.7338C86.3472 71.7083 86.3527 71.6831 86.3635 71.6597C86.3743 71.6363 86.3901 71.6151 86.41 71.5974C86.4299 71.5798 86.4534 71.566 86.4792 71.5569C86.505 71.5478 86.5325 71.5436 86.5601 71.5446H88.31C88.3376 71.5436 88.3651 71.5478 88.3909 71.5569C88.4167 71.566 88.4402 71.5798 88.4601 71.5974C88.48 71.6151 88.4958 71.6363 88.5066 71.6597C88.5174 71.6831 88.523 71.7083 88.523 71.7338C88.523 71.7592 88.5174 71.7844 88.5066 71.8078C88.4958 71.8312 88.48 71.8524 88.4601 71.8701C88.4402 71.8877 88.4167 71.9015 88.3909 71.9106C88.3651 71.9197 88.3376 71.9239 88.31 71.9229Z" fill="#367CFF"/>
<path d="M88.3098 75.3366H86.5599C86.5054 75.3366 86.4532 75.3167 86.4146 75.2812C86.3761 75.2457 86.3545 75.1975 86.3545 75.1473C86.3545 75.0971 86.3761 75.049 86.4146 75.0135C86.4532 74.978 86.5054 74.958 86.5599 74.958H88.3098C88.3643 74.958 88.4165 74.978 88.455 75.0135C88.4936 75.049 88.5152 75.0971 88.5152 75.1473C88.5152 75.1975 88.4936 75.2457 88.455 75.2812C88.4165 75.3167 88.3643 75.3366 88.3098 75.3366Z" fill="#367CFF"/>
<path d="M88.3098 78.7523H86.5599C86.5054 78.7523 86.4532 78.7324 86.4146 78.6968C86.3761 78.6613 86.3545 78.6132 86.3545 78.563C86.3545 78.5128 86.3761 78.4646 86.4146 78.4291C86.4532 78.3936 86.5054 78.3737 86.5599 78.3737H88.3098C88.3643 78.3737 88.4165 78.3936 88.455 78.4291C88.4936 78.4646 88.5152 78.5128 88.5152 78.563C88.5152 78.6132 88.4936 78.6613 88.455 78.6968C88.4165 78.7324 88.3643 78.7523 88.3098 78.7523Z" fill="#367CFF"/>
<path d="M88.31 82.1667H86.5601C86.5325 82.1677 86.505 82.1635 86.4792 82.1544C86.4534 82.1453 86.4299 82.1315 86.41 82.1138C86.3901 82.0962 86.3743 82.075 86.3635 82.0516C86.3527 82.0282 86.3472 82.003 86.3472 81.9775C86.3472 81.9521 86.3527 81.9269 86.3635 81.9035C86.3743 81.8801 86.3901 81.8589 86.41 81.8412C86.4299 81.8236 86.4534 81.8098 86.4792 81.8007C86.505 81.7916 86.5325 81.7874 86.5601 81.7883H88.31C88.3376 81.7874 88.3651 81.7916 88.3909 81.8007C88.4167 81.8098 88.4402 81.8236 88.4601 81.8412C88.48 81.8589 88.4958 81.8801 88.5066 81.9035C88.5174 81.9269 88.523 81.9521 88.523 81.9775C88.523 82.003 88.5174 82.0282 88.5066 82.0516C88.4958 82.075 88.48 82.0962 88.4601 82.1138C88.4402 82.1315 88.4167 82.1453 88.3909 82.1544C88.3651 82.1635 88.3376 82.1677 88.31 82.1667Z" fill="#367CFF"/>
<path d="M88.3098 85.5819H86.5599C86.5054 85.5819 86.4532 85.5619 86.4146 85.5264C86.3761 85.4909 86.3545 85.4428 86.3545 85.3926C86.3545 85.3424 86.3761 85.2942 86.4146 85.2587C86.4532 85.2232 86.5054 85.2032 86.5599 85.2032H88.3098C88.3643 85.2032 88.4165 85.2232 88.455 85.2587C88.4936 85.2942 88.5152 85.3424 88.5152 85.3926C88.5152 85.4428 88.4936 85.4909 88.455 85.5264C88.4165 85.5619 88.3643 85.5819 88.3098 85.5819Z" fill="#367CFF"/>
<path d="M88.3098 88.9961H86.5599C86.5054 88.9961 86.4532 88.9761 86.4146 88.9406C86.3761 88.9051 86.3545 88.857 86.3545 88.8068C86.3545 88.7565 86.3761 88.7084 86.4146 88.6729C86.4532 88.6374 86.5054 88.6174 86.5599 88.6174H88.3098C88.3643 88.6174 88.4165 88.6374 88.455 88.6729C88.4936 88.7084 88.5152 88.7565 88.5152 88.8068C88.5152 88.857 88.4936 88.9051 88.455 88.9406C88.4165 88.9761 88.3643 88.9961 88.3098 88.9961Z" fill="#367CFF"/>
<path d="M88.31 92.4105H86.5601C86.5325 92.4114 86.505 92.4072 86.4792 92.3981C86.4534 92.3891 86.4299 92.3753 86.41 92.3576C86.3901 92.3399 86.3743 92.3188 86.3635 92.2954C86.3527 92.2719 86.3472 92.2468 86.3472 92.2213C86.3472 92.1959 86.3527 92.1707 86.3635 92.1472C86.3743 92.1238 86.3901 92.1027 86.41 92.085C86.4299 92.0673 86.4534 92.0535 86.4792 92.0445C86.505 92.0354 86.5325 92.0312 86.5601 92.0321H88.31C88.3376 92.0312 88.3651 92.0354 88.3909 92.0445C88.4167 92.0535 88.4402 92.0673 88.4601 92.085C88.48 92.1027 88.4958 92.1238 88.5066 92.1472C88.5174 92.1707 88.523 92.1959 88.523 92.2213C88.523 92.2468 88.5174 92.2719 88.5066 92.2954C88.4958 92.3188 88.48 92.3399 88.4601 92.3576C88.4402 92.3753 88.4167 92.3891 88.3909 92.3981C88.3651 92.4072 88.3376 92.4114 88.31 92.4105Z" fill="#367CFF"/>
<path d="M88.3098 95.8252H86.5599C86.5054 95.8252 86.4532 95.8052 86.4146 95.7697C86.3761 95.7342 86.3545 95.6861 86.3545 95.6359C86.3545 95.5857 86.3761 95.5375 86.4146 95.502C86.4532 95.4665 86.5054 95.4465 86.5599 95.4465H88.3098C88.3643 95.4465 88.4165 95.4665 88.455 95.502C88.4936 95.5375 88.5152 95.5857 88.5152 95.6359C88.5152 95.6861 88.4936 95.7342 88.455 95.7697C88.4165 95.8052 88.3643 95.8252 88.3098 95.8252Z" fill="#367CFF"/>
<path d="M88.3098 99.2398H86.5599C86.5054 99.2398 86.4532 99.2199 86.4146 99.1844C86.3761 99.1489 86.3545 99.1007 86.3545 99.0505C86.3545 99.0003 86.3761 98.9522 86.4146 98.9167C86.4532 98.8812 86.5054 98.8612 86.5599 98.8612H88.3098C88.3643 98.8612 88.4165 98.8812 88.455 98.9167C88.4936 98.9522 88.5152 99.0003 88.5152 99.0505C88.5152 99.1007 88.4936 99.1489 88.455 99.1844C88.4165 99.2199 88.3643 99.2398 88.3098 99.2398Z" fill="#367CFF"/>
<path d="M88.31 102.654H86.5601C86.5325 102.655 86.505 102.651 86.4792 102.642C86.4534 102.633 86.4299 102.619 86.41 102.601C86.3901 102.584 86.3743 102.563 86.3635 102.539C86.3527 102.516 86.3472 102.491 86.3472 102.465C86.3472 102.44 86.3527 102.414 86.3635 102.391C86.3743 102.368 86.3901 102.346 86.41 102.329C86.4299 102.311 86.4534 102.297 86.4792 102.288C86.505 102.279 86.5325 102.275 86.5601 102.276H88.31C88.3376 102.275 88.3651 102.279 88.3909 102.288C88.4167 102.297 88.4402 102.311 88.4601 102.329C88.48 102.346 88.4958 102.368 88.5066 102.391C88.5174 102.414 88.523 102.44 88.523 102.465C88.523 102.491 88.5174 102.516 88.5066 102.539C88.4958 102.563 88.48 102.584 88.4601 102.601C88.4402 102.619 88.4167 102.633 88.3909 102.642C88.3651 102.651 88.3376 102.655 88.31 102.654Z" fill="#367CFF"/>
<path d="M99.9668 61.6792H95.7535C95.7259 61.6801 95.6984 61.6759 95.6726 61.6668C95.6468 61.6577 95.6233 61.6439 95.6034 61.6263C95.5835 61.6086 95.5677 61.5875 95.5569 61.564C95.5461 61.5406 95.5405 61.5154 95.5405 61.49C95.5405 61.4645 95.5461 61.4393 95.5569 61.4159C95.5677 61.3925 95.5835 61.3713 95.6034 61.3537C95.6233 61.336 95.6468 61.3222 95.6726 61.3131C95.6984 61.3041 95.7259 61.2999 95.7535 61.3008H99.9668C99.9944 61.2999 100.022 61.3041 100.048 61.3131C100.073 61.3222 100.097 61.336 100.117 61.3537C100.137 61.3713 100.153 61.3925 100.163 61.4159C100.174 61.4393 100.18 61.4645 100.18 61.49C100.18 61.5154 100.174 61.5406 100.163 61.564C100.153 61.5875 100.137 61.6086 100.117 61.6263C100.097 61.6439 100.073 61.6577 100.048 61.6668C100.022 61.6759 99.9944 61.6801 99.9668 61.6792Z" fill="#292A2E"/>
<path d="M96.2705 82.1667H91.6456C91.618 82.1677 91.5905 82.1635 91.5647 82.1544C91.5389 82.1453 91.5153 82.1315 91.4955 82.1138C91.4756 82.0962 91.4598 82.075 91.449 82.0516C91.4382 82.0282 91.4326 82.003 91.4326 81.9775C91.4326 81.9521 91.4382 81.9269 91.449 81.9035C91.4598 81.8801 91.4756 81.8589 91.4955 81.8412C91.5153 81.8236 91.5389 81.8098 91.5647 81.8007C91.5905 81.7916 91.618 81.7874 91.6456 81.7883H96.2705C96.3237 81.7901 96.374 81.8109 96.4109 81.8461C96.4478 81.8814 96.4684 81.9285 96.4684 81.9775C96.4684 82.0265 96.4478 82.0736 96.4109 82.1089C96.374 82.1442 96.3237 82.1649 96.2705 82.1667Z" fill="#292A2E"/>
<path d="M99.9666 85.5819H95.7533C95.6988 85.5819 95.6465 85.5619 95.608 85.5264C95.5695 85.4909 95.5479 85.4428 95.5479 85.3926C95.5479 85.3424 95.5695 85.2942 95.608 85.2587C95.6465 85.2232 95.6988 85.2032 95.7533 85.2032H99.9666C100.021 85.2032 100.073 85.2232 100.112 85.2587C100.15 85.2942 100.172 85.3424 100.172 85.3926C100.172 85.4428 100.15 85.4909 100.112 85.5264C100.073 85.5619 100.021 85.5819 99.9666 85.5819Z" fill="#292A2E"/>
<path d="M129.331 65.0939H98.6273C98.5728 65.0939 98.5205 65.0739 98.482 65.0384C98.4435 65.0029 98.4219 64.9547 98.4219 64.9045C98.4219 64.8543 98.4435 64.8062 98.482 64.7707C98.5205 64.7352 98.5728 64.7152 98.6273 64.7152H129.331C129.386 64.7152 129.438 64.7352 129.477 64.7707C129.515 64.8062 129.537 64.8543 129.537 64.9045C129.537 64.9547 129.515 65.0029 129.477 65.0384C129.438 65.0739 129.386 65.0939 129.331 65.0939Z" fill="#292A2E"/>
<path d="M151.545 65.0939H133.777C133.723 65.0939 133.67 65.0739 133.632 65.0384C133.593 65.0029 133.572 64.9547 133.572 64.9045C133.572 64.8543 133.593 64.8062 133.632 64.7707C133.67 64.7352 133.723 64.7152 133.777 64.7152H151.545C151.6 64.7152 151.652 64.7352 151.691 64.7707C151.729 64.8062 151.751 64.8543 151.751 64.9045C151.751 64.9547 151.729 65.0029 151.691 65.0384C151.652 65.0739 151.6 65.0939 151.545 65.0939Z" fill="#0CBC8B"/>
<path d="M161.081 65.0939H155.635C155.581 65.0939 155.528 65.0739 155.49 65.0384C155.451 65.0029 155.43 64.9547 155.43 64.9045C155.43 64.8543 155.451 64.8062 155.49 64.7707C155.528 64.7352 155.581 64.7152 155.635 64.7152H161.081C161.136 64.7152 161.188 64.7352 161.226 64.7707C161.265 64.8062 161.287 64.8543 161.287 64.9045C161.287 64.9547 161.265 65.0029 161.226 65.0384C161.188 65.0739 161.136 65.0939 161.081 65.0939H161.081Z" fill="#292A2E"/>
<path d="M141.653 71.9229H98.6275C98.5999 71.9239 98.5724 71.9197 98.5466 71.9106C98.5208 71.9015 98.4973 71.8877 98.4774 71.8701C98.4575 71.8524 98.4417 71.8312 98.4309 71.8078C98.4201 71.7844 98.4146 71.7592 98.4146 71.7338C98.4146 71.7083 98.4201 71.6831 98.4309 71.6597C98.4417 71.6363 98.4575 71.6151 98.4774 71.5974C98.4973 71.5798 98.5208 71.566 98.5466 71.5569C98.5724 71.5478 98.5999 71.5436 98.6275 71.5446H141.653C141.68 71.5436 141.708 71.5478 141.734 71.5569C141.759 71.566 141.783 71.5798 141.803 71.5974C141.823 71.6151 141.838 71.6363 141.849 71.6597C141.86 71.6831 141.866 71.7083 141.866 71.7338C141.866 71.7592 141.86 71.7844 141.849 71.8078C141.838 71.8312 141.823 71.8524 141.803 71.8701C141.783 71.8877 141.759 71.9015 141.734 71.9106C141.708 71.9197 141.68 71.9239 141.653 71.9229Z" fill="#292A2E"/>
<path d="M151.545 71.9229H146.1C146.072 71.9239 146.045 71.9197 146.019 71.9106C145.993 71.9015 145.969 71.8877 145.95 71.8701C145.93 71.8524 145.914 71.8312 145.903 71.8078C145.892 71.7844 145.887 71.7592 145.887 71.7338C145.887 71.7083 145.892 71.6831 145.903 71.6597C145.914 71.6363 145.93 71.6151 145.95 71.5974C145.969 71.5798 145.993 71.566 146.019 71.5569C146.045 71.5478 146.072 71.5436 146.1 71.5446H151.546C151.574 71.5436 151.601 71.5478 151.627 71.5569C151.653 71.566 151.676 71.5798 151.696 71.5974C151.716 71.6151 151.732 71.6363 151.743 71.6597C151.753 71.6831 151.759 71.7083 151.759 71.7338C151.759 71.7592 151.753 71.7844 151.743 71.8078C151.732 71.8312 151.716 71.8524 151.696 71.8701C151.676 71.8877 151.653 71.9015 151.627 71.9106C151.601 71.9197 151.574 71.9239 151.546 71.9229H151.545Z" fill="#367CFF"/>
<path d="M103.252 68.5085H98.6273C98.5728 68.5085 98.5205 68.4886 98.482 68.4531C98.4435 68.4176 98.4219 68.3694 98.4219 68.3192C98.4219 68.269 98.4435 68.2208 98.482 68.1853C98.5205 68.1498 98.5728 68.1299 98.6273 68.1299H103.252C103.307 68.1299 103.359 68.1498 103.397 68.1853C103.436 68.2208 103.458 68.269 103.458 68.3192C103.458 68.3694 103.436 68.4176 103.397 68.4531C103.359 68.4886 103.307 68.5085 103.252 68.5085Z" fill="#0CBC8B"/>
<path d="M139.225 68.5085H107.699C107.644 68.5085 107.592 68.4886 107.553 68.4531C107.515 68.4176 107.493 68.3694 107.493 68.3192C107.493 68.269 107.515 68.2208 107.553 68.1853C107.592 68.1498 107.644 68.1299 107.699 68.1299H139.225C139.28 68.1299 139.332 68.1498 139.37 68.1853C139.409 68.2208 139.431 68.269 139.431 68.3192C139.431 68.3694 139.409 68.4176 139.37 68.4531C139.332 68.4886 139.28 68.5085 139.225 68.5085Z" fill="#367CFF"/>
<path d="M161.116 68.5085H144.17C144.116 68.5085 144.064 68.4886 144.025 68.4531C143.986 68.4176 143.965 68.3694 143.965 68.3192C143.965 68.269 143.986 68.2208 144.025 68.1853C144.064 68.1498 144.116 68.1299 144.17 68.1299H161.116C161.171 68.1299 161.223 68.1498 161.261 68.1853C161.3 68.2208 161.322 68.269 161.322 68.3192C161.322 68.3694 161.3 68.4176 161.261 68.4531C161.223 68.4886 161.171 68.5085 161.116 68.5085Z" fill="#292A2E"/>
<path d="M129.331 75.3366H98.6273C98.5728 75.3366 98.5205 75.3167 98.482 75.2812C98.4435 75.2457 98.4219 75.1975 98.4219 75.1473C98.4219 75.0971 98.4435 75.049 98.482 75.0135C98.5205 74.978 98.5728 74.958 98.6273 74.958H129.331C129.386 74.958 129.438 74.978 129.477 75.0135C129.515 75.049 129.537 75.0971 129.537 75.1473C129.537 75.1975 129.515 75.2457 129.477 75.2812C129.438 75.3167 129.386 75.3366 129.331 75.3366Z" fill="#292A2E"/>
<path d="M143.331 75.3366H133.778C133.723 75.3366 133.671 75.3167 133.632 75.2812C133.594 75.2457 133.572 75.1975 133.572 75.1473C133.572 75.0971 133.594 75.049 133.632 75.0135C133.671 74.978 133.723 74.958 133.778 74.958H143.331C143.386 74.958 143.438 74.978 143.476 75.0135C143.515 75.049 143.537 75.0971 143.537 75.1473C143.537 75.1975 143.515 75.2457 143.476 75.2812C143.438 75.3167 143.386 75.3366 143.331 75.3366Z" fill="#0CBC8B"/>
<path d="M161.081 75.3366H147.42C147.366 75.3366 147.314 75.3167 147.275 75.2812C147.236 75.2457 147.215 75.1975 147.215 75.1473C147.215 75.0971 147.236 75.049 147.275 75.0135C147.314 74.978 147.366 74.958 147.42 74.958H161.081C161.135 74.958 161.187 74.978 161.226 75.0135C161.264 75.049 161.286 75.0971 161.286 75.1473C161.286 75.1975 161.264 75.2457 161.226 75.2812C161.187 75.3167 161.135 75.3366 161.081 75.3366Z" fill="#292A2E"/>
<path d="M103.252 78.7523H98.6273C98.5728 78.7523 98.5205 78.7324 98.482 78.6968C98.4435 78.6613 98.4219 78.6132 98.4219 78.563C98.4219 78.5128 98.4435 78.4646 98.482 78.4291C98.5205 78.3936 98.5728 78.3737 98.6273 78.3737H103.252C103.307 78.3737 103.359 78.3936 103.397 78.4291C103.436 78.4646 103.458 78.5128 103.458 78.563C103.458 78.6132 103.436 78.6613 103.397 78.6968C103.359 78.7324 103.307 78.7523 103.252 78.7523Z" fill="#367CFF"/>
<path d="M139.225 78.7523H107.699C107.644 78.7523 107.592 78.7324 107.553 78.6968C107.515 78.6613 107.493 78.6132 107.493 78.563C107.493 78.5128 107.515 78.4646 107.553 78.4291C107.592 78.3936 107.644 78.3737 107.699 78.3737H139.225C139.28 78.3737 139.332 78.3936 139.37 78.4291C139.409 78.4646 139.431 78.5128 139.431 78.563C139.431 78.6132 139.409 78.6613 139.37 78.6968C139.332 78.7324 139.28 78.7523 139.225 78.7523Z" fill="#0CBC8B"/>
<path d="M128.51 92.4107H97.806C97.7515 92.4107 97.6993 92.3908 97.6607 92.3553C97.6222 92.3198 97.6006 92.2716 97.6006 92.2214C97.6006 92.1712 97.6222 92.1231 97.6607 92.0876C97.6993 92.0521 97.7515 92.0321 97.806 92.0321H128.51C128.564 92.0321 128.617 92.0521 128.655 92.0876C128.694 92.1231 128.715 92.1712 128.715 92.2214C128.715 92.2716 128.694 92.3198 128.655 92.3553C128.617 92.3908 128.564 92.4107 128.51 92.4107Z" fill="#292A2E"/>
<path d="M150.724 92.4107H132.956C132.901 92.4107 132.849 92.3908 132.811 92.3553C132.772 92.3198 132.75 92.2716 132.75 92.2214C132.75 92.1712 132.772 92.1231 132.811 92.0876C132.849 92.0521 132.901 92.0321 132.956 92.0321H150.724C150.778 92.0321 150.831 92.0521 150.869 92.0876C150.908 92.1231 150.929 92.1712 150.929 92.2214C150.929 92.2716 150.908 92.3198 150.869 92.3553C150.831 92.3908 150.778 92.4107 150.724 92.4107Z" fill="#367CFF"/>
<path d="M110.646 88.9961H97.806C97.7515 88.9961 97.6993 88.9761 97.6607 88.9406C97.6222 88.9051 97.6006 88.857 97.6006 88.8068C97.6006 88.7565 97.6222 88.7084 97.6607 88.6729C97.6993 88.6374 97.7515 88.6174 97.806 88.6174H110.646C110.701 88.6174 110.753 88.6374 110.792 88.6729C110.83 88.7084 110.852 88.7565 110.852 88.8068C110.852 88.857 110.83 88.9051 110.792 88.9406C110.753 88.9761 110.701 88.9961 110.646 88.9961Z" fill="#0CBC8B"/>
<path d="M138.403 88.9961H115.091C115.036 88.9961 114.984 88.9761 114.945 88.9406C114.907 88.9051 114.885 88.857 114.885 88.8068C114.885 88.7565 114.907 88.7084 114.945 88.6729C114.984 88.6374 115.036 88.6174 115.091 88.6174H138.403C138.457 88.6174 138.509 88.6374 138.548 88.6729C138.586 88.7084 138.608 88.7565 138.608 88.8068C138.608 88.857 138.586 88.9051 138.548 88.9406C138.509 88.9761 138.457 88.9961 138.403 88.9961Z" fill="#367CFF"/>
<path d="M160.295 88.9961H143.349C143.294 88.9961 143.242 88.9761 143.204 88.9406C143.165 88.9051 143.144 88.857 143.144 88.8068C143.144 88.7565 143.165 88.7084 143.204 88.6729C143.242 88.6374 143.294 88.6174 143.349 88.6174H160.295C160.349 88.6174 160.402 88.6374 160.44 88.6729C160.479 88.7084 160.5 88.7565 160.5 88.8068C160.5 88.857 160.479 88.9051 160.44 88.9406C160.402 88.9761 160.349 88.9961 160.295 88.9961Z" fill="#292A2E"/>
<path d="M140.831 99.2398H97.806C97.7515 99.2398 97.6993 99.2199 97.6607 99.1844C97.6222 99.1489 97.6006 99.1007 97.6006 99.0505C97.6006 99.0003 97.6222 98.9522 97.6607 98.9167C97.6993 98.8812 97.7515 98.8612 97.806 98.8612H140.831C140.886 98.8612 140.938 98.8812 140.976 98.9167C141.015 98.9522 141.037 99.0003 141.037 99.0505C141.037 99.1007 141.015 99.1489 140.976 99.1844C140.938 99.2199 140.886 99.2398 140.831 99.2398Z" fill="#367CFF"/>
<path d="M153.496 99.2398H145.278C145.223 99.2398 145.171 99.2199 145.132 99.1844C145.094 99.1489 145.072 99.1007 145.072 99.0505C145.072 99.0003 145.094 98.9522 145.132 98.9167C145.171 98.8812 145.223 98.8612 145.278 98.8612H153.496C153.55 98.8612 153.603 98.8812 153.641 98.9167C153.68 98.9522 153.701 99.0003 153.701 99.0505C153.701 99.1007 153.68 99.1489 153.641 99.1844C153.603 99.2199 153.55 99.2398 153.496 99.2398Z" fill="#292A2E"/>
<path d="M102.431 95.8252H97.8062C97.7786 95.8261 97.7511 95.8219 97.7253 95.8128C97.6995 95.8037 97.676 95.7899 97.6561 95.7723C97.6362 95.7546 97.6204 95.7335 97.6096 95.71C97.5988 95.6866 97.5933 95.6614 97.5933 95.636C97.5933 95.6105 97.5988 95.5853 97.6096 95.5619C97.6204 95.5385 97.6362 95.5173 97.6561 95.4997C97.676 95.482 97.6995 95.4682 97.7253 95.4591C97.7511 95.4501 97.7786 95.4458 97.8062 95.4468H102.431C102.458 95.4458 102.486 95.4501 102.512 95.4591C102.538 95.4682 102.561 95.482 102.581 95.4997C102.601 95.5173 102.617 95.5385 102.627 95.5619C102.638 95.5853 102.644 95.6105 102.644 95.636C102.644 95.6614 102.638 95.6866 102.627 95.71C102.617 95.7335 102.601 95.7546 102.581 95.7723C102.561 95.7899 102.538 95.8037 102.512 95.8128C102.486 95.8219 102.458 95.8261 102.431 95.8252Z" fill="#367CFF"/>
<path d="M138.403 95.8252H106.877C106.849 95.8261 106.822 95.8219 106.796 95.8128C106.77 95.8037 106.747 95.7899 106.727 95.7723C106.707 95.7546 106.691 95.7335 106.68 95.71C106.67 95.6866 106.664 95.6614 106.664 95.636C106.664 95.6105 106.67 95.5853 106.68 95.5619C106.691 95.5385 106.707 95.5173 106.727 95.4997C106.747 95.482 106.77 95.4682 106.796 95.4591C106.822 95.4501 106.849 95.4458 106.877 95.4468H138.403C138.431 95.4458 138.458 95.4501 138.484 95.4591C138.51 95.4682 138.533 95.482 138.553 95.4997C138.573 95.5173 138.589 95.5385 138.6 95.5619C138.61 95.5853 138.616 95.6105 138.616 95.636C138.616 95.6614 138.61 95.6866 138.6 95.71C138.589 95.7335 138.573 95.7546 138.553 95.7723C138.533 95.7899 138.51 95.8037 138.484 95.8128C138.458 95.8219 138.431 95.8261 138.403 95.8252Z" fill="#292A2E"/>
<path d="M160.295 95.8252H143.349C143.322 95.8261 143.294 95.8219 143.268 95.8128C143.243 95.8037 143.219 95.7899 143.199 95.7723C143.179 95.7546 143.163 95.7335 143.153 95.71C143.142 95.6866 143.136 95.6614 143.136 95.636C143.136 95.6105 143.142 95.5853 143.153 95.5619C143.163 95.5385 143.179 95.5173 143.199 95.4997C143.219 95.482 143.243 95.4682 143.268 95.4591C143.294 95.4501 143.322 95.4458 143.349 95.4468H160.295C160.323 95.4458 160.35 95.4501 160.376 95.4591C160.402 95.4682 160.425 95.482 160.445 95.4997C160.465 95.5173 160.481 95.5385 160.492 95.5619C160.503 95.5853 160.508 95.6105 160.508 95.636C160.508 95.6614 160.503 95.6866 160.492 95.71C160.481 95.7335 160.465 95.7546 160.445 95.7723C160.425 95.7899 160.402 95.8037 160.376 95.8128C160.35 95.8219 160.323 95.8261 160.295 95.8252Z" fill="#0CBC8B"/>
<path d="M128.51 102.655H97.806C97.7515 102.655 97.6993 102.635 97.6607 102.599C97.6222 102.564 97.6006 102.515 97.6006 102.465C97.6006 102.415 97.6222 102.367 97.6607 102.331C97.6993 102.296 97.7515 102.276 97.806 102.276H128.51C128.564 102.276 128.617 102.296 128.655 102.331C128.694 102.367 128.715 102.415 128.715 102.465C128.715 102.515 128.694 102.564 128.655 102.599C128.617 102.635 128.564 102.655 128.51 102.655Z" fill="#0CBC8B"/>
<path d="M142.51 102.655H132.956C132.902 102.655 132.85 102.635 132.811 102.599C132.773 102.564 132.751 102.515 132.751 102.465C132.751 102.415 132.773 102.367 132.811 102.331C132.85 102.296 132.902 102.276 132.956 102.276H142.51C142.564 102.276 142.617 102.296 142.655 102.331C142.694 102.367 142.715 102.415 142.715 102.465C142.715 102.515 142.694 102.564 142.655 102.599C142.617 102.635 142.564 102.655 142.51 102.655Z" fill="#292A2E"/>
<path d="M160.259 102.655H146.598C146.544 102.655 146.492 102.635 146.453 102.599C146.415 102.564 146.393 102.515 146.393 102.465C146.393 102.415 146.415 102.367 146.453 102.331C146.492 102.296 146.544 102.276 146.598 102.276H160.259C160.313 102.276 160.366 102.296 160.404 102.331C160.443 102.367 160.464 102.415 160.464 102.465C160.464 102.515 160.443 102.564 160.404 102.599C160.366 102.635 160.313 102.655 160.259 102.655H160.259Z" fill="#367CFF"/>
<path d="M83.7782 104.52C83.7512 104.52 83.7245 104.515 83.6996 104.505C83.6746 104.496 83.652 104.482 83.6329 104.464C83.6139 104.447 83.5987 104.426 83.5884 104.403C83.5781 104.38 83.5728 104.355 83.5728 104.331V52.3043C83.5728 52.2541 83.5944 52.2059 83.6329 52.1704C83.6714 52.1349 83.7237 52.115 83.7782 52.115C83.8326 52.115 83.8849 52.1349 83.9234 52.1704C83.9619 52.2059 83.9836 52.2541 83.9836 52.3043V104.331C83.9836 104.355 83.9782 104.38 83.9679 104.403C83.9576 104.426 83.9425 104.447 83.9234 104.464C83.9043 104.482 83.8817 104.496 83.8567 104.505C83.8318 104.515 83.8051 104.52 83.7782 104.52Z" fill="#292A2E"/>
<path d="M74.3856 54.6684H65.4915C65.4371 54.6684 65.3848 54.6485 65.3463 54.613C65.3078 54.5775 65.2861 54.5293 65.2861 54.4791C65.2861 54.4289 65.3078 54.3808 65.3463 54.3452C65.3848 54.3097 65.4371 54.2898 65.4915 54.2898H74.3845C74.4389 54.2898 74.4912 54.3097 74.5297 54.3452C74.5682 54.3808 74.5899 54.4289 74.5899 54.4791C74.5899 54.5293 74.5682 54.5775 74.5297 54.613C74.4912 54.6485 74.4389 54.6684 74.3845 54.6684H74.3856Z" fill="#292A2E"/>
<path d="M71.707 58.4017H65.4918C65.4642 58.4026 65.4367 58.3984 65.4109 58.3894C65.3851 58.3803 65.3615 58.3665 65.3417 58.3488C65.3218 58.3312 65.306 58.31 65.2952 58.2866C65.2844 58.2631 65.2788 58.238 65.2788 58.2125C65.2788 58.1871 65.2844 58.1619 65.2952 58.1385C65.306 58.115 65.3218 58.0939 65.3417 58.0762C65.3615 58.0585 65.3851 58.0448 65.4109 58.0357C65.4367 58.0266 65.4642 58.0224 65.4918 58.0233H71.7059C71.759 58.0251 71.8093 58.0458 71.8462 58.0811C71.8831 58.1164 71.9037 58.1635 71.9037 58.2125C71.9037 58.2615 71.8831 58.3086 71.8462 58.3439C71.8093 58.3792 71.759 58.3999 71.7059 58.4017H71.707Z" fill="#292A2E"/>
<path d="M77.1711 62.1352H65.4915C65.4371 62.1352 65.3848 62.1153 65.3463 62.0798C65.3078 62.0443 65.2861 61.9961 65.2861 61.9459C65.2861 61.8957 65.3078 61.8475 65.3463 61.812C65.3848 61.7765 65.4371 61.7566 65.4915 61.7566H77.17C77.2245 61.7566 77.2767 61.7765 77.3152 61.812C77.3537 61.8475 77.3754 61.8957 77.3754 61.9459C77.3754 61.9961 77.3537 62.0443 77.3152 62.0798C77.2767 62.1153 77.2245 62.1352 77.17 62.1352H77.1711Z" fill="#292A2E"/>
<path d="M79.3499 65.8685H69.6002C69.5726 65.8694 69.545 65.8652 69.5193 65.8562C69.4935 65.8471 69.4699 65.8333 69.4501 65.8156C69.4302 65.798 69.4144 65.7768 69.4036 65.7534C69.3928 65.7299 69.3872 65.7048 69.3872 65.6793C69.3872 65.6539 69.3928 65.6287 69.4036 65.6053C69.4144 65.5818 69.4302 65.5607 69.4501 65.543C69.4699 65.5253 69.4935 65.5116 69.5193 65.5025C69.545 65.4934 69.5726 65.4892 69.6002 65.4901H79.3499C79.3775 65.4892 79.405 65.4934 79.4308 65.5025C79.4566 65.5116 79.4801 65.5253 79.5 65.543C79.5198 65.5607 79.5357 65.5818 79.5465 65.6053C79.5573 65.6287 79.5628 65.6539 79.5628 65.6793C79.5628 65.7048 79.5573 65.7299 79.5465 65.7534C79.5357 65.7768 79.5198 65.798 79.5 65.8156C79.4801 65.8333 79.4566 65.8471 79.4308 65.8562C79.405 65.8652 79.3775 65.8694 79.3499 65.8685Z" fill="#292A2E"/>
<path d="M74.6354 69.602H69.5999C69.5455 69.602 69.4932 69.5821 69.4547 69.5466C69.4162 69.5111 69.3945 69.4629 69.3945 69.4127C69.3945 69.3625 69.4162 69.3143 69.4547 69.2788C69.4932 69.2433 69.5455 69.2234 69.5999 69.2234H74.6354C74.6899 69.2234 74.7422 69.2433 74.7807 69.2788C74.8192 69.3143 74.8408 69.3625 74.8408 69.4127C74.8408 69.4629 74.8192 69.5111 74.7807 69.5466C74.7422 69.5821 74.6899 69.602 74.6354 69.602Z" fill="#292A2E"/>
<path d="M78.492 73.3357H69.5999C69.5455 73.3357 69.4932 73.3157 69.4547 73.2802C69.4162 73.2447 69.3945 73.1966 69.3945 73.1464C69.3945 73.0961 69.4162 73.048 69.4547 73.0125C69.4932 72.977 69.5455 72.957 69.5999 72.957H78.492C78.5465 72.957 78.5988 72.977 78.6373 73.0125C78.6758 73.048 78.6974 73.0961 78.6974 73.1464C78.6974 73.1966 78.6758 73.2447 78.6373 73.2802C78.5988 73.3157 78.5465 73.3357 78.492 73.3357Z" fill="#292A2E"/>
<path d="M72.3496 77.0689H65.4915C65.4371 77.0689 65.3848 77.049 65.3463 77.0135C65.3078 76.978 65.2861 76.9298 65.2861 76.8796C65.2861 76.8294 65.3078 76.7813 65.3463 76.7458C65.3848 76.7103 65.4371 76.6903 65.4915 76.6903H72.3485C72.4029 76.6903 72.4552 76.7103 72.4937 76.7458C72.5322 76.7813 72.5539 76.8294 72.5539 76.8796C72.5539 76.9298 72.5322 76.978 72.4937 77.0135C72.4552 77.049 72.4029 77.0689 72.3485 77.0689H72.3496Z" fill="#292A2E"/>
<path d="M69.9923 80.8025H65.4915C65.4371 80.8025 65.3848 80.7825 65.3463 80.747C65.3078 80.7115 65.2861 80.6634 65.2861 80.6131C65.2861 80.5629 65.3078 80.5148 65.3463 80.4793C65.3848 80.4438 65.4371 80.4238 65.4915 80.4238H69.9912C70.0457 80.4238 70.0979 80.4438 70.1365 80.4793C70.175 80.5148 70.1966 80.5629 70.1966 80.6131C70.1966 80.6634 70.175 80.7115 70.1365 80.747C70.0979 80.7825 70.0457 80.8025 69.9912 80.8025H69.9923Z" fill="#292A2E"/>
<defs>
<linearGradient id="paint0_linear_4404_7928" x1="122.7" y1="53.5" x2="113.479" y2="119.369" gradientUnits="userSpaceOnUse">
<stop stop-color="#292A2E"/>
<stop offset="1" stop-color="#404040"/>
</linearGradient>
</defs>
</svg>
