<svg width="56" height="56" viewBox="0 0 56 56" fill="none" xmlns="http://www.w3.org/2000/svg">
<g filter="url(#filter0_d_202_2766)">
<rect x="2" y="1" width="52" height="52" rx="12" fill="#E8F0F6"/>
<path d="M21.7786 30.2885H31.9514C32.6432 30.2885 33.2699 29.9043 33.5926 29.2859L37.7839 21.2163C38.0908 20.6249 38.0701 19.9315 37.7266 19.3612C37.3881 18.7959 36.798 18.4607 36.1447 18.4607H36.1289L18.7531 18.6098L18.6958 18.4107C18.4116 17.4161 17.6142 16.6706 16.6184 16.4585L14.4651 16.0083C14.2588 15.9642 14.0526 16.1003 14.0082 16.3144C13.9647 16.5266 14.0989 16.7327 14.3101 16.7777L16.4625 17.23C17.177 17.3821 17.7504 17.9184 17.9546 18.6298L21.1601 29.8183L19.965 31.4222C19.5318 32.0035 19.4617 32.77 19.7815 33.4214C19.8871 33.6385 20.0321 33.8296 20.2019 33.9837C19.5723 34.3609 19.1489 35.0543 19.1489 35.8437C19.1489 37.0314 20.1012 38 21.2726 38C22.444 38 23.3994 37.0315 23.3994 35.8437C23.3994 35.3255 23.2158 34.8472 22.9118 34.4749H32.5359C32.2339 34.8462 32.0504 35.3254 32.0504 35.8437C32.0504 37.0314 33.0027 38 34.1741 38C35.3455 38 36.3008 37.0315 36.3008 35.8437C36.3008 35.3255 36.1173 34.8472 35.8153 34.4749H35.8488C36.06 34.4749 36.2357 34.2998 36.2357 34.0827C36.2357 33.8656 36.06 33.6905 35.8488 33.6905H21.464C21.0357 33.6905 20.6636 33.4574 20.4732 33.0702C20.2817 32.6799 20.3232 32.2437 20.5817 31.8955L21.7786 30.2885Z" fill="#277EB8"/>
</g>
<defs>
<filter id="filter0_d_202_2766" x="0" y="0" width="56" height="56" filterUnits="userSpaceOnUse" color-interpolation-filters="sRGB">
<feFlood flood-opacity="0" result="BackgroundImageFix"/>
<feColorMatrix in="SourceAlpha" type="matrix" values="0 0 0 0 0 0 0 0 0 0 0 0 0 0 0 0 0 0 127 0" result="hardAlpha"/>
<feOffset dy="1"/>
<feGaussianBlur stdDeviation="1"/>
<feComposite in2="hardAlpha" operator="out"/>
<feColorMatrix type="matrix" values="0 0 0 0 0 0 0 0 0 0 0 0 0 0 0 0 0 0 0.1 0"/>
<feBlend mode="normal" in2="BackgroundImageFix" result="effect1_dropShadow_202_2766"/>
<feBlend mode="normal" in="SourceGraphic" in2="effect1_dropShadow_202_2766" result="shape"/>
</filter>
</defs>
</svg>
