<svg width="87" height="34" viewBox="0 0 87 34" fill="none" xmlns="http://www.w3.org/2000/svg">
<g clip-path="url(#clip0_3668_1756)">
<path d="M77.4435 15.6723L78.0482 20.1446C78.0482 20.1446 78.1078 20.9668 77.2827 20.9668H70.6323V20.2994L69.974 20.9668H63.3228V20.3741L62.6184 20.9668H47.7948L47.7939 20.3368L47.2199 20.9668L40.5312 20.9667V17.9144H43.9473L43.7756 15.7345H47.4127L47.5844 17.8149H58.9572L58.7855 15.7968H62.8495L63.0212 17.9144H66.6583L66.4866 15.7096H70.1236L70.2953 17.8522H73.932L73.7603 15.7096L77.4435 15.6723Z" fill="#626367"/>
<path d="M43.869 23.4276H47.506L47.3265 22.2749H43.6895L43.869 23.4276Z" fill="#626367"/>
<path d="M25.0906 23.4278H28.7277L28.5482 22.2751H24.9111L25.0906 23.4278Z" fill="#626367"/>
<path d="M27.3459 15.6726L28.0502 20.8425L26.4801 20.967H20.269V20.3067C20.269 20.3067 20.1271 21.0043 19.2877 21.0043H13.9296L14.0731 22.6873C14.0731 23.9873 13.0984 24.0063 13.0984 24.0063H5.88256C5.88256 24.0063 4.6702 23.9747 4.6702 22.8671L4.33496 18.3884H7.76436V20.9421H10.6391L10.033 11.35H13.0461L13.5719 17.9147H16.712L16.3998 15.7721H20.0369L20.3491 17.8774H23.5819V15.7721L27.3459 15.6726Z" fill="#626367"/>
<path d="M23.2705 13.069L26.7918 11.3497L26.8153 12.1095L23.282 13.8289L23.2705 13.069Z" fill="#626367"/>
<path d="M16.2684 14.4552H19.9055L19.726 13.3025H16.0889L16.2684 14.4552Z" fill="#626367"/>
<path d="M36.837 15.7349C39.2422 19.401 38.4314 22.8404 35.9273 23.9765L35.9258 23.9789C37.9612 24.1056 42.2388 20.6524 38.477 15.7349L36.837 15.7349Z" fill="white"/>
<path d="M38.4768 15.7349H39.8851C43.0884 22.0603 37.7364 24.7872 35.9258 23.9788C37.9612 24.1055 42.2386 20.6524 38.4768 15.7349Z" fill="black"/>
<path d="M38.9099 17.8773L39.0714 18.413H39.5911L39.1753 18.7491L39.3257 19.2725L38.9099 18.9488L38.5056 19.2725L38.656 18.7491L38.2402 18.413H38.7599L38.9099 17.8773Z" fill="#00A651"/>
<path d="M38.99 19.9454L39.1515 20.4811H39.6711L39.2558 20.8173L39.4058 21.353L38.99 21.0169L38.5742 21.353L38.7361 20.8173L38.3203 20.4811H38.84L38.99 19.9454Z" fill="#00A651"/>
<path d="M36.8367 15.7348H35.1357C40.3351 24.6934 31.5774 27.2059 21.3252 12.9341C31.2047 31.2072 42.2929 24.0513 36.8367 15.7348Z" fill="#FF0000"/>
<path d="M42.7265 24.646C42.0691 24.646 40.9304 25.317 40.8396 26.4996C40.7159 28.1093 42.678 27.7026 42.5703 28.13C42.4241 28.71 41.2761 28.3059 41.0253 27.9388L40.4766 29.3049C40.9149 29.5876 41.4287 29.7217 41.9328 29.7301C42.954 29.747 43.9354 29.248 44.1689 28.4224C44.7619 26.3317 42.4886 26.6555 42.5619 26.1716C42.6282 25.7336 43.4674 25.9437 43.9211 26.3173L44.3516 25.2425L45.5082 27.1189V29.7301H47.163V27.1553L48.8425 24.8909L48.1678 29.7301H49.8155L50.0901 27.8279L51.3925 29.7301H55.8839L56.1202 29.0409H57.4119L57.4415 29.7301H60.9155L61.4085 26.2274H62.338L62.6039 24.646H59.0624L58.7998 26.2403H59.7221L59.2312 29.601L58.3026 24.6824H56.4368L54.2165 29.4052L54.8897 24.646H53.2182L52.5227 29.2319L51.9433 28.1491C51.9433 28.1491 51.6965 27.7474 51.4897 27.7474C51.4897 27.7474 52.6082 27.442 52.6082 26.1443C52.6082 25.1973 52.057 24.646 51.2153 24.646H47.0784L46.3778 25.9622L46.0565 24.646H42.7265ZM66.1006 24.646L65.3426 29.7301H69.5034V28.0855H67.229L67.796 24.646H66.1006ZM50.3229 25.9859H50.7736C50.8666 25.9859 50.9953 26.1618 50.9711 26.4315C50.9469 26.7012 50.7831 26.8682 50.6274 26.8682H50.2035L50.3229 25.9859ZM57.176 26.3143L57.2358 27.8343H56.5552L57.176 26.3143Z" fill="#626367"/>
<path d="M64.6698 24.6702C63.8589 24.6782 62.7165 25.4393 61.8741 27.506C61.8741 27.506 60.8394 27.5881 59.7588 27.2101C60.0724 28.1338 60.9854 28.2849 61.7934 28.2849C62.2831 32.1106 67.3797 29.2885 69.0734 24.7493C65.8857 29.0517 63.2471 30.2755 62.7098 28.2402C66.1524 27.8275 66.2115 25.2954 65.1703 24.7781C65.0262 24.7065 64.8569 24.6684 64.6698 24.6702ZM64.5792 25.4482C64.6514 25.451 64.7144 25.4676 64.7651 25.4978C65.2269 25.772 65.1113 27.2557 62.7896 27.4015C63.122 26.0785 64.0743 25.4284 64.5792 25.4482Z" fill="#FF0000"/>
<path d="M0 11.6357C10.3255 2.75223 39.1721 -4.76815 63.2233 3.70512C87.8327 12.3751 90.2914 23.829 83.8342 33.9537C90.8053 22.6319 80.4158 10.9473 62.8342 5.04937C45.7774 -0.672544 21.5644 -0.494796 0 11.6357Z" fill="#FF0000"/>
<path d="M77.9953 15.0385L78.5999 19.5108C78.5999 19.5108 78.6595 20.333 77.8345 20.333H71.1841V19.6657L70.5258 20.333H63.8746V19.7404L63.1702 20.333H48.3465L48.3456 19.703L47.7717 20.333L41.083 20.3329V17.2807H44.4991L44.3274 15.1007H47.9645L48.1362 17.1811H59.5089L59.3372 15.163H63.4012L63.5729 17.2807H67.21L67.0383 15.0758H70.6754L70.8471 17.2184H74.4838L74.3121 15.0758L77.9953 15.0385Z" fill="#DFE1E8"/>
<path d="M43.868 23.4278H47.5051L47.3256 22.2751H43.6885L43.868 23.4278Z" fill="#626367"/>
<path d="M25.0906 23.4278H28.7277L28.5482 22.2751H24.9111L25.0906 23.4278Z" fill="#626367"/>
<path d="M27.3459 15.6726L28.0502 20.8425L26.4801 20.967H20.269V20.3067C20.269 20.3067 20.1271 21.0043 19.2877 21.0043H13.9296L14.0731 22.6873C14.0731 23.9873 13.0984 24.0063 13.0984 24.0063H5.88256C5.88256 24.0063 4.6702 23.9747 4.6702 22.8671L4.33496 18.3884H7.76436V20.9421H10.6391L10.033 11.35H13.0461L13.5719 17.9147H16.712L16.3998 15.7721H20.0369L20.3491 17.8774H23.5819V15.7721L27.3459 15.6726Z" fill="#DFE1E8"/>
<path d="M23.2705 13.069L26.7918 11.3497L26.8153 12.1095L23.282 13.8289L23.2705 13.069Z" fill="#626367"/>
<path d="M16.2684 14.4552H19.9055L19.726 13.3025H16.0889L16.2684 14.4552Z" fill="#626367"/>
<path d="M36.837 15.7349C39.2422 19.401 38.4314 22.8404 35.9273 23.9765L35.9258 23.9789C37.9612 24.1056 42.2388 20.6524 38.477 15.7349L36.837 15.7349Z" fill="white"/>
<path d="M38.4768 15.7349H39.8851C43.0884 22.0603 37.7364 24.7872 35.9258 23.9788C37.9612 24.1055 42.2386 20.6524 38.4768 15.7349Z" fill="black"/>
<path d="M36.8367 15.7348H35.1357C40.3351 24.6934 31.5774 27.2059 21.3252 12.9341C31.2047 31.2072 42.2929 24.0513 36.8367 15.7348Z" fill="#007A3D"/>
<path d="M42.7265 24.646C42.0691 24.646 40.9304 25.317 40.8396 26.4996C40.7159 28.1093 42.678 27.7026 42.5703 28.13C42.4241 28.71 41.2761 28.3059 41.0253 27.9388L40.4766 29.3049C40.9149 29.5876 41.4287 29.7217 41.9328 29.7301C42.954 29.747 43.9354 29.248 44.1689 28.4224C44.7619 26.3317 42.4886 26.6555 42.5619 26.1716C42.6282 25.7336 43.4674 25.9437 43.9211 26.3173L44.3516 25.2425L45.5082 27.1189V29.7301H47.163V27.1553L48.8425 24.8909L48.1678 29.7301H49.8155L50.0901 27.8279L51.3925 29.7301H55.8839L56.1202 29.0409H57.4119L57.4415 29.7301H60.9155L61.4085 26.2274H62.338L62.6039 24.646H59.0624L58.7998 26.2403H59.7221L59.2312 29.601L58.3026 24.6824H56.4368L54.2165 29.4052L54.8897 24.646H53.2182L52.5227 29.2319L51.9433 28.1491C51.9433 28.1491 51.6965 27.7474 51.4897 27.7474C51.4897 27.7474 52.6082 27.442 52.6082 26.1443C52.6082 25.1973 52.057 24.646 51.2153 24.646H47.0784L46.3778 25.9622L46.0565 24.646H42.7265ZM66.1006 24.646L65.3426 29.7301H69.5034V28.0855H67.229L67.796 24.646H66.1006ZM50.3229 25.9859H50.7736C50.8666 25.9859 50.9953 26.1618 50.9711 26.4315C50.9469 26.7012 50.7831 26.8682 50.6274 26.8682H50.2035L50.3229 25.9859ZM57.176 26.3143L57.2358 27.8343H56.5552L57.176 26.3143Z" fill="#DFE1E8"/>
<path d="M64.6698 24.67C63.8589 24.678 62.7165 25.439 61.8741 27.5058C61.8741 27.5058 60.8394 27.5879 59.7588 27.2099C60.0724 28.1336 60.9854 28.2847 61.7934 28.2847C62.2831 32.1103 67.3797 29.2883 69.0734 24.7491C65.8857 29.0515 63.2471 30.2752 62.7098 28.2399C66.1524 27.8272 66.2115 25.2951 65.1703 24.7779C65.0262 24.7063 64.8569 24.6681 64.6698 24.67ZM64.5792 25.4479C64.6514 25.4508 64.7144 25.4674 64.7651 25.4975C65.2269 25.7718 65.1113 27.2555 62.7896 27.4012C63.122 26.0782 64.0743 25.4281 64.5792 25.4479Z" fill="#FF0000"/>
<path d="M38.0488 17.8105L38.3805 17.4568L38.1685 17.0086L38.5828 17.2396L38.9124 16.8835L38.8367 17.3801L39.2524 17.6082L38.7914 17.6841L38.7187 18.1811L38.5094 17.7314L38.0488 17.8105Z" fill="#FF0000"/>
<path d="M38.4151 19.3433L38.8408 19.1377L38.7881 18.6377L39.1009 19.011L39.5253 18.8025L39.2929 19.2388L39.6079 19.6099L39.1515 19.5062L38.9217 19.9441L38.8721 19.4438L38.4151 19.3433Z" fill="#FF0000"/>
<path d="M38.2482 21.0172L38.714 21.0431L38.8779 20.572L38.999 21.0579L39.4649 21.0805L39.074 21.355L39.198 21.84L38.8353 21.5237L38.4461 21.8009L38.6128 21.331L38.2482 21.0172Z" fill="#FF0000"/>
</g>
<defs>
<clipPath id="clip0_3668_1756">
<rect width="87" height="34" fill="white"/>
</clipPath>
</defs>
</svg>
