<svg width="50" height="50" viewBox="0 0 50 50" fill="none" xmlns="http://www.w3.org/2000/svg">
<path d="M37.3142 5H11.719C11.3235 5 11 5.32354 11 5.71897V43.5008C11 43.8962 11.3235 44.2197 11.719 44.2197H14.4151V45.4779C14.4151 45.6936 14.5948 45.8734 14.8105 45.8734C15.0262 45.8734 15.206 45.6936 15.206 45.4779V44.2197H16.1406V45.4779C16.1406 45.6936 16.3204 45.8734 16.5361 45.8734C16.7517 45.8734 16.9315 45.6936 16.9315 45.4779V44.2197H32.0658V45.4779C32.0658 45.6936 32.2455 45.8734 32.4612 45.8734C32.6769 45.8734 32.8566 45.6936 32.8566 45.4779V44.2197H33.7913V45.4779C33.7913 45.6936 33.971 45.8734 34.1867 45.8734C34.4024 45.8734 34.5822 45.6936 34.5822 45.4779V44.2197H37.2783C37.6737 44.2197 37.9973 43.8962 37.9973 43.5008V5.71897C38.0332 5.32354 37.7097 5 37.3142 5ZM36.5953 42.7818H12.4379V31.9613H36.5593V42.7818H36.5953ZM36.5953 6.43794V31.1705H12.4379V6.43794H36.5953Z" fill="#277EB8"/>
<path d="M24.5165 40.7686C26.4217 40.7686 27.9675 39.2228 27.9675 37.2816C27.9675 35.3763 26.4217 33.8306 24.5165 33.8306C22.6112 33.8306 21.0654 35.3763 21.0654 37.2816C21.0654 39.2228 22.6112 40.7686 24.5165 40.7686ZM24.5165 34.6574C25.9904 34.6574 27.1767 35.8437 27.1767 37.3176C27.1767 38.7914 25.9904 39.9777 24.5165 39.9777C23.0426 39.9777 21.8563 38.7914 21.8563 37.3176C21.8563 35.8437 23.0426 34.6574 24.5165 34.6574Z" fill="#277EB8"/>
<path d="M20.6369 20.7459L22.3862 21.5638C22.4676 21.6068 22.5083 21.6929 22.4676 21.8221L21.1251 25.9117C20.9217 26.4713 21.2065 27.117 21.7353 27.3753C21.898 27.4614 22.0201 27.4614 22.1828 27.4614C22.4676 27.4614 22.7523 27.3323 22.9557 27.117L28.6511 21.0903C28.8952 20.832 29.0172 20.4445 28.9358 20.0571C28.8545 19.6697 28.6511 19.3683 28.2849 19.1961L26.5357 18.3782C26.4543 18.3352 26.4136 18.2491 26.4543 18.1199L27.7968 14.0303C28.0002 13.4707 27.7154 12.8249 27.1866 12.5667C26.7797 12.3514 26.2916 12.4806 25.9661 12.8249L20.2708 18.8517C20.0267 19.11 19.9047 19.4975 19.986 19.8849C20.0674 20.2723 20.3115 20.6167 20.6369 20.7459ZM20.9624 19.5405L26.6577 13.5137C26.6984 13.4707 26.7391 13.4707 26.7797 13.4707C26.8204 13.4707 26.8204 13.4707 26.8611 13.4707C26.9425 13.5137 26.9832 13.5998 26.9425 13.729L25.6 17.8186C25.3966 18.3782 25.6814 19.0239 26.2102 19.2822L27.9595 20.1001C28.0409 20.1432 28.0409 20.1862 28.0815 20.2293C28.1222 20.2723 28.0815 20.3584 28.0409 20.4015L22.3455 26.4283C22.3048 26.4713 22.2235 26.5144 22.1421 26.4713C22.0608 26.4283 22.0201 26.3422 22.0608 26.213L23.4032 22.1234C23.6066 21.5638 23.3219 20.9181 22.793 20.6598L21.0437 19.8418C20.9624 19.7988 20.9624 19.7557 20.9217 19.7127C20.881 19.7127 20.881 19.6266 20.9624 19.5405Z" fill="#277EB8"/>
<path d="M20.8264 20.5331L22.5757 21.2965C22.657 21.3367 22.6977 21.417 22.657 21.5376L21.3146 25.3545C21.1112 25.8768 20.9326 27.2204 21.4614 27.4615C21.6241 27.5418 22.2987 27.4615 22.4614 27.4615C22.7462 27.4615 22.9418 26.6804 23.1452 26.4795L28.8405 20.8545C29.0846 20.6134 29.2067 20.2518 29.1253 19.8902C29.0439 19.5286 28.8405 19.2474 28.4744 19.0867L26.7251 18.3233C26.6438 18.2831 26.6031 18.2027 26.6438 18.0822L27.9862 14.2652C28.1896 13.7429 27.9903 12.7025 27.4614 12.4614C27.0546 12.2605 26.481 12.8188 26.1556 13.1402L20.4603 18.7652C20.2162 19.0063 20.0941 19.3679 20.1755 19.7295C20.2569 20.0911 20.5009 20.4126 20.8264 20.5331ZM21.1518 19.4081L26.8472 13.7831C26.8878 13.7429 26.9285 13.7429 26.9692 13.7429C27.0099 13.7429 27.0099 13.7429 27.0506 13.7429C27.1319 13.7831 27.1726 13.8634 27.1319 13.984L25.7895 17.8009C25.586 18.3233 25.8708 18.9259 26.3997 19.167L28.1489 19.9304C28.2303 19.9706 28.2303 20.0108 28.271 20.0509C28.3117 20.0911 28.271 20.1715 28.2303 20.2117L22.535 25.8367C22.4943 25.8768 22.4129 25.917 22.3316 25.8768C22.2502 25.8367 22.2095 25.7563 22.2502 25.6358L23.5927 21.8188C23.7961 21.2965 23.5113 20.6938 22.9825 20.4527L21.2332 19.6893C21.1518 19.6492 21.1518 19.609 21.1112 19.5688C21.0705 19.5688 21.0705 19.4884 21.1518 19.4081Z" fill="#277EB8"/>
<path d="M19.7872 20.8505L21.9252 21.7774C22.0246 21.8262 22.0743 21.9238 22.0246 22.0702L20.3838 26.705C20.1352 27.3393 20.4833 28.0711 21.1296 28.3639C21.3285 28.4614 21.4777 28.4614 21.6766 28.4614C22.0246 28.4614 22.3727 28.3151 22.6213 28.0711L29.5822 21.2408C29.8805 20.948 30.0297 20.5089 29.9303 20.0698C29.8308 19.6308 29.5822 19.2892 29.1347 19.0941L26.9967 18.1671C26.8973 18.1183 26.8476 18.0207 26.8973 17.8744L28.5381 13.2395C28.7867 12.6052 28.4386 11.8734 27.7922 11.5807C27.295 11.3367 26.6984 11.4831 26.3006 11.8734L19.3397 18.7038C19.0413 18.9965 18.8922 19.4356 18.9916 19.8747C19.0911 20.3138 19.3894 20.7041 19.7872 20.8505ZM20.1849 19.4844L27.1459 12.654C27.1956 12.6052 27.2453 12.6052 27.295 12.6052C27.3448 12.6052 27.3448 12.6052 27.3945 12.6052C27.4939 12.654 27.5436 12.7516 27.4939 12.898L25.8531 17.5329C25.6045 18.1671 25.9526 18.8989 26.5989 19.1917L28.737 20.1186C28.8364 20.1674 28.8364 20.2162 28.8861 20.265C28.9358 20.3138 28.8861 20.4114 28.8364 20.4602L21.8754 27.2905C21.8257 27.3393 21.7263 27.3881 21.6268 27.3393C21.5274 27.2905 21.4777 27.1929 21.5274 27.0466L23.1682 22.4117C23.4168 21.7774 23.0687 21.0456 22.4224 20.7529L20.2844 19.8259C20.1849 19.7771 20.1849 19.7283 20.1352 19.6795C20.0855 19.6795 20.0855 19.582 20.1849 19.4844Z" fill="#277EB8"/>
<rect x="12.4609" y="6.96143" width="24" height="36" stroke="#277EB8"/>
<rect x="13.4609" y="30.9614" width="24" height="1" stroke="#277EB8"/>
</svg>
