<svg width="24" height="24" viewBox="0 0 24 24" fill="none" xmlns="http://www.w3.org/2000/svg">
<path d="M19.6979 5.20621C19.4249 4.96771 18.9963 4.93358 18.553 5.11696H18.5523C18.0861 5.30971 5.35691 10.9362 4.83872 11.1661C4.74447 11.1998 3.92133 11.5163 4.00612 12.2214C4.08181 12.857 4.74338 13.1202 4.82416 13.1506L8.06033 14.2925C8.27503 15.029 9.06651 17.7462 9.24155 18.3267C9.35072 18.6886 9.52867 19.1641 9.84053 19.262C10.1142 19.3707 10.3864 19.2714 10.5625 19.1289L12.541 17.2377L15.735 19.8046L15.811 19.8515C16.0279 19.9505 16.2357 20 16.434 20C16.5872 20 16.7343 19.9704 16.8747 19.9111C17.3533 19.7086 17.5447 19.2387 17.5647 19.1855L19.9504 6.40658C20.096 5.72408 19.8936 5.37683 19.6979 5.20621ZM10.9144 14.7492L9.8227 17.7492L8.731 13.9992L17.1007 7.62421L10.9144 14.7492Z" fill="#363636"/>
</svg>
