<svg width="24" height="24" viewBox="0 0 24 24" fill="none" xmlns="http://www.w3.org/2000/svg">
<path d="M12 4C7.58891 4 4.00005 7.58887 4.00005 12C4.00005 13.3774 4.35588 14.7318 5.03066 15.927L4.01292 19.5583C3.97953 19.6776 4.01188 19.8056 4.09814 19.8943C4.16457 19.9628 4.25501 20 4.34788 20C4.3757 20 4.40388 19.9965 4.43135 19.9899L8.22126 19.0511C9.37847 19.6723 10.6818 20 12 20C16.4111 20 20 16.4111 20 12C20 7.58887 16.4111 4 12 4ZM16.0244 14.823C15.8532 15.2967 15.0324 15.729 14.6379 15.7871C14.2838 15.839 13.8358 15.8612 13.344 15.7068C13.0459 15.6129 12.6633 15.4883 12.1732 15.2793C10.1131 14.4007 8.76769 12.3523 8.66473 12.217C8.56212 12.0817 7.82613 11.1176 7.82613 10.1197C7.82613 9.12174 8.35656 8.63096 8.54508 8.42783C8.7336 8.2247 8.95586 8.17391 9.0929 8.17391C9.22995 8.17391 9.36664 8.17565 9.48664 8.18122C9.6129 8.18748 9.78229 8.13357 9.9489 8.52939C10.12 8.93565 10.5308 9.93357 10.5816 10.0355C10.6331 10.137 10.6672 10.2557 10.599 10.391C10.5308 10.5263 10.4967 10.6108 10.3938 10.7294C10.2908 10.848 10.1781 10.9937 10.0856 11.0849C9.98264 11.1861 9.87586 11.2957 9.99551 11.4988C10.1152 11.7019 10.5273 12.3659 11.1381 12.9037C11.9225 13.5944 12.5844 13.8087 12.7896 13.9103C12.9948 14.0118 13.1148 13.9948 13.2345 13.8595C13.3541 13.7238 13.7478 13.2671 13.8845 13.0643C14.0212 12.8616 14.1583 12.895 14.3468 12.9628C14.5353 13.0303 15.5451 13.5207 15.7503 13.6223C15.9555 13.7238 16.0925 13.7746 16.144 13.8591C16.1955 13.9433 16.1955 14.3496 16.0244 14.823Z" fill="#363636"/>
</svg>
